<?xml version="1.0" encoding="UTF-8" standalone="no"?>
<svg
   xmlns:dc="http://purl.org/dc/elements/1.1/"
   xmlns:cc="http://creativecommons.org/ns#"
   xmlns:rdf="http://www.w3.org/1999/02/22-rdf-syntax-ns#"
   xmlns:svg="http://www.w3.org/2000/svg"
   xmlns="http://www.w3.org/2000/svg"
   xmlns:sodipodi="http://sodipodi.sourceforge.net/DTD/sodipodi-0.dtd"
   xmlns:inkscape="http://www.inkscape.org/namespaces/inkscape"
   width="113.64676mm"
   height="187.80124mm"
   viewBox="0 0 113.64676 187.80123"
   version="1.1"
   id="svg8"
   sodipodi:docname="beer_1.svg"
   inkscape:version="1.0.1 (c497b03c, 2020-09-10)">
  <defs
     id="defs2" />
  <sodipodi:namedview
     id="base"
     pagecolor="#ffffff"
     bordercolor="#666666"
     borderopacity="1.0"
     inkscape:pageopacity="0.0"
     inkscape:pageshadow="2"
     inkscape:zoom="0.56439574"
     inkscape:cx="203.92827"
     inkscape:cy="287.23536"
     inkscape:document-units="mm"
     inkscape:current-layer="layer1"
     inkscape:document-rotation="0"
     showgrid="false"
     inkscape:window-width="1792"
     inkscape:window-height="1023"
     inkscape:window-x="19"
     inkscape:window-y="49"
     inkscape:window-maximized="0"
     inkscape:snap-global="false"
     fit-margin-top="0"
     fit-margin-left="0"
     fit-margin-right="0"
     fit-margin-bottom="0" />
  <metadata
     id="metadata5">
    <rdf:RDF>
      <cc:Work
         rdf:about="">
        <dc:format>image/svg+xml</dc:format>
        <dc:type
           rdf:resource="http://purl.org/dc/dcmitype/StillImage" />
        <dc:title></dc:title>
      </cc:Work>
    </rdf:RDF>
  </metadata>
  <g
     inkscape:label="Ebene 1"
     inkscape:groupmode="layer"
     id="layer1"
     transform="translate(-68.815285,-45.062546)">
    <g
       id="g2184"
       transform="translate(7.8708659e-5,-8.8893333e-5)">
      <path
         style="fill:#f5f5f5;fill-opacity:1;stroke:none;stroke-width:0.355153;stroke-opacity:1"
         d="m 115.30634,88.428662 c -14.53226,-0.605483 -24.906869,-1.46808 -35.582603,-5.296998 -5.346569,-2.750947 -6.206129,-1.670722 -6.163089,-7.096194 0.003,-2.000533 -0.18508,-2.892779 -0.0124,-3.198217 0.26422,-0.467416 2.301062,-0.05823 4.858955,0.774845 10.773738,3.508875 19.803375,3.18497 36.756207,3.817015 23.31876,0.869386 45.33032,0.03081 57.82812,-5.642904 3.78823,-1.719769 4.89231,-1.093731 4.7741,4.200006 l -0.0815,3.649755 -2.97333,1.549628 c -8.20274,4.275071 -16.19974,4.995 -30.24472,6.680941 -9.71041,0.639344 -19.44654,0.966822 -29.15974,0.562123 z"
         id="path2300-4"
         sodipodi:nodetypes="cccssssscscc" />
      <path
         style="fill:#f5f5f5;fill-opacity:1;stroke:none;stroke-width:0.329514"
         d="m 113.83579,228.79355 c -9.5355,-0.73383 -17.752108,-3.36308 -21.228689,-6.79302 -2.703948,-2.66767 -2.808773,-3.17905 -2.815312,-13.73445 -0.01194,-19.28037 -0.835964,-37.7329 -2.144772,-48.02904 -1.11499,-8.77147 -1.959114,-11.52866 -7.83758,-21.74565 -4.524371,-7.86353 -4.461387,-19.09301 -5.165748,-23.84552 -0.643269,-4.34023 0.08561,-29.26072 0.618775,-28.161178 0.137663,0.283901 7.13425,2.866686 9.099203,3.206309 10.471673,1.809926 13.472713,2.193604 26.744723,3.800494 5.9086,0.715374 24.14712,-0.117354 30.84495,-0.624146 15.3564,-1.16202 20.14198,-0.726215 28.61719,-5.05189 1.46706,-0.748779 5.81765,0.609751 5.81765,0.609751 0.15323,1.625893 0.64244,2.790395 0.49158,4.416528 -0.16513,2.19118 -0.26932,5.822033 -0.37283,7.921912 -0.50797,10.30613 -0.96016,18.74376 -4.89031,31.1069 -2.96714,9.33373 -7.3527,15.87719 -8.04083,19.9328 -0.61633,3.63244 -1.02205,12.75539 -1.83274,41.21113 -0.36287,12.73682 -0.81152,23.59072 -1.0155,24.56776 -0.54764,2.62296 -1.3612,3.97795 -3.30024,5.49651 -3.44281,2.69629 -8.24942,4.26463 -16.01067,5.22419 -5.04618,0.62388 -21.94175,0.92444 -27.57885,0.49064 z"
         id="path2302-7"
         sodipodi:nodetypes="ssssssssssscccssssssss" />
      <path
         style="fill:#f5f5f5;fill-opacity:1;stroke:none;stroke-width:0.355153;stroke-opacity:1"
         d="m 115.00483,70.74099 c -10.51472,-0.289927 -38.783779,-0.991839 -38.932947,-4.65815 4.049,-6.306756 31.657837,-5.410022 38.321237,-5.169423 11.74958,1.342104 26.44637,-4.989494 60.48497,5.397252 -8.20275,4.275071 -16.66853,2.182257 -30.71351,3.868198 -9.71041,0.639348 -19.44654,0.966818 -29.15974,0.562123 z"
         id="path2300-4-9"
         sodipodi:nodetypes="ccccccc" />
    </g>
    <path
       id="Auswahl #2-0"
       fill="none"
       stroke="#000000"
       stroke-width="0.220689"
       d="m 77.220431,61.098796 c -6.943799,2.302762 -8.767621,1.704426 -8.348586,8.095229 v 8.456097 l 0.218864,3.560462 v 3.33793 l 0.218863,3.337931 v 6.230807 l 0.218864,3.560453 v 7.788495 l 0.218864,3.56046 v 3.78299 l 0.218863,3.11541 v 5.56322 c 0.0066,3.86755 0.903907,9.35066 1.831888,13.1292 5.468564,15.8762 8.550875,12.80409 10.824993,28.79898 l 0.293277,4.22805 0.420219,5.56322 0.199165,2.67035 0.218864,5.11816 0.218863,3.56046 v 3.11541 l 0.218864,3.33793 0.941135,18.80868 c 0.08941,4.67113 -0.479746,15.3243 2.67698,17.41952 12.070805,6.76816 57.263979,8.0148 74.804149,0.49665 3.033,-1.87368 2.22801,-10.7811 2.9706,-16.32579 l 1.33757,-12.83308 0.21886,-3.78299 0.43773,-24.92323 0.21887,-3.56046 v -4.67311 l 0.2101,-2.67035 v -2.67034 c 0.20156,-6.06335 3.98411,-11.87838 6.46206,-18.0672 2.96906,-7.41541 6.15543,-21.18396 6.69821,-29.20168 l 0.43773,-6.23081 0.19917,-2.22529 0.21885,-6.008247 0.21887,-3.560461 v -4.895637 l 0.21886,-3.782986 V 69.194025 l -0.21886,-3.337932 c -0.249,-6.65585 -11.02061,-5.308392 -15.38688,-6.42008 -6.24166,-1.437256 -17.79284,-3.10747 -42.45403,-3.127399 -25.303555,-0.286395 -39.590525,2.535523 -47.181839,4.790182 z m 47.833539,-1.070364 c 13.47152,0.03632 35.8346,2.028768 40.70718,3.208872 4.34619,1.232257 13.74806,0.447501 9.11716,3.115445 -6.4529,2.14236 -18.88294,3.03748 -26.93716,4.222607 -8.47349,1.004475 -18.95752,0.771617 -25.22677,0.8133 -7.80068,-0.323663 -13.77746,0.499739 -22.15609,-0.799423 -3.141484,-0.489199 -15.866776,-1.308707 -22.972264,-2.707425 -2.101291,-0.418543 -3.945019,-1.370086 -1.956945,-3.03489 11.188902,-3.848636 32.814739,-4.80283 49.424889,-4.818486 z m 52.81194,14.506285 v 6.453338 c -4.69469,2.897272 -9.68169,3.143037 -15.76353,4.793157 -7.23344,2.042817 -12.34532,2.242998 -19.83483,2.783743 l -5.55237,0.497228 -4.48137,0.196441 -8.6759,-0.08287 -5.36113,0.03499 -3.91644,-0.0833 -1.8335,-0.293844 c -5.79332,-0.405006 -10.91711,-0.663222 -16.627249,-1.824823 -5.736419,-1.166049 -9.305396,-0.506576 -14.652233,-2.996674 -1.549555,-0.723221 -6.909279,-2.343106 -7.699377,-3.91416 -0.312975,-0.627536 0.0088,0.738795 0,0 v -5.785749 c -0.03034,-3.135351 2.607503,-2.279168 9.313415,-0.710071 10.550965,2.664396 24.864374,2.136053 38.056744,3.065822 10.90905,-0.01057 19.8684,-0.401763 26.11494,-1.005126 10.2076,-1.197276 14.44564,-0.717916 23.01038,-3.727843 6.15085,-1.409195 8.02569,-1.793291 7.90245,2.599739 z m -0.89953,11.019633 c 1.12934,0.151314 0.84262,0.990254 0.7113,1.887043 v 5.563222 l -0.24074,2.225286 v 2.225274 l -0.22762,3.782975 -0.40052,4.89564 -0.29328,4.67311 -0.39614,3.78298 c -0.42898,6.45334 -2.95311,14.85159 -4.80469,21.03344 -4.76176,12.43895 -7.77803,13.72235 -7.89377,25.56786 l -0.21887,3.78299 v 6.45333 l -0.21887,3.78299 v 5.56322 l -0.21886,3.78299 v 5.3407 l -0.21886,3.78298 -1.80636,21.03691 -0.68766,5.59883 c -0.47969,4.61006 -4.64969,4.84006 -10.6378,6.36216 -7.33634,1.15786 -13.7612,1.46591 -20.79204,2.01033 -8.20876,-0.68341 -18.53368,-0.18286 -25.55197,-1.75204 -6.307649,-1.28177 -12.373818,-0.76645 -13.441729,-7.10112 l -1.058333,-17.47644 0.218863,-4.67311 -0.218863,-3.33793 v -7.34345 l -0.218864,-3.33793 v -2.89288 l -0.218864,-2.89287 v -0.89012 l -0.218863,-3.33793 -0.418029,-6.00828 C 89.061599,145.566 74.948894,143.10025 74.562298,121.93333 v -2.22528 l -0.218863,-3.78299 -0.218864,-14.24185 -0.218863,-3.337918 v -5.785739 l -0.218864,-3.337931 v -1.335176 c 0.0022,-0.785524 -0.115998,-2.258667 1.098695,-2.038363 0.468368,0.08456 6.283387,1.429586 8.389959,2.538974 5.32185,1.692822 12.471837,1.805677 16.001527,2.389419 6.077845,1.036988 12.505535,1.836485 18.614015,1.845385 l 6.86979,-0.02608 8.11495,-0.165743 c 2.70968,-0.222259 10.92242,-0.771183 13.57383,-1.016259 6.46561,-0.59353 9.31954,-1.003199 16.79835,-2.441706 5.06132,-0.973518 7.67325,-0.943703 13.81842,-3.417723 z"
       style="fill:#1a1a1a;stroke:#1a1a1a;stroke-width:0;stroke-miterlimit:4;stroke-dasharray:none;stroke-opacity:1"
       sodipodi:nodetypes="cccccccccccccccccccccccccccccccccscccccccccccccccccccccccccccccccccccccccccccccccccccccccccccccccccccccccccccccccccccccccccccsc" />
    <path
       style="opacity:0.97;fill:#f6f2e0;fill-opacity:1;stroke:none;stroke-width:0.119927"
       d="m 113.09742,223.67721 c -9.66789,-0.0959 -17.998577,-0.43937 -21.523421,-0.88748 -2.741488,-0.34852 -2.847767,-0.41533 -2.854403,-1.79434 -0.01213,-2.51889 1.496382,-4.92963 0.169408,-6.27477 -4.999617,-17.87647 7.029075,-8.58535 18.826976,-8.41377 5.99063,0.0935 23.05648,0.0765 29.84731,0.0103 23.42621,-3.18299 26.21632,-4.18278 23.41624,6.94221 -0.32219,2.82058 0.75906,6.93765 -0.34133,8.95312 -0.55524,0.34268 -1.3801,0.5197 -3.34606,0.71809 -3.49061,0.35226 -8.36395,0.55716 -16.23296,0.68252 -5.11624,0.0815 -22.2464,0.12077 -27.96176,0.0641 z"
       id="path2302"
       sodipodi:nodetypes="ssscccccssss" />
    <path
       style="fill:#facd00;fill-opacity:1;stroke:none;stroke-width:0.134166"
       d="m 113.01451,228.37756 c -7.69766,-0.42986 -14.696547,0.43148 -21.795586,-2.8918 -2.523457,-1.28458 -2.524337,-4.8053 -2.850161,-7.26401 -0.437765,-3.30344 1.073088,-3.28919 3.730661,-2.93112 6.272164,0.21858 9.854076,3.00861 17.521496,3.09943 4.91595,0.0582 15.95101,-0.26951 22.14748,-0.26816 9.88828,0.002 12.61082,-2.68024 21.49608,-2.85645 6.50322,-0.17192 9.01428,-2.10338 7.93473,3.5577 -0.4621,4.22603 -0.68664,5.44101 -3.0119,6.61878 -4.52485,2.29189 -12.99665,4.24925 -31.64694,4.23499 -4.43335,0.0205 -9.23665,-1.25514 -13.52586,-1.29934 z"
       id="path157-1"
       sodipodi:nodetypes="ccscssccsccc" />
    <path
       style="mix-blend-mode:normal;fill:#f6f2e0;fill-opacity:1;fill-rule:nonzero;stroke:#1a1a1a;stroke-width:1.675;stroke-linejoin:bevel;stroke-miterlimit:4;stroke-dasharray:none;stroke-dashoffset:0;stroke-opacity:1;paint-order:fill markers stroke"
       d="m 117.98716,209.72624 c -6.99276,-0.0641 -11.57139,-0.72264 -19.183768,-1.10568 -4.624134,-0.46447 -13.637319,-2.32162 -9.54931,-5.28112 2.102898,-1.57808 4.872607,-1.14005 6.188531,-1.8686 2.5984,-1.51708 3.797406,-2.02265 5.797997,-1.74039 1.77617,0.2506 3.31945,-0.66727 5.3288,-0.88372 2.0623,-0.22218 3.57025,-0.5001 5.55777,-0.85879 2.14286,-0.38671 4.5283,0.76305 7.07442,-0.14366 3.24798,-1.15664 6.27871,-1.44274 9.04515,-0.60228 2.49671,0.75851 5.98884,0.47307 8.42502,1.23082 3.05263,0.94949 5.4115,0.26125 7.56414,-0.0606 3.55174,-0.53102 5.46308,2.82642 9.29501,2.61115 1.28973,-0.0726 4.07427,0.0936 5.22511,0.5294 11.22385,6.4714 -13.23352,7.38109 -14.33806,7.48946 -6.19875,0.61759 -18.76966,0.69752 -26.43081,0.68398 z"
       id="path155"
       sodipodi:nodetypes="ccccssssssssccc" />
    <path
       style="fill:#000000;fill-opacity:1;stroke:#000000;stroke-width:0.136416px;stroke-linecap:butt;stroke-linejoin:miter;stroke-opacity:1"
       d="m 133.28359,203.72216 c -1.79701,-1.45015 -3.0927,0.44352 -4.68146,0.65167 -1.52133,0.19931 -2.12899,-0.92511 -3.69025,-0.61306 -0.3547,0.0709 -0.71911,0.18196 -1.02969,0.35727 -0.42,0.23709 -1.79765,1.71836 -1.12149,2.01025 0.21904,0.0946 2.09343,-1.11401 2.65819,-1.16873 0.86549,-0.0839 1.20535,0.80936 2.07979,0.80872 1.52646,-8.2e-4 1.68139,-0.53932 2.82693,-1.00681 0.6351,-0.25918 0.83588,-0.12979 1.36716,-0.0335 0.3123,0.0566 0.49208,-0.0202 0.80522,-0.0978 0.67009,-0.1662 0.71596,-0.38134 0.7856,-0.90806 z"
       id="path2319-8"
       inkscape:transform-center-x="-2.8557279"
       inkscape:transform-center-y="-1.2082798" />
    <path
       style="fill:#000000;fill-opacity:1;stroke:#000000;stroke-width:0.152854px;stroke-linecap:butt;stroke-linejoin:miter;stroke-opacity:1"
       d="m 112.73286,200.40991 c -2.5273,-1.16098 -4.39627,0.99819 -6.43534,1.39186 -1.95251,0.37696 -2.45821,-0.81518 -4.44789,-0.32589 -0.45203,0.11117 -0.91142,0.26181 -1.29238,0.46705 -0.51518,0.27757 -2.08701,2.70057 -1.169325,2.89559 0.297274,0.0632 2.550905,-2.45402 3.278275,-2.5756 1.11467,-0.18631 1.67377,0.49286 2.81099,0.38475 1.98517,-0.18874 2.11613,-0.59041 3.54473,-1.17673 0.79204,-0.32507 1.07014,-0.48689 1.77375,-0.46038 0.41362,0.0156 0.7552,0.14819 1.15229,0.0357 0.84973,-0.24075 0.76335,-0.12584 0.7849,-0.63633 z"
       id="path2319-9"
       sodipodi:nodetypes="csscsssssscc" />
    <path
       style="fill:#000000;fill-opacity:1;stroke:#000000;stroke-width:0.160434px;stroke-linecap:butt;stroke-linejoin:miter;stroke-opacity:1"
       d="m 144.65545,202.20741 c -0.73312,0 -0.46651,1.16965 0,1.25499 0.66034,0.12079 0.99478,-0.18179 1.12997,-0.73823 -0.10701,-0.49237 -0.70583,-0.51676 -1.12997,-0.51676 z"
       id="path2357-9"
       sodipodi:nodetypes="cscc" />
    <path
       style="fill:#ffffff;fill-opacity:1;stroke:#ffffff;stroke-width:0.6;stroke-linecap:butt;stroke-linejoin:miter;stroke-miterlimit:4;stroke-dasharray:none;stroke-opacity:1"
       d="m 157.66226,209.36979 c -0.17061,0.20814 -0.41719,1.06057 -0.34943,1.34992 0.1162,0.49615 0.64401,0.84318 1.0483,0.78153 0.18274,-0.0279 0.3709,-0.0885 0.52414,-0.21314 0.24423,-0.19865 0.50438,-1.44507 0.23295,-1.77621 -0.51885,-0.54467 -0.84271,-0.42934 -1.45596,-0.1421 z"
       id="path2367-6"
       sodipodi:nodetypes="cssscc" />
    <path
       style="fill:#ffffff;fill-opacity:1;stroke:#ffffff;stroke-width:1.2;stroke-linecap:butt;stroke-linejoin:miter;stroke-miterlimit:4;stroke-dasharray:none;stroke-opacity:1"
       d="m 152.10375,217.31986 c -0.19412,0.0194 -0.41622,-0.044 -0.58237,0.0582 -0.12592,0.0775 -0.15041,0.26183 -0.17472,0.40766 -0.0163,0.0976 0.0235,0.19851 0.0582,0.29119 0.42047,0.35483 0.96872,0.52282 1.223,0 0.15739,-0.53316 -0.14323,-0.75036 -0.52415,-0.75709 z"
       id="path2369-92"
       sodipodi:nodetypes="cssccc" />
    <path
       style="fill:#ffffff;fill-opacity:1;stroke:#ffffff;stroke-width:0.731796;stroke-linecap:butt;stroke-linejoin:miter;stroke-miterlimit:4;stroke-dasharray:none;stroke-opacity:1"
       d="m 155.03326,220.35379 c -0.95163,1.25407 0.42186,1.86727 0.91551,1.45837 0.12728,-0.10543 0.12348,-0.92896 0.0704,-1.09378 -0.21722,-0.24415 -0.74527,-0.65038 -0.98593,-0.36459 z"
       id="path2359-3"
       sodipodi:nodetypes="cscc" />
  </g>
</svg>
