<?xml version="1.0" encoding="UTF-8" standalone="no"?>
<svg
   xmlns:dc="http://purl.org/dc/elements/1.1/"
   xmlns:cc="http://creativecommons.org/ns#"
   xmlns:rdf="http://www.w3.org/1999/02/22-rdf-syntax-ns#"
   xmlns:svg="http://www.w3.org/2000/svg"
   xmlns="http://www.w3.org/2000/svg"
   xmlns:sodipodi="http://sodipodi.sourceforge.net/DTD/sodipodi-0.dtd"
   xmlns:inkscape="http://www.inkscape.org/namespaces/inkscape"
   width="113.64676mm"
   height="187.80124mm"
   viewBox="0 0 113.64676 187.80123"
   version="1.1"
   id="svg8"
   sodipodi:docname="beer_0.svg"
   inkscape:version="1.0.1 (c497b03c, 2020-09-10)">
  <defs
     id="defs2" />
  <sodipodi:namedview
     id="base"
     pagecolor="#ffffff"
     bordercolor="#666666"
     borderopacity="1.0"
     inkscape:pageopacity="0.0"
     inkscape:pageshadow="2"
     inkscape:zoom="0.39908806"
     inkscape:cx="-46.706788"
     inkscape:cy="614.16844"
     inkscape:document-units="mm"
     inkscape:current-layer="layer1"
     inkscape:document-rotation="0"
     showgrid="false"
     inkscape:window-width="1792"
     inkscape:window-height="1023"
     inkscape:window-x="0"
     inkscape:window-y="23"
     inkscape:window-maximized="0"
     inkscape:snap-global="false"
     fit-margin-top="0"
     fit-margin-left="0"
     fit-margin-right="0"
     fit-margin-bottom="0" />
  <metadata
     id="metadata5">
    <rdf:RDF>
      <cc:Work
         rdf:about="">
        <dc:format>image/svg+xml</dc:format>
        <dc:type
           rdf:resource="http://purl.org/dc/dcmitype/StillImage" />
        <dc:title></dc:title>
      </cc:Work>
    </rdf:RDF>
  </metadata>
  <g
     inkscape:label="Ebene 1"
     inkscape:groupmode="layer"
     id="layer1"
     transform="translate(-68.815285,-45.062546)">
    <g
       id="g5032"
       transform="translate(156.7569,1.0055189)">
      <path
         id="Auswahl #2-0-3"
         fill="none"
         stroke="#000000"
         stroke-width="0.220689"
         d="m -79.536464,60.093286 c -6.943805,2.302762 -8.767617,1.704425 -8.348588,8.095229 v 8.456096 l 0.21887,3.560463 v 3.337931 l 0.21886,3.33793 v 6.230807 l 0.21886,3.56045 v 7.788488 l 0.21887,3.56047 v 3.78298 l 0.21886,3.11541 v 5.56322 c 0.007,3.86755 0.90391,9.35066 1.83189,13.12921 5.468562,15.87619 8.550873,12.80409 10.824991,28.79898 l 0.293277,4.22805 0.420219,5.56321 0.199165,2.67035 0.218864,5.11816 0.218863,3.56047 v 3.1154 l 0.218864,3.33793 0.941135,18.80869 c 0.08941,4.67112 -0.479746,15.32429 2.67698,17.41952 12.070804,6.76815 57.263979,8.01479 74.8041488,0.49665 3.0330004,-1.87369 2.22801,-10.78111 2.9706004,-16.3258 l 1.3375698,-12.83308 0.21886,-3.78298 0.43773,-24.92324 0.21887,-3.56045 v -4.67311 l 0.2101,-2.67035 v -2.67035 c 0.20156,-6.06335 3.98411,-11.87837 6.46206,-18.0672 2.96906,-7.41541 6.15543,-21.18396 6.69821,-29.20167 l 0.43773,-6.23082 0.19917,-2.225288 0.21885,-6.00824 0.21887,-3.560459 v -4.895638 l 0.21886,-3.782987 V 68.188515 l -0.21886,-3.337932 c -0.249,-6.65585 -11.02061,-5.308392 -15.38688,-6.42008 -6.2416602,-1.437256 -17.7928402,-3.107471 -42.45403,-3.127399 -25.303555,-0.286396 -39.590525,2.535523 -47.181839,4.790182 z m 47.833539,-1.070364 c 13.47152,0.03632 35.8345998,2.028767 40.7071802,3.208872 4.3461898,1.232257 13.7480598,0.447501 9.1171598,3.115445 -6.4529,2.14236 -18.8829402,3.03748 -26.9371602,4.222607 -8.4734898,1.004474 -18.9575198,0.771617 -25.2267698,0.8133 -7.80068,-0.323663 -13.77746,0.499739 -22.15609,-0.799423 -3.141484,-0.489199 -15.866776,-1.308707 -22.972264,-2.707425 -2.101293,-0.418543 -3.945023,-1.370086 -1.956945,-3.03489 11.188902,-3.848636 32.814739,-4.80283 49.424889,-4.818486 z m 52.81194,14.506286 v 6.453336 c -4.69469,2.897272 -9.68169,3.143038 -15.7635302,4.793157 -7.23344,2.042819 -12.34532,2.243 -19.8348298,2.783745 l -5.55237,0.497226 -4.48137,0.196442 -8.6759,-0.08287 -5.36113,0.03499 -3.91644,-0.0833 -1.8335,-0.293844 c -5.79332,-0.405005 -10.91711,-0.663223 -16.627249,-1.824823 -5.736419,-1.16605 -9.305396,-0.506577 -14.652233,-2.996673 -1.549556,-0.723223 -6.909275,-2.343108 -7.699375,-3.914162 -0.31298,-0.627536 0.009,0.738796 0,0 v -5.785749 c -0.0303,-3.13535 2.607501,-2.279166 9.313413,-0.71007 10.550965,2.664396 24.864374,2.136052 38.056744,3.065822 10.90905,-0.01058 19.8684,-0.401762 26.1149398,-1.005126 10.2076,-1.197276 14.44564,-0.717917 23.0103802,-3.727844 6.15085,-1.409194 8.02569,-1.79329 7.90245,2.59974 z m -0.89953,11.019631 c 1.12934,0.151315 0.84262,0.990254 0.7113,1.887043 v 5.56322 l -0.24074,2.22529 v 2.22527 l -0.22762,3.782968 -0.40052,4.89564 -0.29328,4.67311 -0.39614,3.78298 c -0.42898,6.45335 -2.95311,14.85159 -4.80469,21.03345 -4.7617598,12.43894 -7.7780302,13.72235 -7.8937702,25.56785 l -0.21887,3.78299 v 6.45333 l -0.21887,3.783 v 5.56321 l -0.21886,3.783 v 5.3407 l -0.21886,3.78298 -1.80636,21.03691 -0.68766,5.59882 c -0.47969,4.61007 -4.64969,4.84006 -10.6378,6.36217 -7.3363398,1.15785 -13.7611998,1.46591 -20.7920398,2.01033 -8.20876,-0.68342 -18.53368,-0.18287 -25.55197,-1.75204 -6.307649,-1.28177 -12.373818,-0.76645 -13.441729,-7.10112 l -1.058333,-17.47644 0.218863,-4.67312 -0.218863,-3.33793 V 185.999 l -0.218864,-3.33793 v -2.89288 l -0.218864,-2.89287 v -0.89011 l -0.218863,-3.33793 -0.418029,-6.00828 c 1.566651,-22.07852 -12.546055,-24.54427 -12.932645,-45.71119 v -2.22528 l -0.21887,-3.78299 -0.21886,-14.24185 -0.21886,-3.337908 v -5.78574 l -0.21887,-3.33793 v -1.335177 c 0.002,-0.785524 -0.116,-2.258666 1.0987,-2.038363 0.46836,0.08456 6.283383,1.429586 8.389955,2.538976 5.32185,1.69282 12.471836,1.805675 16.001526,2.389417 6.077846,1.03699 12.505536,1.836487 18.614016,1.845387 l 6.86979,-0.0261 8.11495,-0.16575 c 2.70968,-0.22225 10.92242,-0.771176 13.57383,-1.016252 6.4656098,-0.593532 9.3195398,-1.003199 16.7983498,-2.441707 5.0613202,-0.973519 7.6732502,-0.943703 13.8184202,-3.417724 z"
         style="fill:#1a1a1a;stroke:#1a1a1a;stroke-width:0;stroke-miterlimit:4;stroke-dasharray:none;stroke-opacity:1"
         sodipodi:nodetypes="cccccccccccccccccccccccccccccccccscccccccccccccccccccccccccccccccccccccccccccccccccccccccccccccccccccccccccccccccccccccccccccscc" />
      <path
         style="fill:#f5f5f5;fill-opacity:1;stroke:none;stroke-width:0.355153;stroke-opacity:1"
         d="m -41.450565,87.423143 c -14.53226,-0.605483 -24.906864,-1.46808 -35.582598,-5.296998 -5.346569,-2.750947 -6.206129,-1.670722 -6.163089,-7.096194 0.003,-2.000533 -0.18508,-2.892779 -0.0124,-3.198217 0.26422,-0.467416 2.301062,-0.05823 4.858955,0.774845 10.773738,3.508875 19.803375,3.18497 36.756212,3.817015 23.31876,0.869386 45.3303198,0.03081 57.82812,-5.642904 3.78823,-1.719769 4.89231,-1.093731 4.7741,4.200006 l -0.0815,3.649755 -2.97333,1.549628 c -8.2027498,4.275071 -16.1997402,4.995 -30.24472,6.680941 -9.71041,0.639344 -19.44654,0.966822 -29.15974,0.562123 z"
         id="path2300-4"
         sodipodi:nodetypes="cccssssscscc" />
      <path
         style="fill:#f5f5f5;fill-opacity:1;stroke:none;stroke-width:0.329514"
         d="m -42.921107,227.78803 c -9.535499,-0.73383 -17.752111,-3.36308 -21.228692,-6.79302 -2.703948,-2.66767 -2.808773,-3.17905 -2.815312,-13.73445 -0.01194,-19.28037 -0.835964,-37.7329 -2.144772,-48.02904 -1.11499,-8.77147 -1.959114,-11.52866 -7.83758,-21.74565 -4.524371,-7.86353 -4.461387,-19.09301 -5.165748,-23.84552 -0.643269,-4.34023 0.08561,-29.260719 0.618775,-28.161177 0.137663,0.283901 7.13425,2.866686 9.099203,3.206309 10.471673,1.809926 13.472713,2.193604 26.744726,3.800494 5.908595,0.715374 24.147119,-0.117354 30.844947,-0.624146 15.35640188,-1.16202 20.1419792,-0.726215 28.61719,-5.05189 1.467062,-0.748779 5.817646,0.609751 5.817646,0.609751 0.153233,1.625893 0.642441,2.790395 0.491585,4.416528 -0.165127,2.19118 -0.269321,5.822033 -0.372834,7.921912 -0.507967,10.306129 -0.960155,18.743759 -4.890309,31.106899 -2.967135,9.33373 -7.3526997,15.87719 -8.0408258,19.9328 -0.6163329,3.63244 -1.02205,12.75539 -1.8327443,41.21113 -0.362872,12.73682 -0.811513,23.59072 -1.0155009,24.56776 -0.5476366,2.62296 -1.3612012,3.97795 -3.30023965,5.49651 -3.44281035,2.69629 -8.24941575,4.26463 -16.01066835,5.22419 -5.04618,0.62388 -21.941751,0.92444 -27.578846,0.49064 z"
         id="path2302-7"
         sodipodi:nodetypes="ssssssssssscccssssssss" />
      <g
         id="g3642"
         transform="translate(-20.157989,-23.908313)">
        <path
           style="fill:#000000;fill-opacity:1;stroke:#000000;stroke-width:0.294598px;stroke-linecap:butt;stroke-linejoin:miter;stroke-opacity:1"
           d="m 10.921766,238.85278 c -5.3275196,-0.0795 -10.77077961,-0.41821 -15.8751196,-0.76082 -1.39643,-0.082 -9.4622364,-0.17926 -10.0719554,1.31899 -0.29509,1.56799 -0.42336,1.38191 1.63426,1.53357 5.4708154,0.30928 11.0581554,-0.14349 16.5470854,-0.0239 3.44232,0.075 6.6391,0.536 9.9740696,1.13813 2.42281,0.43742 6.53747,2.04237 8.40972,-0.009 2.1512,-3.22085 -8.81929,-3.14097 -10.61806,-3.19685 z"
           id="path865"
           sodipodi:nodetypes="ccccsscc" />
        <path
           style="fill:#000000;fill-opacity:0.992933;stroke:none;stroke-width:0.0908344;stroke-linecap:butt;stroke-linejoin:miter;stroke-miterlimit:4;stroke-dasharray:none;stroke-opacity:1"
           d="m -21.82281,239.21101 c -0.29528,0.15616 -0.837459,0.52127 -1.027849,0.9125 -0.2056,0.42247 -0.19588,1.10475 -0.0292,1.37808 0.515629,1.05105 2.204779,0.46206 2.85658,-0.33818 0.41698,-0.57939 0.52394,-1.15066 0.3085,-1.57939 -0.25013,-0.39327 -0.43167,-0.57445 -0.95625,-0.56673 -0.21412,0.004 -0.897491,0.11595 -1.151791,0.19372 z"
           id="path1645-3-5"
           sodipodi:nodetypes="ssccccss" />
        <path
           style="fill:#000000;fill-opacity:1;stroke:#000000;stroke-width:0.564999;stroke-linecap:butt;stroke-linejoin:miter;stroke-miterlimit:4;stroke-dasharray:none;stroke-opacity:1"
           d="m -43.00279,242.90744 c -0.19412,0.0194 -0.41622,-0.044 -0.58237,0.0582 -0.12592,0.0775 -0.15041,0.26183 -0.17472,0.40766 -0.0163,0.0976 0.0235,0.19851 0.0582,0.29119 0.42047,0.35483 0.96872,0.52282 1.223,0 0.15739,-0.53316 -0.14323,-0.75035 -0.52415,-0.75709 z"
           id="path2369-9-1"
           sodipodi:nodetypes="cssccc"
           inkscape:transform-center-x="-48.803571"
           inkscape:transform-center-y="-32.189869" />
      </g>
      <path
         style="fill:#f5f5f5;fill-opacity:1;stroke:none;stroke-width:0.355153;stroke-opacity:1"
         d="m -41.752073,69.735471 c -10.514718,-0.289927 -38.783776,-0.991839 -38.932944,-4.65815 4.049,-6.306756 31.65784,-5.410022 38.321234,-5.169423 11.749582,1.342104 26.44637,-4.989494 60.48497,5.397252 -8.2027492,4.275071 -16.6685296,2.182257 -30.71351,3.868198 -9.71041,0.639348 -19.44654,0.966818 -29.15974,0.562123 z"
         id="path2300-4-9"
         sodipodi:nodetypes="ccccccc" />
    </g>
  </g>
</svg>
