<?xml version="1.0" encoding="UTF-8" standalone="no"?>
<svg
   xmlns:dc="http://purl.org/dc/elements/1.1/"
   xmlns:cc="http://creativecommons.org/ns#"
   xmlns:rdf="http://www.w3.org/1999/02/22-rdf-syntax-ns#"
   xmlns:svg="http://www.w3.org/2000/svg"
   xmlns="http://www.w3.org/2000/svg"
   xmlns:sodipodi="http://sodipodi.sourceforge.net/DTD/sodipodi-0.dtd"
   xmlns:inkscape="http://www.inkscape.org/namespaces/inkscape"
   width="21.54784mm"
   height="15.955873mm"
   viewBox="0 0 21.54784 15.955874"
   version="1.1"
   id="svg8"
   sodipodi:docname="burger.svg"
   inkscape:version="1.0.1 (c497b03c, 2020-09-10)">
  <defs
     id="defs2" />
  <sodipodi:namedview
     id="base"
     pagecolor="#ffffff"
     bordercolor="#666666"
     borderopacity="1.0"
     inkscape:pageopacity="0.0"
     inkscape:pageshadow="2"
     inkscape:zoom="2.257583"
     inkscape:cx="16.877795"
     inkscape:cy="-44.589611"
     inkscape:document-units="mm"
     inkscape:current-layer="layer1"
     inkscape:document-rotation="0"
     showgrid="false"
     inkscape:window-width="1792"
     inkscape:window-height="1023"
     inkscape:window-x="0"
     inkscape:window-y="23"
     inkscape:window-maximized="0"
     inkscape:snap-global="false"
     fit-margin-top="0"
     fit-margin-left="0"
     fit-margin-right="0"
     fit-margin-bottom="0" />
  <metadata
     id="metadata5">
    <rdf:RDF>
      <cc:Work
         rdf:about="">
        <dc:format>image/svg+xml</dc:format>
        <dc:type
           rdf:resource="http://purl.org/dc/dcmitype/StillImage" />
        <dc:title></dc:title>
      </cc:Work>
    </rdf:RDF>
  </metadata>
  <g
     inkscape:label="Ebene 1"
     inkscape:groupmode="layer"
     id="layer1"
     transform="translate(-81.722943,-202.66722)">
    <path
       id="Auswahl-3-5"
       fill="none"
       stroke="#000000"
       stroke-width="0.142579"
       d="m 101.75103,215.37741 -4.411783,0.37875 c -2.17898,0.39644 -4.359239,0.042 -6.556602,0.047 l -2.083386,0.16587 h -3.431475 c -0.99513,-0.0166 -3.810158,-0.99526 -3.524609,1.4896 0.128678,1.12299 1.143409,1.15284 1.808868,1.16446 h 6.985496 l 2.328493,-0.16588 c 1.564995,-0.0248 4.587189,0.31941 6.188949,-0.0422 0.742665,-0.16754 3.164139,0.24962 3.724209,-0.19813 0.5809,-0.46446 0.61649,-2.07142 0.0564,-2.62379 -0.33825,-0.33508 -0.69733,-0.27702 -1.0846,-0.21565 z"
       style="fill:#1a1a1a;stroke:none"
       sodipodi:nodetypes="cccccccccccccc" />
    <path
       id="Auswahl-3-5-4"
       fill="none"
       stroke="#000000"
       stroke-width="0.142579"
       d="M 83.22637,212.54459 87.641651,212.25 c 2.182891,-0.35485 4.359248,0.0411 6.556441,0.078 l 2.084899,-0.12613 3.431133,0.0654 c 0.994866,0.0356 3.799426,1.06781 3.539766,-1.42225 -0.11698,-1.12533 -1.1313,-1.17452 -1.79657,-1.19883 l -6.984798,-0.1332 -2.329986,0.12147 c -1.565098,-0.005 -4.583405,-0.40685 -6.188776,-0.0758 -0.744335,0.15337 -3.161232,-0.30993 -3.725898,0.1271 -0.585685,0.45334 -0.637988,2.05946 -0.08375,2.62245 0.334728,0.3415 0.694364,0.29029 1.082241,0.23631 z"
       style="fill:#1a1a1a;stroke:none"
       sodipodi:nodetypes="cccccccccccccc" />
    <path
       id="Auswahl-3-5-4-9"
       fill="none"
       stroke="#000000"
       stroke-width="0.142579"
       d="m 101.75929,202.72565 -4.405866,0.48882 c -2.1732,0.45076 -4.357925,0.15084 -6.554842,0.21069 l -2.080765,0.21785 -3.430892,0.0857 c -0.995193,0.008 -3.823073,-0.89997 -3.503712,1.57734 0.143956,1.11958 1.158918,1.12409 1.824426,1.1191 l 6.984304,-0.17438 2.325834,-0.22398 c 1.56439,-0.0639 4.590753,0.20485 6.187319,-0.1967 0.740259,-0.18606 3.167014,0.17059 3.720874,-0.29107 0.57448,-0.47889 0.58816,-2.08646 0.0207,-2.62475 -0.34276,-0.32658 -0.70097,-0.25957 -1.08735,-0.18854 z"
       style="fill:#1a1a1a;stroke:none"
       sodipodi:nodetypes="cccccccccccccc" />
  </g>
</svg>
