<?xml version="1.0" encoding="UTF-8" standalone="no"?>
<svg
   xmlns:dc="http://purl.org/dc/elements/1.1/"
   xmlns:cc="http://creativecommons.org/ns#"
   xmlns:rdf="http://www.w3.org/1999/02/22-rdf-syntax-ns#"
   xmlns:svg="http://www.w3.org/2000/svg"
   xmlns="http://www.w3.org/2000/svg"
   xmlns:sodipodi="http://sodipodi.sourceforge.net/DTD/sodipodi-0.dtd"
   xmlns:inkscape="http://www.inkscape.org/namespaces/inkscape"
   width="113.64676mm"
   height="187.80124mm"
   viewBox="0 0 113.64676 187.80123"
   version="1.1"
   id="svg8"
   sodipodi:docname="shot_2.svg"
   inkscape:version="1.0.1 (c497b03c, 2020-09-10)">
  <defs
     id="defs2" />
  <sodipodi:namedview
     id="base"
     pagecolor="#ffffff"
     bordercolor="#666666"
     borderopacity="1.0"
     inkscape:pageopacity="0.0"
     inkscape:pageshadow="2"
     inkscape:zoom="1.5963522"
     inkscape:cx="68.724696"
     inkscape:cy="496.66673"
     inkscape:document-units="mm"
     inkscape:current-layer="layer1"
     inkscape:document-rotation="0"
     showgrid="false"
     inkscape:window-width="1502"
     inkscape:window-height="1155"
     inkscape:window-x="331"
     inkscape:window-y="78"
     inkscape:window-maximized="0"
     inkscape:snap-global="false"
     fit-margin-top="0"
     fit-margin-left="0"
     fit-margin-right="0"
     fit-margin-bottom="0" />
  <metadata
     id="metadata5">
    <rdf:RDF>
      <cc:Work
         rdf:about="">
        <dc:format>image/svg+xml</dc:format>
        <dc:type
           rdf:resource="http://purl.org/dc/dcmitype/StillImage" />
        <dc:title />
      </cc:Work>
    </rdf:RDF>
  </metadata>
  <g
     inkscape:label="Ebene 1"
     inkscape:groupmode="layer"
     id="layer1"
     transform="translate(-68.815285,-45.062546)">
    <path
       style="fill:#f5f5f5;fill-opacity:1;stroke:none;stroke-width:0.111148"
       d="m 101.18862,227.62757 c -7.086903,-23.74453 -5.675848,-51.21299 -7.098102,-74.41568 4.650863,-6.94311 23.202702,-4.24609 30.652102,-4.24897 13.07063,0.0103 21.06667,0.40408 27.70637,1.3649 7.46081,1.14353 6.01358,0.58158 5.41036,7.54549 -2.00743,15.58584 -1.49396,59.01674 -6.92212,70.4952 -15.29641,4.12874 -35.70755,3.28791 -49.74861,-0.74094 z"
       id="path3676"
       sodipodi:nodetypes="ccccccc" />
    <path
       style="fill:#00f9be;fill-opacity:1;stroke:none;stroke-width:0.138806"
       d="m 104.02396,197.59827 c -2.00827,-11.33341 -1.93546,-2.60247 -1.86206,-12.70347 16.57162,-3.78917 31.4567,-3.3789 47.43756,0.3596 -0.98766,11.35098 -0.35126,0.37938 -1.23214,10.73338 -1.22578,15.7669 2.65671,14.9768 -22.00461,17.17374 -27.905236,-0.29338 -21.07286,-6.2116 -22.33875,-15.56325 z"
       id="path3611"
       sodipodi:nodetypes="cccccc" />
    <path
       id="Auswahl-3"
       fill="none"
       stroke="#000000"
       stroke-width="0.165878"
       d="m 116.01784,145.70445 c -5.89874,0.44946 -12.36586,0.56676 -17.749,1.60239 -1.6704,0.34005 -6.46997,1.0583 -7.28941,2.68722 -0.25545,0.50925 -0.20071,2.53012 -0.19408,3.10903 0.493954,5.96857 0.95424,11.70644 1.46471,17.91486 1.483453,18.0738 2.795227,31.84519 4.49531,49.26586 0.17749,1.93248 0.88105,6.94271 2.02893,8.47211 6.85304,4.25255 21.65159,4.13733 28.30516,4.09197 7.87068,-0.0751 19.37665,0.44538 24.30394,-3.49813 1.6621,-1.5294 2.74741,-5.48962 2.99623,-7.57305 1.30274,-12.70741 2.43007,-25.43157 3.59625,-38.152 0.97994,-11.03652 1.61813,-20.59782 2.51637,-30.52162 0.006,-0.57891 0.0614,-2.04053 -0.19408,-2.54978 -0.47772,-0.95048 -3.34647,-2.08533 -4.30359,-2.43532 -1.99055,-0.72323 -4.84698,-1.21258 -6.9669,-1.44978 -5.56886,-0.6426 -9.93463,-0.66789 -15.09494,-0.96376 h -7.29865 z m 4.6446,3.77255 c 5.07914,-0.11963 10.7517,0.14457 15.42672,0.14265 3.9683,0.20521 7.165,0.45171 11.27974,0.75973 3.39198,0.40742 5.18585,0.58221 8.49629,1.81304 0.32232,3.15417 -0.21866,6.11076 -0.50592,9.37047 -0.64709,8.02057 -1.3397,16.0369 -2.04695,24.05236 -1.14609,13.11627 -2.14456,23.18615 -3.4088,35.99558 -0.13602,1.10475 -0.1327,3.30761 -0.91399,4.09221 -1.75566,2.03706 -5.74865,2.4386 -8.50453,2.79154 -5.14487,0.402 -11.83734,0.58519 -17.50024,0.58078 -5.58939,-0.32482 -11.65616,-0.40215 -16.58787,-1.59741 -1.21921,-0.30356 -3.40549,-0.92561 -4.20502,-1.92088 -0.64527,-0.80285 -0.69835,-3.0422 -0.84101,-4.11212 -1.26065,-12.09815 -2.326378,-24.21523 -3.44197,-36.32734 -0.931371,-11.42109 -2.008805,-21.31175 -2.62752,-31.51688 -0.0382,-0.38982 -0.18744,-0.93223 0,-1.28224 0.26043,-0.43626 1.19101,-0.67015 1.66044,-0.80285 7.88062,-1.63699 16.4095,-1.84301 23.72063,-2.03864 z m -21.14948,3.09416 c -1.30215,0.69504 -2.04532,2.57722 -0.5806,3.03007 l 8.12804,1.12299 c 8.37024,0.81115 16.79854,0.70499 25.21356,0.69171 6.23087,-0.19116 11.04532,-0.66222 17.41723,-1.25736 1.13462,-0.16422 4.13204,-0.24052 3.73725,-2.05689 -0.36825,-1.6903 -2.90453,-1.99764 -4.06901,-1.83011 -4.03914,0.58224 -8.53444,0.99361 -12.60675,1.04006 -7.44004,0.38648 -15.69945,0.57176 -23.04813,0.1172 -4.87615,-0.32228 -9.73545,-1.35203 -14.19159,-0.85767 z m 52.1671,4.88459 c -1.30546,0.75973 -1.66642,3.55927 -1.66642,3.55927 -0.89409,10.45127 -0.99195,14.49692 -1.95744,23.94827 -0.539,8.27349 -1.55749,23.31291 -2.91506,24.17019 -0.57394,0.6519 -2.84481,1.20759 -3.74388,1.42158 -6.7769,1.48459 -13.9461,1.27942 -20.56894,1.26896 -3.31047,-0.47567 -12.02576,-0.59157 -14.56082,-2.59267 -1.24628,-2.07288 -1.08255,-4.91007 -1.3884,-7.36002 l -1.60736,-14.16817 c -0.33749,-4.71044 -0.97117,-3.6679 -3.04083,-3.1685 l 1.80669,16.67315 0.80617,6.63514 c 0.14597,1.05498 0.15759,2.10997 0.95546,2.93273 1.05001,1.08318 3.15335,1.66209 4.58821,2.06684 10.0691,2.12792 22.48593,2.11788 32.01455,0.59882 2.09174,-0.36328 5.81737,-1.17277 7.23397,-2.80667 0.67513,-0.77962 0.66683,-1.67039 0.79788,-2.62585 0.44171,-3.76279 0.92061,-7.52096 1.39503,-11.27972 l 1.47466,-13.10438 1.67703,-17.08546 0.22228,-3.1517 0.30356,-4.14696 c -0.0166,-1.25072 -0.44788,-2.0884 -1.82634,-1.78485 z m -6.96522,64.39396 c -7.47058,1.60518 -15.9575,1.91073 -22.22773,1.91755 -1.34693,-0.0166 -5.15716,-0.99526 -4.77067,1.48959 0.17417,1.123 1.54765,1.15285 2.44836,1.16447 7.51288,0.0298 13.64836,0.10107 21.06659,-1.11969 1.00523,-0.16753 4.03417,-0.66184 4.79223,-1.10971 0.78627,-0.46446 0.91731,-1.57419 0.15925,-2.12656 -0.45783,-0.33508 -0.94385,-0.27702 -1.46803,-0.21565 z"
       style="fill:#1a1a1a;stroke:none"
       sodipodi:nodetypes="ccccccccccccccccccccccccccccccccccccccccccccccccccccccccccccccccccccccccccccc" />
    <path
       id="Auswahl-3-6"
       fill="none"
       stroke="#000000"
       stroke-width="0.155174"
       d="m 105.52906,184.66691 c 4.47579,-0.76423 9.68208,-1.15131 13.3397,-1.15567 7.89368,-0.30808 15.91497,0.10419 23.33029,1.02118 9.05313,1.84752 13.26966,-0.15387 2.65404,-2.11935 -4.84533,-0.80307 -10.24542,-1.05451 -14.59728,-1.28031 -8.93489,0.11504 -19.73651,-0.57175 -27.71872,1.90144 -5.737997,1.77785 0.5407,2.50886 2.99197,1.63271 z m -0.64937,4.34805 c 11.65198,1.45848 29.8929,1.41908 40.78456,-0.14951 1.0782,-0.6692 0.77797,-2.13531 -0.64528,-2.18757 -12.62358,1.18018 -26.36186,1.40561 -37.8203,0.24968 -2.26615,-0.56468 -4.20909,1.295 -2.31898,2.0874 z"
       style="fill:#1a1a1a;stroke:none"
       sodipodi:nodetypes="cccccscccccc" />
    <path
       id="Auswahl-3-1"
       fill="none"
       stroke="#000000"
       stroke-width="0.105226"
       d="m 106.41239,191.79401 c -0.31018,0.10851 -0.51412,0.1798 -0.64524,0.44608 -0.12055,0.21118 -0.0491,0.50749 -0.0455,0.73948 l 0.14728,1.77862 0.20656,2.15506 0.70505,6.84344 0.33204,2.34812 c 0.17883,0.43323 0.66831,0.71144 1.24286,0.57869 0.50305,-0.11638 0.6224,-0.44397 0.64894,-0.81623 l -0.2313,-2.52907 -0.92205,-8.90615 c -0.0636,-0.55637 -0.0379,-2.11903 -0.54127,-2.48197 -0.28715,-0.20723 -0.55588,-0.18981 -0.8973,-0.15607 z"
       style="fill:#000000;fill-opacity:1;stroke:none"
       sodipodi:nodetypes="ccccccccccccc" />
    <path
       id="Auswahl-3-1-2"
       fill="none"
       stroke="#000000"
       stroke-width="0.0841272"
       d="m 143.89767,192.06339 c -0.34259,-0.0365 -0.56779,-0.0606 -0.74738,0.0478 -0.35819,2.89161 -0.73378,5.93579 -0.77704,8.21409 0.50015,0.58763 1.46864,1.0653 2.02228,0.46128 0.23661,-1.97904 0.75914,-7.67997 0.4188,-8.35341 -0.26854,-0.20672 -0.55323,-0.28142 -0.91676,-0.36978 z"
       style="fill:#ffffff;fill-opacity:1;stroke:none"
       sodipodi:nodetypes="ccccccc" />
    <path
       id="Auswahl-3-1-6"
       fill="none"
       stroke="#000000"
       stroke-width="0.108857"
       d="m 141.93676,204.93291 c 0.21075,0.40346 0.77426,0.65803 1.42894,0.52681 0.5732,-0.11503 0.70478,-0.42318 0.72963,-0.77205 0.1006,-2.00576 -2.67769,-2.07434 -2.15857,0.24524 z"
       style="fill:#ffffff;fill-opacity:1;stroke:none"
       sodipodi:nodetypes="cccc" />
    <path
       id="Auswahl-3-1-6-6"
       fill="none"
       stroke="#000000"
       stroke-width="0.0546629"
       d="m 140.72116,202.37635 c 0.11088,0.19337 0.40737,0.31537 0.75183,0.25248 0.30158,-0.0551 0.37081,-0.20281 0.38389,-0.37001 0.0529,-0.96127 -1.40885,-0.99414 -1.13572,0.11753 z"
       style="fill:#ffffff;fill-opacity:1;stroke:none"
       sodipodi:nodetypes="cccc" />
  </g>
</svg>
