<?xml version="1.0" encoding="UTF-8" standalone="no"?>
<svg
   xmlns:dc="http://purl.org/dc/elements/1.1/"
   xmlns:cc="http://creativecommons.org/ns#"
   xmlns:rdf="http://www.w3.org/1999/02/22-rdf-syntax-ns#"
   xmlns:svg="http://www.w3.org/2000/svg"
   xmlns="http://www.w3.org/2000/svg"
   xmlns:sodipodi="http://sodipodi.sourceforge.net/DTD/sodipodi-0.dtd"
   xmlns:inkscape="http://www.inkscape.org/namespaces/inkscape"
   width="113.64676mm"
   height="187.80124mm"
   viewBox="0 0 113.64676 187.80123"
   version="1.1"
   id="svg8"
   sodipodi:docname="shot_3.svg"
   inkscape:version="1.0.1 (c497b03c, 2020-09-10)">
  <defs
     id="defs2" />
  <sodipodi:namedview
     id="base"
     pagecolor="#ffffff"
     bordercolor="#666666"
     borderopacity="1.0"
     inkscape:pageopacity="0.0"
     inkscape:pageshadow="2"
     inkscape:zoom="0.79817612"
     inkscape:cx="-25.569982"
     inkscape:cy="373.08931"
     inkscape:document-units="mm"
     inkscape:current-layer="layer1"
     inkscape:document-rotation="0"
     showgrid="false"
     inkscape:window-width="1920"
     inkscape:window-height="1155"
     inkscape:window-x="0"
     inkscape:window-y="23"
     inkscape:window-maximized="1"
     inkscape:snap-global="false"
     fit-margin-top="0"
     fit-margin-left="0"
     fit-margin-right="0"
     fit-margin-bottom="0" />
  <metadata
     id="metadata5">
    <rdf:RDF>
      <cc:Work
         rdf:about="">
        <dc:format>image/svg+xml</dc:format>
        <dc:type
           rdf:resource="http://purl.org/dc/dcmitype/StillImage" />
        <dc:title />
      </cc:Work>
    </rdf:RDF>
  </metadata>
  <g
     inkscape:label="Ebene 1"
     inkscape:groupmode="layer"
     id="layer1"
     transform="translate(-68.815285,-45.062546)">
    <path
       style="fill:#f5f5f5;fill-opacity:1;stroke:none;stroke-width:0.111148"
       d="m 101.18862,227.62757 c -7.086903,-23.74453 -5.675848,-51.21299 -7.098102,-74.41568 4.650863,-6.94311 23.202702,-4.24609 30.652102,-4.24897 13.07063,0.0103 21.06667,0.40408 27.70637,1.3649 7.46081,1.14353 6.01358,0.58158 5.41036,7.54549 -2.00743,15.58584 -1.49396,59.01674 -6.92212,70.4952 -15.29641,4.12874 -35.70755,3.28791 -49.74861,-0.74094 z"
       id="path3676"
       sodipodi:nodetypes="ccccccc" />
    <path
       style="fill:#00f9be;fill-opacity:1;stroke:none;stroke-width:0.138806"
       d="m 104.02396,197.59827 c -2.00827,-11.33341 -3.92437,-24.48047 -3.85097,-34.58147 16.57162,-3.78917 35.26877,-4.37336 51.24963,-0.63486 -0.98766,11.35098 -2.17442,23.25184 -3.0553,33.60584 -1.22578,15.7669 2.65671,14.9768 -22.00461,17.17374 -27.905236,-0.29338 -21.07286,-6.2116 -22.33875,-15.56325 z"
       id="path3611"
       sodipodi:nodetypes="cccccc" />
    <path
       id="Auswahl-3"
       fill="none"
       stroke="#000000"
       stroke-width="0.165878"
       d="m 116.01784,145.70445 c -5.89874,0.44946 -12.36586,0.56676 -17.749,1.60239 -1.6704,0.34005 -6.46997,1.0583 -7.28941,2.68722 -0.25545,0.50925 -0.20071,2.53012 -0.19408,3.10903 0.493954,5.96857 0.95424,11.70644 1.46471,17.91486 1.483453,18.0738 2.795227,31.84519 4.49531,49.26586 0.17749,1.93248 0.88105,6.94271 2.02893,8.47211 6.85304,4.25255 21.65159,4.13733 28.30516,4.09197 7.87068,-0.0751 19.37665,0.44538 24.30394,-3.49813 1.6621,-1.5294 2.74741,-5.48962 2.99623,-7.57305 1.30274,-12.70741 2.43007,-25.43157 3.59625,-38.152 0.97994,-11.03652 1.61813,-20.59782 2.51637,-30.52162 0.006,-0.57891 0.0614,-2.04053 -0.19408,-2.54978 -0.47772,-0.95048 -3.34647,-2.08533 -4.30359,-2.43532 -1.99055,-0.72323 -4.84698,-1.21258 -6.9669,-1.44978 -5.56886,-0.6426 -9.93463,-0.66789 -15.09494,-0.96376 h -7.29865 z m 4.6446,3.77255 c 5.07914,-0.11963 10.7517,0.14457 15.42672,0.14265 3.9683,0.20521 7.165,0.45171 11.27974,0.75973 3.39198,0.40742 5.18585,0.58221 8.49629,1.81304 0.32232,3.15417 -0.21866,6.11076 -0.50592,9.37047 -0.64709,8.02057 -1.3397,16.0369 -2.04695,24.05236 -1.14609,13.11627 -2.14456,23.18615 -3.4088,35.99558 -0.13602,1.10475 -0.1327,3.30761 -0.91399,4.09221 -1.75566,2.03706 -5.74865,2.4386 -8.50453,2.79154 -5.14487,0.402 -11.83734,0.58519 -17.50024,0.58078 -5.58939,-0.32482 -11.65616,-0.40215 -16.58787,-1.59741 -1.21921,-0.30356 -3.40549,-0.92561 -4.20502,-1.92088 -0.64527,-0.80285 -0.69835,-3.0422 -0.84101,-4.11212 -1.26065,-12.09815 -2.326378,-24.21523 -3.44197,-36.32734 -0.931371,-11.42109 -2.008805,-21.31175 -2.62752,-31.51688 -0.0382,-0.38982 -0.18744,-0.93223 0,-1.28224 0.26043,-0.43626 1.19101,-0.67015 1.66044,-0.80285 7.88062,-1.63699 16.4095,-1.84301 23.72063,-2.03864 z m -21.14948,3.09416 c -1.30215,0.69504 -2.04532,2.57722 -0.5806,3.03007 l 8.12804,1.12299 c 8.37024,0.81115 16.79854,0.70499 25.21356,0.69171 6.23087,-0.19116 11.04532,-0.66222 17.41723,-1.25736 1.13462,-0.16422 4.13204,-0.24052 3.73725,-2.05689 -0.36825,-1.6903 -2.90453,-1.99764 -4.06901,-1.83011 -4.03914,0.58224 -8.53444,0.99361 -12.60675,1.04006 -7.44004,0.38648 -15.69945,0.57176 -23.04813,0.1172 -4.87615,-0.32228 -9.73545,-1.35203 -14.19159,-0.85767 z m 52.1671,4.88459 c -1.30546,0.75973 -1.66642,3.55927 -1.66642,3.55927 -0.53824,9.04289 -1.26865,18.67835 -1.75981,26.31662 -0.5591,7.87193 -1.75512,20.94456 -3.11269,21.80184 -0.57394,0.6519 -2.84481,1.20759 -3.74388,1.42158 -6.7769,1.48459 -13.9461,1.27942 -20.56894,1.26896 -3.31047,-0.47567 -12.02576,-0.59157 -14.56082,-2.59267 -1.24628,-2.07288 -1.08255,-4.91007 -1.3884,-7.36002 l -1.60736,-14.16817 c -0.6695,-6.98322 -2.30148,-20.28741 -2.01927,-23.15912 0.8653,-1.19552 1.93964,-1.5565 6.03241,-2.21305 3.62611,-0.60545 8.39291,-0.76311 12.05053,-0.76809 4.58276,-0.26587 8.09976,-0.25536 12.4409,0 3.30431,0.005 7.66359,0.41138 10.94799,0.89907 6.92057,1.2292 13.66808,-0.18685 2.65405,-2.42183 -3.89014,-0.76998 -7.83267,-1.00081 -11.77736,-1.29717 -4.24936,-0.30106 -8.51549,-0.16587 -12.77267,-0.16587 -5.85414,-0.0388 -13.85206,0.32406 -17.82458,1.29755 -1.54266,0.41303 -4.5381,0.33245 -4.6426,2.15214 l 1.53829,19.60738 2.13817,19.57364 0.80617,6.63514 c 0.14597,1.05498 0.15759,2.10997 0.95546,2.93273 1.05001,1.08318 3.15335,1.66209 4.58821,2.06684 10.0691,2.12792 22.48593,2.11788 32.01455,0.59882 2.09174,-0.36328 5.81737,-1.17277 7.23397,-2.80667 0.67513,-0.77962 0.66683,-1.67039 0.79788,-2.62585 0.44171,-3.76279 0.92061,-7.52096 1.39503,-11.27972 l 1.47466,-13.10438 1.67703,-17.08546 0.22228,-3.1517 0.30356,-4.14696 c -0.0166,-1.25072 -0.44788,-2.0884 -1.82634,-1.78485 z m -46.27512,10.12853 c 6.88364,1.5455 14.69928,1.60533 20.89738,1.60902 6.53763,0.077 11.07807,-0.38717 17.41725,-1.14787 0.6154,-0.10114 1.99717,-0.29692 2.46993,-0.632 1.07821,-0.76471 0.77797,-2.44007 -0.64527,-2.49979 -5.55047,0.95065 -11.44497,1.1646 -16.58784,1.45973 -3.15754,0.0572 -6.30465,0.0194 -9.45509,-0.16588 -3.94561,-0.17844 -7.86581,-0.487 -11.77738,-1.00853 -2.10041,-1.21347 -4.20909,1.47982 -2.31898,2.38532 z m 0.82939,12.51387 c -0.98681,0.53045 -0.92475,1.20453 -0.85759,2.19954 0.24918,2.32548 0.54113,4.64583 0.82773,6.96689 l 1.56424,12.10912 0.66185,4.14363 c 0.28531,0.74977 0.98864,1.18438 1.7749,0.87584 0.6884,-0.27038 0.82607,-0.8692 0.83105,-1.53604 l -0.53745,-4.47871 -2.04196,-15.75843 c -0.13602,-0.98366 -0.23389,-3.77208 -0.96375,-4.35597 -0.41636,-0.33341 -0.78792,-0.26872 -1.25902,-0.16587 z m 38.48051,41.75156 c -7.47058,1.60518 -15.9575,1.91073 -22.22773,1.91755 -1.34693,-0.0166 -5.15716,-0.99526 -4.77067,1.48959 0.17417,1.123 1.54765,1.15285 2.44836,1.16447 7.51288,0.0298 13.64836,0.10107 21.06659,-1.11969 1.00523,-0.16753 4.03417,-0.66184 4.79223,-1.10971 0.78627,-0.46446 0.91731,-1.57419 0.15925,-2.12656 -0.45783,-0.33508 -0.94385,-0.27702 -1.46803,-0.21565 z"
       style="fill:#1a1a1a;stroke:none"
       sodipodi:nodetypes="ccccccccccccccccccccccccccccccccccccccccccccccccccccccccccccccccccccccccccccccccccccccccccccccccccccccccccc" />
    <path
       style="fill:#ffffff;fill-opacity:0.992933;stroke:none;stroke-width:0.0390738;stroke-linecap:butt;stroke-linejoin:miter;stroke-miterlimit:4;stroke-dasharray:none;stroke-opacity:1"
       d="m 140.53153,203.50116 c -0.48507,0.0358 -0.61149,0.31132 -0.65102,0.75308 0.0655,0.57571 0.74882,0.70806 1.07909,0.50994 0.59133,-0.55131 0.0778,-1.07572 -0.42807,-1.26302 z"
       id="path1645-3-52"
       sodipodi:nodetypes="cccc" />
    <path
       style="fill:#ffffff;fill-opacity:0.992933;stroke:#ffffff;stroke-width:0.744337;stroke-linecap:butt;stroke-linejoin:miter;stroke-miterlimit:4;stroke-dasharray:none;stroke-opacity:1"
       d="m 142.05934,200.32387 c 0.0655,0.57573 0.74882,0.70807 1.0791,0.50996 0.54002,-0.87348 -0.96524,-1.78216 -1.0791,-0.50996 z"
       id="path1645-3-4-3"
       sodipodi:nodetypes="ccc" />
    <path
       style="fill:#ffffff;fill-opacity:0.992933;stroke:none;stroke-width:0.0390738;stroke-linecap:butt;stroke-linejoin:miter;stroke-miterlimit:4;stroke-dasharray:none;stroke-opacity:1"
       d="m 137.70168,196.13313 c 0.0655,0.57572 0.74882,0.70807 1.07908,0.50996 0.41927,-0.39459 0.29807,-0.77095 0.0137,-1.08237 -0.63337,-0.28591 -1.03559,-0.0669 -1.09278,0.57241 z"
       id="path1645-3-2-4"
       sodipodi:nodetypes="cccc" />
    <path
       style="fill:#ffffff;stroke:#ffffff;stroke-width:0.398261;stroke-miterlimit:4;stroke-dasharray:none;stroke-opacity:1"
       d="m 141.27088,189.25124 c -0.0853,-1.37332 0.29605,-9.74596 0.57529,-12.6303 0.19901,-2.05569 0.26829,-2.35745 0.68281,-2.9749 0.80688,-1.20191 1.79076,-0.7903 2.02533,0.84727 0.16483,1.1507 -0.36047,13.5194 -0.63015,14.83748 -0.22084,1.07939 -0.95258,2.10513 -1.50175,2.10513 -0.86115,-0.34582 -1.09281,-1.36552 -1.15153,-2.18468 z"
       id="path1507-3-0"
       sodipodi:nodetypes="csssscc" />
  </g>
</svg>
