<?xml version="1.0" encoding="UTF-8" standalone="no"?>
<svg
   xmlns:dc="http://purl.org/dc/elements/1.1/"
   xmlns:cc="http://creativecommons.org/ns#"
   xmlns:rdf="http://www.w3.org/1999/02/22-rdf-syntax-ns#"
   xmlns:svg="http://www.w3.org/2000/svg"
   xmlns="http://www.w3.org/2000/svg"
   xmlns:sodipodi="http://sodipodi.sourceforge.net/DTD/sodipodi-0.dtd"
   xmlns:inkscape="http://www.inkscape.org/namespaces/inkscape"
   width="113.64676mm"
   height="187.80124mm"
   viewBox="0 0 113.64676 187.80123"
   version="1.1"
   id="svg8"
   sodipodi:docname="shot_1.svg"
   inkscape:version="1.0.1 (c497b03c, 2020-09-10)">
  <defs
     id="defs2" />
  <sodipodi:namedview
     id="base"
     pagecolor="#ffffff"
     bordercolor="#666666"
     borderopacity="1.0"
     inkscape:pageopacity="0.0"
     inkscape:pageshadow="2"
     inkscape:zoom="0.56439575"
     inkscape:cx="105.65426"
     inkscape:cy="194.56678"
     inkscape:document-units="mm"
     inkscape:current-layer="layer1"
     inkscape:document-rotation="0"
     showgrid="false"
     inkscape:window-width="1502"
     inkscape:window-height="1155"
     inkscape:window-x="0"
     inkscape:window-y="23"
     inkscape:window-maximized="0"
     inkscape:snap-global="false"
     fit-margin-top="0"
     fit-margin-left="0"
     fit-margin-right="0"
     fit-margin-bottom="0" />
  <metadata
     id="metadata5">
    <rdf:RDF>
      <cc:Work
         rdf:about="">
        <dc:format>image/svg+xml</dc:format>
        <dc:type
           rdf:resource="http://purl.org/dc/dcmitype/StillImage" />
        <dc:title></dc:title>
      </cc:Work>
    </rdf:RDF>
  </metadata>
  <g
     inkscape:label="Ebene 1"
     inkscape:groupmode="layer"
     id="layer1"
     transform="translate(-68.815285,-45.062546)">
    <path
       style="fill:#f5f5f5;fill-opacity:1;stroke:none;stroke-width:0.111148"
       d="m 101.18862,227.62757 c -7.086903,-23.74453 -5.675848,-51.21299 -7.098102,-74.41568 4.650863,-6.94311 23.202702,-4.24609 30.652102,-4.24897 13.07063,0.0103 21.06667,0.40408 27.70637,1.3649 7.46081,1.14353 6.01358,0.58158 5.41036,7.54549 -2.00743,15.58584 -1.49396,59.01674 -6.92212,70.4952 -15.29641,4.12874 -35.70755,3.28791 -49.74861,-0.74094 z"
       id="path3676"
       sodipodi:nodetypes="ccccccc" />
    <path
       style="fill:#00f9be;fill-opacity:1;stroke:none;stroke-width:0.138806"
       d="m 103.69248,203.565 c 9.4824,-2.53157 42.23656,-3.99178 44.17761,0.37842 -0.72855,8.30849 3.15394,7.02116 -21.50738,9.2181 -27.905236,-0.29338 -21.40434,-2.06804 -22.67023,-9.59652 z"
       id="path3611"
       sodipodi:nodetypes="cccc" />
    <path
       id="Auswahl-3"
       fill="none"
       stroke="#000000"
       stroke-width="0.165878"
       d="m 116.01784,145.70445 c -5.89874,0.44946 -12.36586,0.56676 -17.749,1.60239 -1.6704,0.34005 -6.46997,1.0583 -7.28941,2.68722 -0.25545,0.50925 -0.20071,2.53012 -0.19408,3.10903 0.493954,5.96857 0.95424,11.70644 1.46471,17.91486 1.483453,18.0738 2.795227,31.84519 4.49531,49.26586 0.17749,1.93248 0.88105,6.94271 2.02893,8.47211 6.85304,4.25255 21.65159,4.13733 28.30516,4.09197 7.87068,-0.0751 19.37665,0.44538 24.30394,-3.49813 1.6621,-1.5294 2.74741,-5.48962 2.99623,-7.57305 1.30274,-12.70741 2.43007,-25.43157 3.59625,-38.152 0.97994,-11.03652 1.61813,-20.59782 2.51637,-30.52162 0.006,-0.57891 0.0614,-2.04053 -0.19408,-2.54978 -0.47772,-0.95048 -3.34647,-2.08533 -4.30359,-2.43532 -1.99055,-0.72323 -4.84698,-1.21258 -6.9669,-1.44978 -5.56886,-0.6426 -9.93463,-0.66789 -15.09494,-0.96376 h -7.29865 z m 4.6446,3.77255 c 5.07914,-0.11963 10.7517,0.14457 15.42672,0.14265 3.9683,0.20521 7.165,0.45171 11.27974,0.75973 3.39198,0.40742 5.18585,0.58221 8.49629,1.81304 0.32232,3.15417 -0.21866,6.11076 -0.50592,9.37047 -0.64709,8.02057 -1.3397,16.0369 -2.04695,24.05236 -1.14609,13.11627 -2.14456,23.18615 -3.4088,35.99558 -0.13602,1.10475 -0.1327,3.30761 -0.91399,4.09221 -1.75566,2.03706 -5.74865,2.4386 -8.50453,2.79154 -5.14487,0.402 -11.83734,0.58519 -17.50024,0.58078 -5.58939,-0.32482 -11.65616,-0.40215 -16.58787,-1.59741 -1.21921,-0.30356 -3.40549,-0.92561 -4.20502,-1.92088 -0.64527,-0.80285 -0.69835,-3.0422 -0.84101,-4.11212 -1.26065,-12.09815 -2.326378,-24.21523 -3.44197,-36.32734 -0.931371,-11.42109 -2.008805,-21.31175 -2.62752,-31.51688 -0.0382,-0.38982 -0.18744,-0.93223 0,-1.28224 0.26043,-0.43626 1.19101,-0.67015 1.66044,-0.80285 7.88062,-1.63699 16.4095,-1.84301 23.72063,-2.03864 z m -21.14948,3.09416 c -1.30215,0.69504 -2.04532,2.57722 -0.5806,3.03007 l 8.12804,1.12299 c 8.37024,0.81115 16.79854,0.70499 25.21356,0.69171 6.23087,-0.19116 11.04532,-0.66222 17.41723,-1.25736 1.13462,-0.16422 4.13204,-0.24052 3.73725,-2.05689 -0.36825,-1.6903 -2.90453,-1.99764 -4.06901,-1.83011 -4.03914,0.58224 -8.53444,0.99361 -12.60675,1.04006 -7.44004,0.38648 -15.69945,0.57176 -23.04813,0.1172 -4.87615,-0.32228 -9.73545,-1.35203 -14.19159,-0.85767 z m 52.1671,4.88459 c -1.30546,0.75973 -1.66642,3.55927 -1.66642,3.55927 -1.18535,12.44018 -1.38031,19.57604 -1.99421,26.90261 -0.20751,3.30122 -1.52072,20.35857 -2.87829,21.21585 -0.57394,0.6519 -2.84481,1.20759 -3.74388,1.42158 -6.7769,1.48459 -13.9461,1.27942 -20.56894,1.26896 -3.31047,-0.47567 -12.02576,-0.59157 -14.56082,-2.59267 -1.24628,-2.07288 -1.08255,-4.91007 -1.3884,-7.36002 l -1.60736,-14.16817 c -0.33749,-4.71044 -3.27019,-5.28517 -3.04083,-3.1685 l 1.80669,16.67315 0.80617,6.63514 c 0.14597,1.05498 0.15759,2.10997 0.95546,2.93273 1.05001,1.08318 3.15335,1.66209 4.58821,2.06684 10.0691,2.12792 22.48593,2.11788 32.01455,0.59882 2.09174,-0.36328 5.81737,-1.17277 7.23397,-2.80667 0.67513,-0.77962 0.66683,-1.67039 0.79788,-2.62585 0.44171,-3.76279 0.92061,-7.52096 1.39503,-11.27972 l 1.47466,-13.10438 1.67703,-17.08546 0.22228,-3.1517 0.30356,-4.14696 c -0.0166,-1.25072 -0.44788,-2.0884 -1.82634,-1.78485 z m -6.96522,64.39396 c -7.47058,1.60518 -15.9575,1.91073 -22.22773,1.91755 -1.34693,-0.0166 -5.15716,-0.99526 -4.77067,1.48959 0.17417,1.123 1.54765,1.15285 2.44836,1.16447 7.51288,0.0298 13.64836,0.10107 21.06659,-1.11969 1.00523,-0.16753 4.03417,-0.66184 4.79223,-1.10971 0.78627,-0.46446 0.91731,-1.57419 0.15925,-2.12656 -0.45783,-0.33508 -0.94385,-0.27702 -1.46803,-0.21565 z"
       style="fill:#1a1a1a;stroke:none"
       sodipodi:nodetypes="cccccccccccccccccccccccccccccccccccccccccccccccccccccccsccccccccccccccccccccc" />
    <path
       id="Auswahl-3-6"
       fill="none"
       stroke="#000000"
       stroke-width="0.139907"
       d="m 107.95638,203.39948 c 4.0097,-0.69347 8.67383,-1.04471 11.95056,-1.04867 7.07166,-0.27955 14.25765,0.0945 20.90077,0.92663 8.11038,1.67645 11.88781,-0.13962 2.37766,-1.92311 -4.34076,-0.72871 -9.1785,-0.95687 -13.07718,-1.16176 -8.00445,0.10439 -17.68123,-0.51881 -24.83221,1.72538 -5.14047,1.61323 0.48439,2.27655 2.6804,1.48153 z m -0.58175,3.94544 c 10.43859,1.32343 26.77998,1.28768 36.53743,-0.13567 0.96592,-0.60723 0.69696,-1.93759 -0.57809,-1.98501 -11.309,1.0709 -23.61664,1.27546 -33.88185,0.22656 -2.03016,-0.51239 -3.77077,1.17509 -2.07749,1.89412 z"
       style="fill:#1a1a1a;stroke:none"
       sodipodi:nodetypes="cccccscccccc" />
    <path
       id="Auswahl-3-1-6"
       fill="none"
       stroke="#000000"
       stroke-width="0.0962053"
       d="m 138.42925,209.86104 c 0.18855,0.35222 0.69273,0.57445 1.27847,0.4599 0.51284,-0.10042 0.63056,-0.36943 0.6528,-0.67399 0.09,-1.75101 -2.39573,-1.81088 -1.93127,0.21409 z"
       style="fill:#ffffff;fill-opacity:1;stroke:none"
       sodipodi:nodetypes="cccc" />
    <path
       id="Auswahl-3-1-6-6"
       fill="none"
       stroke="#000000"
       stroke-width="0.0546629"
       d="m 141.09114,208.67801 c 0.11088,0.19337 0.40737,0.31537 0.75183,0.25248 0.30158,-0.0551 0.37081,-0.20281 0.38389,-0.37001 0.0529,-0.96127 -1.40885,-0.99414 -1.13572,0.11753 z"
       style="fill:#ffffff;fill-opacity:1;stroke:none"
       sodipodi:nodetypes="cccc" />
  </g>
</svg>
