<?xml version="1.0" encoding="UTF-8" standalone="no"?>
<svg
   xmlns:dc="http://purl.org/dc/elements/1.1/"
   xmlns:cc="http://creativecommons.org/ns#"
   xmlns:rdf="http://www.w3.org/1999/02/22-rdf-syntax-ns#"
   xmlns:svg="http://www.w3.org/2000/svg"
   xmlns="http://www.w3.org/2000/svg"
   xmlns:sodipodi="http://sodipodi.sourceforge.net/DTD/sodipodi-0.dtd"
   xmlns:inkscape="http://www.inkscape.org/namespaces/inkscape"
   width="113.64676mm"
   height="187.80124mm"
   viewBox="0 0 113.64676 187.80123"
   version="1.1"
   id="svg8"
   sodipodi:docname="beer_full_2.svg"
   inkscape:version="1.0.1 (c497b03c, 2020-09-10)">
  <defs
     id="defs2" />
  <sodipodi:namedview
     id="base"
     pagecolor="#ffffff"
     bordercolor="#666666"
     borderopacity="1.0"
     inkscape:pageopacity="0.0"
     inkscape:pageshadow="2"
     inkscape:zoom="0.28219787"
     inkscape:cx="-268.81833"
     inkscape:cy="314.33458"
     inkscape:document-units="mm"
     inkscape:current-layer="layer1"
     inkscape:document-rotation="0"
     showgrid="false"
     inkscape:window-width="1920"
     inkscape:window-height="1023"
     inkscape:window-x="17"
     inkscape:window-y="213"
     inkscape:window-maximized="0"
     inkscape:snap-global="false"
     fit-margin-top="0"
     fit-margin-left="0"
     fit-margin-right="0"
     fit-margin-bottom="0" />
  <metadata
     id="metadata5">
    <rdf:RDF>
      <cc:Work
         rdf:about="">
        <dc:format>image/svg+xml</dc:format>
        <dc:type
           rdf:resource="http://purl.org/dc/dcmitype/StillImage" />
        <dc:title></dc:title>
      </cc:Work>
    </rdf:RDF>
  </metadata>
  <g
     inkscape:label="Ebene 1"
     inkscape:groupmode="layer"
     id="layer1"
     transform="translate(-68.815285,-45.062546)">
    <g
       id="g5003">
      <path
         id="Auswahl #2-0"
         fill="none"
         stroke="#000000"
         stroke-width="0.220689"
         d="m 77.220431,61.098796 c -6.943799,2.302762 -8.767621,1.704426 -8.348586,8.095229 v 8.456097 l 0.218864,3.560462 v 3.33793 l 0.218863,3.337931 v 6.230807 l 0.218864,3.560453 v 7.788495 l 0.218864,3.56046 v 3.78299 l 0.218863,3.11541 v 5.56322 c 0.0066,3.86755 0.903907,9.35066 1.831888,13.1292 5.468564,15.8762 8.550875,12.80409 10.824993,28.79898 l 0.293277,4.22805 0.420219,5.56322 0.199165,2.67035 0.218864,5.11816 0.218863,3.56046 v 3.11541 l 0.218864,3.33793 0.941135,18.80868 c 0.08941,4.67113 -0.479746,15.3243 2.67698,17.41952 12.070805,6.76816 57.263979,8.0148 74.804149,0.49665 3.033,-1.87368 2.22801,-10.7811 2.9706,-16.32579 l 1.33757,-12.83308 0.21886,-3.78299 0.43773,-24.92323 0.21887,-3.56046 v -4.67311 l 0.2101,-2.67035 v -2.67034 c 0.20156,-6.06335 3.98411,-11.87838 6.46206,-18.0672 2.96906,-7.41541 6.15543,-21.18396 6.69821,-29.20168 l 0.43773,-6.23081 0.19917,-2.22529 0.21885,-6.008247 0.21887,-3.560461 v -4.895637 l 0.21886,-3.782986 V 69.194025 l -0.21886,-3.337932 c -0.249,-6.65585 -11.02061,-5.308392 -15.38688,-6.42008 -6.24166,-1.437256 -17.79284,-3.10747 -42.45403,-3.127399 -25.303555,-0.286395 -39.590525,2.535523 -47.181839,4.790182 z m 47.833539,-1.070364 c 13.47152,0.03632 35.8346,2.028768 40.70718,3.208872 4.34619,1.232257 13.74806,0.447501 9.11716,3.115445 -6.4529,2.14236 -18.88294,3.03748 -26.93716,4.222607 -8.47349,1.004475 -18.95752,0.771617 -25.22677,0.8133 -7.80068,-0.323663 -13.77746,0.499739 -22.15609,-0.799423 -3.141484,-0.489199 -15.866776,-1.308707 -22.972264,-2.707425 -2.101291,-0.418543 -3.945019,-1.370086 -1.956945,-3.03489 11.188902,-3.848636 32.814739,-4.80283 49.424889,-4.818486 z m 52.81194,14.506285 v 6.453338 c -4.69469,2.897272 -9.68169,3.143037 -15.76353,4.793157 -7.23344,2.042817 -12.34532,2.242998 -19.83483,2.783743 l -5.55237,0.497228 -4.48137,0.196441 -8.6759,-0.08287 -5.36113,0.03499 -3.91644,-0.0833 -1.8335,-0.293844 c -5.79332,-0.405006 -10.91711,-0.663222 -16.627249,-1.824823 -5.736419,-1.166049 -9.305396,-0.506576 -14.652233,-2.996674 -1.549555,-0.723221 -6.909279,-2.343106 -7.699377,-3.91416 -0.312975,-0.627536 0.0088,0.738795 0,0 v -5.785749 c -0.03034,-3.135351 2.607503,-2.279168 9.313415,-0.710071 10.550965,2.664396 24.864374,2.136053 38.056744,3.065822 10.90905,-0.01057 19.8684,-0.401763 26.11494,-1.005126 10.2076,-1.197276 14.44564,-0.717916 23.01038,-3.727843 6.15085,-1.409195 8.02569,-1.793291 7.90245,2.599739 z m -0.89953,11.019633 c 1.12934,0.151314 0.84262,0.990254 0.7113,1.887043 v 5.563222 l -0.24074,2.225286 v 2.225274 l -0.22762,3.782975 -0.40052,4.89564 -0.29328,4.67311 -0.39614,3.78298 c -0.42898,6.45334 -2.95311,14.85159 -4.80469,21.03344 -4.76176,12.43895 -7.77803,13.72235 -7.89377,25.56786 l -0.21887,3.78299 v 6.45333 l -0.21887,3.78299 v 5.56322 l -0.21886,3.78299 v 5.3407 l -0.21886,3.78298 -1.80636,21.03691 -0.68766,5.59883 c -0.47969,4.61006 -4.64969,4.84006 -10.6378,6.36216 -7.33634,1.15786 -13.7612,1.46591 -20.79204,2.01033 -8.20876,-0.68341 -18.53368,-0.18286 -25.55197,-1.75204 -6.307649,-1.28177 -12.373818,-0.76645 -13.441729,-7.10112 l -1.058333,-17.47644 0.218863,-4.67311 -0.218863,-3.33793 v -7.34345 l -0.218864,-3.33793 v -2.89288 l -0.218864,-2.89287 v -0.89012 l -0.218863,-3.33793 -0.418029,-6.00828 C 89.061599,145.566 74.948894,143.10025 74.562298,121.93333 v -2.22528 l -0.218863,-3.78299 -0.218864,-14.24185 -0.218863,-3.337918 v -5.785739 l -0.218864,-3.337931 v -1.335176 c 0.0022,-0.785524 -0.115998,-2.258667 1.098695,-2.038363 0.468368,0.08456 6.283387,1.429586 8.389959,2.538974 5.32185,1.692822 12.471837,1.805677 16.001527,2.389419 6.077845,1.036988 12.505535,1.836485 18.614015,1.845385 l 6.86979,-0.02608 8.11495,-0.165743 c 2.70968,-0.222259 10.92242,-0.771183 13.57383,-1.016259 6.46561,-0.59353 9.31954,-1.003199 16.79835,-2.441706 5.06132,-0.973518 7.67325,-0.943703 13.81842,-3.417723 z"
         style="fill:#1a1a1a;stroke:#1a1a1a;stroke-width:0;stroke-miterlimit:4;stroke-dasharray:none;stroke-opacity:1"
         sodipodi:nodetypes="cccccccccccccccccccccccccccccccccscccccccccccccccccccccccccccccccccccccccccccccccccccccccccccccccccccccccccccccccccccccccccccsc" />
      <path
         id="Auswahl-5"
         fill="none"
         stroke="#000000"
         stroke-width="0.373909"
         d="m 121.09451,219.97186 c 2.52607,-0.0397 9.20596,-0.13532 11.55015,-0.27661 6.87888,-0.41458 8.66459,-1.22287 13.39587,-2.17017 1.26505,-0.25653 4.01603,-1.22373 6.18225,-2.48736 1.35134,-0.7883 3.4514,-2.16278 3.4514,-2.16278 0.59098,-4.28224 -4.6456,-0.0353 -11.48451,1.72418 -11.67841,2.09459 -10.76419,1.91561 -18.73502,2.13729 -7.99181,-0.48214 -10.24505,-0.26878 -10.393,0.80075 -0.10997,0.79501 -0.37737,2.49735 6.03286,2.4347 z"
         style="fill:#1a1a1a"
         sodipodi:nodetypes="cscscccsc" />
      <path
         style="fill:#ffffff;stroke:#ffffff;stroke-width:1.416;stroke-linejoin:bevel;stroke-miterlimit:4;stroke-dasharray:none;stroke-opacity:0.00709223;paint-order:fill markers stroke"
         id="path1563"
         d="m 78.853496,94.704248 c -0.163186,3.587744 0.605989,9.042382 1.007716,12.344562 0.11565,0.95064 0.288875,1.89338 0.433314,2.84006 0.302265,1.13785 0.572296,2.28476 0.906796,3.41355 0.821499,2.77223 1.916689,5.7285 2.802289,8.46558 1.387713,4.28895 2.551499,8.63472 3.745217,12.97983 1.923229,6.46761 3.38411,13.04171 4.58666,19.676 0.789181,4.05783 1.201724,8.17468 1.600116,12.28525 0.69986,1.48273 5.33608,0.30952 5.22992,-2.74102 v 0 c -0.54808,-4.07624 -1.09439,-8.15503 -1.85968,-12.19753 -1.35338,-6.58235 -2.99192,-13.09674 -4.98939,-19.51598 -1.804749,-5.82686 -3.665485,-11.63136 -5.295582,-17.51101 -0.368562,-1.32938 -0.756513,-2.65438 -1.071505,-3.99746 -0.269518,-1.14918 -0.454006,-2.31665 -0.681011,-3.47498 -0.494223,-4.34327 -0.760122,-8.874078 -1.243634,-12.777307 -0.543993,-1.117887 -1.828982,-1.474388 -3.017468,-1.46033 -0.888492,0.01051 -1.72305,-0.116446 -2.153758,1.670785 z"
         sodipodi:nodetypes="cscssccccsccssccsc" />
      <path
         style="opacity:1;mix-blend-mode:normal;fill:#f6f2e0;fill-opacity:1;fill-rule:nonzero;stroke:#1a1a1a;stroke-width:2.11135;stroke-linejoin:bevel;stroke-miterlimit:4;stroke-dasharray:none;stroke-dashoffset:0;stroke-opacity:1;paint-order:fill markers stroke"
         d="m 116.67967,71.635861 c -9.74258,-0.126207 -18.823187,-1.15647 -29.429063,-1.910386 -4.012833,-0.81738 -11.474235,-1.84942 -13.405305,-5.077184 v -10e-7 c 0,-0.320139 0.507069,-2.271178 0.702281,-2.564426 1.011576,-1.918864 1.157409,-2.086342 2.099991,-3.018592 2.929843,-3.10598 6.788712,-2.243864 8.622109,-3.677804 3.620198,-2.985966 5.290703,-3.980992 8.077986,-3.425459 2.474641,0.493222 4.624823,-1.313324 7.424321,-1.739371 2.87328,-0.437273 4.97422,-0.984288 7.74331,-1.690252 2.98552,-0.761139 6.309,1.501818 9.85637,-0.282779 4.52521,-2.27653 8.74774,-2.83961 12.60209,-1.185404 3.47851,1.492901 8.34386,0.931092 11.73807,2.422515 4.25303,1.868785 7.53949,0.514196 10.53865,-0.11925 4.94843,-1.045147 7.6114,5.56304 12.9502,5.139345 1.7969,-0.142604 5.67641,0.184318 7.27983,1.041964 4.51993,2.417629 4.88864,7.021337 4.52689,8.664998 -1.09337,4.967781 -9.27118,3.932013 -24.50327,6.075864 -8.63635,1.215524 -26.15065,1.372862 -36.82446,1.346222 z"
         id="path155"
         sodipodi:nodetypes="cccscccsssssssssssc" />
      <path
         style="fill:#f6f2e0;fill-opacity:1;stroke:none;stroke-width:0.355153;stroke-opacity:1"
         d="M 115.30633,88.428654 C 100.77407,87.82317 90.399466,86.960573 79.723732,83.131655 74.37716,80.380709 73.517607,81.460934 73.560638,76.035462 c 0.0028,-2.000534 -0.185072,-2.89278 -0.01241,-3.198218 0.264229,-0.467415 2.301067,-0.05823 4.85896,0.774846 10.773738,3.508876 19.803377,3.184969 36.756212,3.817015 23.31876,0.869384 45.33032,0.03081 57.82812,-5.642906 3.78823,-1.719768 4.89231,-1.09373 4.7741,4.200007 l -0.0815,3.649755 -2.97333,1.549627 c -8.20275,4.275072 -16.19974,4.995002 -30.24472,6.680941 -9.71041,0.639346 -19.44654,0.966824 -29.15974,0.562125 z"
         id="path2300"
         sodipodi:nodetypes="cccssssscscc" />
      <path
         style="fill:#f6f2e0;fill-opacity:1;stroke:none;stroke-width:0.327915"
         d="m 113.42891,223.17281 c -9.66789,-0.71677 -17.998582,-3.28488 -21.523426,-6.63506 -2.741488,-2.60564 -2.847767,-3.10512 -2.854403,-13.41507 -0.01213,-18.83204 -0.84757,-36.85549 -2.174544,-46.91221 -1.130472,-8.56749 -2.163451,-12.79334 -5.807552,-23.75837 -3.16129,-9.51224 -4.048029,-15.21486 -4.762176,-19.85686 -0.652197,-4.23932 -2.052047,-26.519817 -1.51148,-27.048458 0.2245,-0.219544 5.158558,2.316937 7.086693,2.902807 11.092357,3.370453 12.709172,3.28732 26.165448,4.856845 5.99063,0.698738 23.05648,0.57221 29.8473,0.07717 15.56961,-1.135006 25.64992,-2.311945 34.2428,-6.537036 1.48743,-0.731365 4.71017,-0.778094 4.71017,-0.778094 0.15536,1.588086 0.65136,2.725508 0.49841,4.313828 -0.16742,2.140226 -0.27306,5.686652 -0.37801,7.7377 -0.51502,10.066498 -4.06293,19.910538 -8.04765,31.986188 -3.00833,9.11669 -4.36534,13.90538 -5.06302,17.86668 -0.62489,3.54798 -1.03624,12.45879 -1.85819,40.25282 -0.36791,12.44066 -0.82278,23.04217 -1.0296,23.99649 -0.55524,2.56196 -1.3801,3.88544 -3.34606,5.3687 -3.49061,2.63358 -8.36395,4.16546 -16.23296,5.10271 -5.11624,0.60936 -22.24639,0.90294 -27.96175,0.47922 z"
         id="path2302"
         sodipodi:nodetypes="ssssssssssscccsssssss" />
      <path
         style="fill:#facd00;fill-opacity:1;stroke:none;stroke-width:0.417595"
         d="m 113.01451,228.22429 c -3.95284,-0.39456 -11.13759,-1.77715 -14.508478,-2.22303 -4.930628,-0.6522 -7.401005,-1.12541 -8.11582,-4.11548 l -1.231872,-5.15292 -0.007,-13.28556 c -0.0074,-14.02923 -0.51788,-29.42595 -1.24305,-37.49578 -1.13555,-12.63665 -2.16779,-14.90513 -8.088937,-25.83125 -2.817161,-3.85194 -2.837607,-8.17442 -4.184914,-14.08101 -2.924742,-12.82207 -0.826967,-26.721131 -0.826967,-26.721131 5.144331,-0.443882 12.767389,0.595806 17.291952,2.123361 6.272164,2.11758 9.122456,1.82146 16.789876,2.70127 4.91595,0.56408 11.12092,-0.73894 17.31739,-0.72579 9.88828,0.021 19.66421,1.09335 28.54947,-0.61381 8.25794,-1.58662 15.91787,-2.69205 22.01229,-3.581416 -0.1891,7.369776 -0.4876,14.223296 -1.80333,20.145276 -1.23558,4.78255 -3.12779,14.26233 -3.98566,16.84649 -3.26864,10.25546 -7.16589,15.61604 -7.70257,20.82617 -0.23817,2.3122 -0.48051,12.48228 -0.91328,29.08261 -0.88552,33.96711 -0.71497,34.4968 -4.1763,37.66673 -5.04966,4.62452 -14.65407,4.316 -33.30436,4.1778 -4.43335,0.1984 -7.57923,0.68561 -11.86844,0.25747 z"
         id="path157-1"
         sodipodi:nodetypes="csscsscscsssscccssscc" />
      <path
         style="fill:#000000;fill-opacity:1;stroke:#000000;stroke-width:0.210062px;stroke-linecap:butt;stroke-linejoin:miter;stroke-opacity:1"
         d="m 159.77771,56.790761 c -2.42549,-2.680945 -5.08551,-0.457521 -7.69189,-0.720408 -2.49576,-0.251727 -3.11939,-2.054909 -5.71398,-2.161223 -0.58946,-0.02415 -1.2069,0.0051 -1.75815,0.144081 -0.74546,0.187972 -3.40876,1.799477 -2.41745,2.449387 0.32113,0.21053 3.69461,-0.841109 4.61514,-0.720408 1.4107,0.184974 1.67753,1.56728 3.07675,1.87306 2.44253,0.533778 2.85725,-0.172932 4.83491,-0.432244 1.09645,-0.143768 1.37756,0.109639 2.19768,0.432244 0.48211,0.189645 0.79354,0.144082 1.31861,0.144082 1.12359,0 1.26366,-0.28815 1.53838,-1.008571 z"
         id="path2319" />
      <path
         style="fill:#000000;fill-opacity:1;stroke:#000000;stroke-width:0.173817px;stroke-linecap:butt;stroke-linejoin:miter;stroke-opacity:1"
         d="m 143.71357,61.105576 c -2.38085,-1.776979 -4.09751,0.543481 -6.20245,0.798538 -2.0156,0.244233 -2.82069,-1.133603 -4.8892,-0.751229 -0.46994,0.08687 -0.95274,0.22297 -1.36423,0.437795 -0.55645,0.290531 -2.3817,2.105651 -1.48585,2.46332 0.2902,0.115862 2.77357,-1.365084 3.52182,-1.432137 1.14669,-0.102755 1.59696,0.991772 2.75551,0.990979 2.0224,-0.0014 2.22767,-0.660863 3.74538,-1.233716 0.84145,-0.317602 1.10746,-0.159036 1.81135,-0.04095 0.41377,0.06942 0.65196,-0.0247 1.06683,-0.119873 0.8878,-0.203653 0.94857,-0.467283 1.04084,-1.112721 z"
         id="path2319-8"
         inkscape:transform-center-x="-3.7835434"
         inkscape:transform-center-y="-1.4806031" />
      <path
         style="fill:#000000;fill-opacity:1;stroke:#000000;stroke-width:0.210062px;stroke-linecap:butt;stroke-linejoin:miter;stroke-opacity:1"
         d="m 105.5538,55.864614 c -3.16221,-1.752401 -5.50072,1.506684 -8.052046,2.100887 -2.443035,0.568986 -3.075779,-1.230439 -5.565307,-0.491892 -0.56559,0.167793 -1.140385,0.395164 -1.617059,0.704962 -0.644601,0.418968 -2.611312,4.076272 -1.463084,4.370641 0.371956,0.09536 3.191756,-3.704136 4.101849,-3.887642 1.394707,-0.281218 2.094264,0.74393 3.517179,0.580737 2.483892,-0.284878 2.647752,-0.891168 4.435258,-1.776163 0.99102,-0.490657 1.33898,-0.734919 2.21936,-0.694898 0.51753,0.02353 0.94492,0.223681 1.44177,0.05386 1.0632,-0.363394 0.95512,-0.189942 0.98208,-0.960494 z"
         id="path2319-9"
         sodipodi:nodetypes="csscsssssscc" />
      <path
         style="fill:#ffffff;fill-opacity:1;stroke:#ffffff;stroke-width:0.292238px;stroke-linecap:butt;stroke-linejoin:miter;stroke-opacity:1"
         d="m 159.61532,113.88061 c -0.17061,0.20813 -0.41719,1.06057 -0.34943,1.34992 0.1162,0.49615 0.644,0.84318 1.04829,0.78153 0.18274,-0.0279 0.3709,-0.0885 0.52414,-0.21314 0.24423,-0.19865 0.50438,-1.44507 0.23295,-1.77621 -0.51885,-0.54467 -0.84271,-0.42935 -1.45595,-0.1421 z"
         id="path2367"
         sodipodi:nodetypes="cssscc" />
      <path
         style="fill:#ffffff;fill-opacity:1;stroke:#ffffff;stroke-width:0.665;stroke-linecap:butt;stroke-linejoin:miter;stroke-miterlimit:4;stroke-dasharray:none;stroke-opacity:1"
         d="m 165.69854,120.24316 c -0.19412,0.0194 -0.41622,-0.044 -0.58237,0.0582 -0.12592,0.0775 -0.15041,0.26184 -0.17472,0.40767 -0.0163,0.0976 0.0235,0.1985 0.0582,0.29119 0.42047,0.35483 0.96872,0.52281 1.223,0 0.15739,-0.53317 -0.14323,-0.75036 -0.52415,-0.7571 z"
         id="path2369"
         sodipodi:nodetypes="cssccc" />
      <path
         style="fill:#000000;fill-opacity:1;stroke:#000000;stroke-width:0.160434px;stroke-linecap:butt;stroke-linejoin:miter;stroke-opacity:1"
         d="m 159.11049,61.581449 c -0.73312,0 -0.46651,1.169648 0,1.254985 0.66034,0.120794 0.99478,-0.181789 1.12997,-0.738227 -0.10701,-0.492366 -0.70583,-0.516758 -1.12997,-0.516758 z"
         id="path2357-9"
         sodipodi:nodetypes="cscc" />
      <path
         style="fill:#ffffff;stroke:#ffffff;stroke-width:1.07079;stroke-linejoin:bevel;stroke-miterlimit:4;stroke-dasharray:none;stroke-opacity:0.00709223;paint-order:fill markers stroke"
         id="path1563-5"
         d="m 79.877602,116.54892 c 0.111243,3.26874 0.05485,10.69612 0.503019,13.686 0.850136,4.59971 3.459582,8.68039 4.683002,12.7788 1.124616,3.85403 2.432775,4.71329 3.439194,8.62497 1.589757,5.81751 2.065781,9.33181 2.980758,16.59636 0.735879,3.66407 0.592977,9.16475 1.087161,12.89002 0.526691,1.32492 4.401915,0.50609 4.153888,-2.26491 v 0 c -0.585922,-3.68898 -0.821819,-7.9353 -1.541816,-11.58623 -1.239569,-5.94113 -1.721003,-14.4657 -3.354395,-20.2367 -1.764653,-7.9932 -5.282525,-9.77277 -6.960733,-17.05308 -0.568069,-3.93368 -0.524416,-9.33019 -1.059592,-12.864 -0.407334,-0.99837 -1.936791,-2.21673 -2.68055,-2.16373 -0.556025,0.0396 -1.086436,-0.0477 -1.249936,1.5925 z"
         sodipodi:nodetypes="cccccccsccccsc" />
      <path
         style="fill:#ffffff;fill-opacity:0.992933;stroke:none;stroke-width:0.0830993;stroke-linecap:butt;stroke-linejoin:miter;stroke-miterlimit:4;stroke-dasharray:none;stroke-opacity:1"
         d="m 92.818356,185.81393 c -0.267184,0 -0.777153,0.0725 -1.021255,0.34123 -0.263608,0.29019 -0.424746,0.92601 -0.363276,1.26036 0.139328,1.22439 1.592525,1.50587 2.294923,1.08453 0.466026,-0.33194 0.690054,-0.80801 0.629258,-1.30994 -0.09644,-0.4861 -0.192142,-0.74248 -0.600146,-0.99195 -0.166696,-0.1012 -0.723414,-0.33176 -0.939504,-0.38423 z"
         id="path1645-3"
         sodipodi:nodetypes="ssccccss" />
      <path
         style="fill:#ffffff;fill-opacity:1;stroke:#ffffff;stroke-width:1.465;stroke-linecap:butt;stroke-linejoin:miter;stroke-miterlimit:4;stroke-dasharray:none;stroke-opacity:1"
         d="m 155.53736,124.43229 c -1.7202,2.18935 0.76257,3.25989 1.65491,2.54602 0.23008,-0.18406 0.22321,-1.62177 0.1273,-1.90951 -0.39267,-0.42624 -1.34719,-1.13544 -1.78221,-0.63651 z"
         id="path2359-6"
         sodipodi:nodetypes="cscc" />
      <path
         style="fill:#ffffff;fill-opacity:1;stroke:#ffffff;stroke-width:0.6;stroke-linecap:butt;stroke-linejoin:miter;stroke-miterlimit:4;stroke-dasharray:none;stroke-opacity:1"
         d="m 157.66226,209.36979 c -0.17061,0.20814 -0.41719,1.06057 -0.34943,1.34992 0.1162,0.49615 0.64401,0.84318 1.0483,0.78153 0.18274,-0.0279 0.3709,-0.0885 0.52414,-0.21314 0.24423,-0.19865 0.50438,-1.44507 0.23295,-1.77621 -0.51885,-0.54467 -0.84271,-0.42934 -1.45596,-0.1421 z"
         id="path2367-6"
         sodipodi:nodetypes="cssscc" />
      <path
         style="fill:#ffffff;fill-opacity:1;stroke:#ffffff;stroke-width:1.2;stroke-linecap:butt;stroke-linejoin:miter;stroke-miterlimit:4;stroke-dasharray:none;stroke-opacity:1"
         d="m 152.10375,217.31986 c -0.19412,0.0194 -0.41622,-0.044 -0.58237,0.0582 -0.12592,0.0775 -0.15041,0.26183 -0.17472,0.40766 -0.0163,0.0976 0.0235,0.19851 0.0582,0.29119 0.42047,0.35483 0.96872,0.52282 1.223,0 0.15739,-0.53316 -0.14323,-0.75036 -0.52415,-0.75709 z"
         id="path2369-92"
         sodipodi:nodetypes="cssccc" />
      <path
         style="fill:#ffffff;fill-opacity:1;stroke:#ffffff;stroke-width:1.3;stroke-linecap:butt;stroke-linejoin:miter;stroke-miterlimit:4;stroke-dasharray:none;stroke-opacity:1"
         d="m 154.0905,204.79969 c -1.7202,2.18935 0.76257,3.25989 1.65491,2.54602 0.23008,-0.18406 0.22321,-1.62178 0.1273,-1.90952 -0.39267,-0.42624 -1.34719,-1.13544 -1.78221,-0.6365 z"
         id="path2359-3"
         sodipodi:nodetypes="cscc" />
      <path
         style="fill:#ffffff;fill-opacity:1;stroke:#ffffff;stroke-width:0.265;stroke-linecap:butt;stroke-linejoin:miter;stroke-miterlimit:4;stroke-dasharray:none;stroke-opacity:1"
         d="m 93.958842,192.81976 c -0.19412,0.0194 -0.41622,-0.044 -0.58237,0.0582 -0.12592,0.0775 -0.15041,0.26183 -0.17472,0.40766 -0.0163,0.0976 0.0235,0.19851 0.0582,0.29119 0.42047,0.35483 0.96872,0.52282 1.223,0 0.15739,-0.53316 -0.14323,-0.75035 -0.52415,-0.75709 z"
         id="path2369-9"
         sodipodi:nodetypes="cssccc"
         inkscape:transform-center-x="-48.803571"
         inkscape:transform-center-y="-32.189869" />
    </g>
  </g>
</svg>
