<?xml version="1.0" encoding="UTF-8" standalone="no"?>
<svg
   xmlns:dc="http://purl.org/dc/elements/1.1/"
   xmlns:cc="http://creativecommons.org/ns#"
   xmlns:rdf="http://www.w3.org/1999/02/22-rdf-syntax-ns#"
   xmlns:svg="http://www.w3.org/2000/svg"
   xmlns="http://www.w3.org/2000/svg"
   xmlns:sodipodi="http://sodipodi.sourceforge.net/DTD/sodipodi-0.dtd"
   xmlns:inkscape="http://www.inkscape.org/namespaces/inkscape"
   width="210mm"
   height="297mm"
   viewBox="0 0 210 297"
   version="1.1"
   id="svg8"
   sodipodi:docname="beer_fill_2_little.svg"
   inkscape:version="1.0.1 (c497b03c, 2020-09-10)">
  <defs
     id="defs2">
    <marker
       style="overflow:visible"
       id="Arrow1Lstart"
       refX="0.0"
       refY="0.0"
       orient="auto"
       inkscape:stockid="Arrow1Lstart"
       inkscape:isstock="true">
      <path
         transform="scale(0.8) translate(12.5,0)"
         style="fill-rule:evenodd;stroke:#1a1a1a;stroke-width:1pt;stroke-opacity:1;fill:#f6f2e0;fill-opacity:1"
         d="M 0.0,0.0 L 5.0,-5.0 L -12.5,0.0 L 5.0,5.0 L 0.0,0.0 z "
         id="path997" />
    </marker>
  </defs>
  <sodipodi:namedview
     id="base"
     pagecolor="#ffffff"
     bordercolor="#666666"
     borderopacity="1.0"
     inkscape:pageopacity="0.0"
     inkscape:pageshadow="2"
     inkscape:zoom="0.59262035"
     inkscape:cx="501.26701"
     inkscape:cy="669.95696"
     inkscape:document-units="mm"
     inkscape:current-layer="layer1"
     inkscape:document-rotation="0"
     showgrid="false"
     inkscape:window-width="1248"
     inkscape:window-height="798"
     inkscape:window-x="74"
     inkscape:window-y="23"
     inkscape:window-maximized="0" />
  <metadata
     id="metadata5">
    <rdf:RDF>
      <cc:Work
         rdf:about="">
        <dc:format>image/svg+xml</dc:format>
        <dc:type
           rdf:resource="http://purl.org/dc/dcmitype/StillImage" />
        <dc:title></dc:title>
      </cc:Work>
    </rdf:RDF>
  </metadata>
  <g
     inkscape:label="Ebene 1"
     inkscape:groupmode="layer"
     id="layer1">
    <path
       id="Auswahl-5"
       fill="none"
       stroke="#000000"
       stroke-width="0.373909"
       d="m 121.09451,224.73439 c 2.52607,-0.0397 9.20596,-0.13532 11.55015,-0.27661 6.87888,-0.41458 8.66459,-1.22287 13.39587,-2.17017 1.26505,-0.25653 4.01603,-1.22373 6.18225,-2.48736 1.35134,-0.7883 3.4514,-2.16278 3.4514,-2.16278 0.59098,-4.28224 -4.6456,-0.0353 -11.48451,1.72418 -11.67841,2.09459 -10.76419,1.91561 -18.73502,2.13729 -7.99181,-0.48214 -10.24505,-0.26878 -10.393,0.80075 -0.10997,0.79501 -0.37737,2.49735 6.03286,2.4347 z"
       style="fill:#1a1a1a"
       sodipodi:nodetypes="cscscccsc" />
    <path
       style="fill:#ffffff;stroke:#ffffff;stroke-width:1.416;stroke-linejoin:bevel;stroke-miterlimit:4;stroke-dasharray:none;stroke-opacity:0.00709223;paint-order:fill markers stroke"
       id="path1563"
       d="m 78.853496,99.466751 c -0.163186,3.587759 0.605989,9.042409 1.007716,12.344589 0.11565,0.95064 0.288875,1.89338 0.433314,2.84006 0.302265,1.13785 0.572296,2.28476 0.906796,3.41355 0.821499,2.77223 1.916689,5.7285 2.802289,8.46558 1.387713,4.28895 2.551499,8.63472 3.745217,12.97983 1.923229,6.46761 3.38411,13.04171 4.58666,19.676 0.789181,4.05783 1.201724,8.17468 1.600116,12.28525 0.69986,1.48273 5.33608,0.30952 5.22992,-2.74102 v 0 c -0.54808,-4.07624 -1.09439,-8.15503 -1.85968,-12.19753 -1.35338,-6.58235 -2.99192,-13.09674 -4.98939,-19.51598 -1.804749,-5.82686 -3.665485,-11.63136 -5.295582,-17.51101 -0.368562,-1.32938 -0.756513,-2.65438 -1.071505,-3.99746 -0.269518,-1.14918 -0.454006,-2.31665 -0.681011,-3.47498 -0.494223,-4.34327 -0.760122,-8.87409 -1.243634,-12.777334 -0.543993,-1.117887 -1.828982,-1.474388 -3.017468,-1.46033 -0.888492,0.01051 -1.72305,-0.116446 -2.153758,1.670785 z"
       sodipodi:nodetypes="cscssccccsccssccsc" />
    <path
       style="fill:#ffffff;fill-opacity:0.992933;stroke:none;stroke-width:0.264583px;stroke-linecap:butt;stroke-linejoin:miter;stroke-opacity:1"
       d="m 80.854345,88.961445 c -0.522845,0 -1.520796,0.146112 -1.998475,0.687482 -0.51585,0.584628 -0.83118,1.86562 -0.71089,2.539246 0.272649,2.466773 3.11639,3.033874 4.490908,2.184996 0.911948,-0.668761 1.35035,-1.627901 1.231382,-2.639139 -0.188735,-0.97934 -0.376002,-1.495874 -1.174425,-1.998477 -0.326194,-0.203872 -1.415637,-0.668388 -1.8385,-0.774105 z"
       id="path1645"
       sodipodi:nodetypes="ssccccss" />
    <path
       style="fill:#f6f2e0;fill-opacity:1;stroke:none;stroke-width:0.327915"
       d="m 113.42891,227.93534 c -9.66789,-0.71677 -17.998582,-3.28488 -21.523426,-6.63506 -2.741488,-2.60564 -2.847767,-3.10512 -2.854403,-13.41507 -0.01213,-18.83204 -0.84757,-36.85549 -2.174544,-46.91221 -1.130472,-8.56749 -2.163451,-12.79334 -5.807552,-23.75837 -3.16129,-9.51224 -4.048029,-15.21486 -4.762176,-19.85686 -0.652197,-4.23932 1.29081,21.19569 1.831377,20.66705 0.2245,-0.21955 1.217605,0.10758 3.026003,0.99676 7.528894,3.70194 15.775407,5.77346 29.231681,7.34299 5.99063,0.69873 24.05094,0.98656 30.84176,0.49152 29.15639,-1.41209 26.79347,-3.63771 22.61984,5.87931 -0.62489,3.54798 -1.03624,12.45879 -1.85819,40.25282 -0.36791,12.44066 -0.82278,23.04217 -1.0296,23.99649 -0.55524,2.56196 -1.3801,3.88544 -3.34606,5.3687 -3.49061,2.63358 -8.36395,4.16546 -16.23296,5.10271 -5.11624,0.60936 -22.24639,0.90294 -27.96175,0.47922 z"
       id="path2302"
       sodipodi:nodetypes="sssssssssccsssss" />
    <path
       style="fill:#f9c212;fill-opacity:0.985866;stroke:none;stroke-width:0.414171"
       d="m 113.18025,231.0427 c -3.97255,0 -11.32117,-1.83721 -14.508476,-3.00043 -4.4334,-1.61799 -7.093798,-3.61052 -8.447304,-6.32664 l -1.06613,-2.13944 0.363544,-13.43913 c 1.096437,-13.11294 -2.508649,-25.34554 -0.396945,-29.47746 1.570635,-3.07323 6.717714,-0.25788 17.112911,2.52578 4.91595,0.55488 11.12092,0.12956 17.31739,0.14249 9.88828,0.0206 19.66421,0.21907 28.54947,-1.46021 11.83568,-3.87023 10.19145,-4.42088 10.2589,11.59787 -0.88552,33.41238 -0.052,31.00411 -3.51333,34.12227 -5.04966,4.54899 -15.31704,7.17483 -33.96733,7.03889 -5.35316,-0.039 -10.67434,0.41601 -11.70264,0.41601 z"
       id="path157-1"
       sodipodi:nodetypes="sssccscsccssss" />
    <path
       style="fill:#ffffff;fill-opacity:1;stroke:#ffffff;stroke-width:0.292238px;stroke-linecap:butt;stroke-linejoin:miter;stroke-opacity:1"
       d="m 167.58476,89.109342 c -0.17061,0.208134 -0.41719,1.060568 -0.34943,1.349917 0.1162,0.496153 0.644,0.843184 1.04829,0.781531 0.18274,-0.02785 0.3709,-0.08852 0.52414,-0.213142 0.24423,-0.198644 0.50438,-1.445064 0.23295,-1.77621 -0.51885,-0.544669 -0.84271,-0.429343 -1.45595,-0.142096 z"
       id="path2367"
       sodipodi:nodetypes="cssscc" />
    <path
       style="fill:#ffffff;fill-opacity:1;stroke:#ffffff;stroke-width:0.665;stroke-linecap:butt;stroke-linejoin:miter;stroke-miterlimit:4;stroke-dasharray:none;stroke-opacity:1"
       d="m 173.66798,95.471894 c -0.19412,0.01942 -0.41622,-0.04401 -0.58237,0.05824 -0.12592,0.07748 -0.15041,0.261834 -0.17472,0.407665 -0.0163,0.09764 0.0235,0.198506 0.0582,0.291189 0.42047,0.354829 0.96872,0.522816 1.223,2e-6 0.15739,-0.533167 -0.14323,-0.750357 -0.52415,-0.757096 z"
       id="path2369"
       sodipodi:nodetypes="cssccc" />
    <path
       style="fill:#ffffff;fill-opacity:0.992933;stroke:none;stroke-width:0.0830993;stroke-linecap:butt;stroke-linejoin:miter;stroke-miterlimit:4;stroke-dasharray:none;stroke-opacity:1"
       d="m 92.818356,181.66944 c -0.267184,0 -0.777153,0.0725 -1.021255,0.34123 -0.263608,0.29019 -0.424746,0.92601 -0.363276,1.26036 0.139328,1.22439 1.592525,1.50587 2.294923,1.08453 0.466026,-0.33194 0.690054,-0.80801 0.629258,-1.30994 -0.09644,-0.4861 -0.192142,-0.74248 -0.600146,-0.99195 -0.166696,-0.1012 -0.723414,-0.33176 -0.939504,-0.38423 z"
       id="path1645-3"
       sodipodi:nodetypes="ssccccss" />
    <path
       style="fill:#ffffff;fill-opacity:1;stroke:#ffffff;stroke-width:1.465;stroke-linecap:butt;stroke-linejoin:miter;stroke-miterlimit:4;stroke-dasharray:none;stroke-opacity:1"
       d="m 163.5068,99.661019 c -1.7202,2.189351 0.76257,3.259891 1.65491,2.546021 0.23008,-0.18406 0.22321,-1.62177 0.1273,-1.90951 -0.39267,-0.426241 -1.34719,-1.135441 -1.78221,-0.636511 z"
       id="path2359-6"
       sodipodi:nodetypes="cscc" />
    <path
       style="fill:#ffffff;fill-opacity:1;stroke:#ffffff;stroke-width:0.6;stroke-linecap:butt;stroke-linejoin:miter;stroke-miterlimit:4;stroke-dasharray:none;stroke-opacity:1"
       d="m 157.66226,214.13232 c -0.17061,0.20814 -0.41719,1.06057 -0.34943,1.34992 0.1162,0.49615 0.64401,0.84318 1.0483,0.78153 0.18274,-0.0279 0.3709,-0.0885 0.52414,-0.21314 0.24423,-0.19865 0.50438,-1.44507 0.23295,-1.77621 -0.51885,-0.54467 -0.84271,-0.42934 -1.45596,-0.1421 z"
       id="path2367-6"
       sodipodi:nodetypes="cssscc" />
    <path
       style="fill:#ffffff;fill-opacity:1;stroke:#ffffff;stroke-width:1.2;stroke-linecap:butt;stroke-linejoin:miter;stroke-miterlimit:4;stroke-dasharray:none;stroke-opacity:1"
       d="m 152.10375,222.08239 c -0.19412,0.0194 -0.41622,-0.044 -0.58237,0.0582 -0.12592,0.0775 -0.15041,0.26183 -0.17472,0.40766 -0.0163,0.0976 0.0235,0.19851 0.0582,0.29119 0.42047,0.35483 0.96872,0.52282 1.223,0 0.15739,-0.53316 -0.14323,-0.75036 -0.52415,-0.75709 z"
       id="path2369-92"
       sodipodi:nodetypes="cssccc" />
    <path
       style="fill:#ffffff;fill-opacity:1;stroke:#ffffff;stroke-width:1.3;stroke-linecap:butt;stroke-linejoin:miter;stroke-miterlimit:4;stroke-dasharray:none;stroke-opacity:1"
       d="m 154.0905,209.56222 c -1.7202,2.18935 0.76257,3.25989 1.65491,2.54602 0.23008,-0.18406 0.22321,-1.62178 0.1273,-1.90952 -0.39267,-0.42624 -1.34719,-1.13544 -1.78221,-0.6365 z"
       id="path2359-3"
       sodipodi:nodetypes="cscc" />
    <path
       style="fill:#ffffff;fill-opacity:1;stroke:#ffffff;stroke-width:0.265;stroke-linecap:butt;stroke-linejoin:miter;stroke-miterlimit:4;stroke-dasharray:none;stroke-opacity:1"
       d="m 94.896423,186.09692 c -0.19412,0.0194 -0.41622,-0.044 -0.58237,0.0582 -0.12592,0.0775 -0.15041,0.26183 -0.17472,0.40766 -0.0163,0.0976 0.0235,0.19851 0.0582,0.29119 0.42047,0.35483 0.96872,0.52282 1.223,0 0.15739,-0.53316 -0.14323,-0.75035 -0.52415,-0.75709 z"
       id="path2369-9"
       sodipodi:nodetypes="cssccc"
       inkscape:transform-center-x="-48.803571"
       inkscape:transform-center-y="-32.189869" />
    <path
       style="opacity:1;mix-blend-mode:normal;fill:#f6f2e0;fill-opacity:1;fill-rule:nonzero;stroke:#1a1a1a;stroke-width:2.22;stroke-linejoin:bevel;stroke-miterlimit:4;stroke-dasharray:none;stroke-dashoffset:0;stroke-opacity:1;paint-order:markers fill stroke"
       d="m 108.33581,151.54025 c -4.59704,-0.70949 -14.130647,-1.72405 -17.425348,-2.64771 -12.411799,-5.37307 -12.765271,-8.76058 1.147173,-13.20598 2.472071,0.54586 4.620021,-1.45347 7.416612,-1.92499 2.870283,-0.48394 4.969033,-1.08933 7.735253,-1.87063 2.98242,-0.84237 6.30245,1.66209 9.84615,-0.31296 4.5205,-2.51947 8.73866,-3.14264 12.58901,-1.31191 3.47488,1.65222 8.33519,1.03046 11.72588,2.68105 4.24861,2.06821 7.53165,0.56907 10.52771,-0.13198 4.94329,-1.15668 8.28195,4.34751 13.6152,3.8786 7.71605,8.73153 -2.31515,12.31281 -14.54354,13.16372 -8.62739,1.34524 -34.46999,2.9428 -42.6341,1.68279 z"
       id="path155"
       sodipodi:nodetypes="sccssssssccs" />
    <path
       style="fill:#000000;fill-opacity:1;stroke:#000000;stroke-width:0.172032px;stroke-linecap:butt;stroke-linejoin:miter;stroke-opacity:1"
       d="m 155.18938,139.01484 c -2.00855,-2.17131 -4.21133,-0.37055 -6.36969,-0.58346 -2.06675,-0.20387 -2.58319,-1.66428 -4.73177,-1.75039 -0.48814,-0.0196 -0.99944,0.004 -1.45594,0.11669 -0.61732,0.15224 -2.82281,1.45741 -2.00191,1.98378 0.26593,0.17051 3.05953,-0.68122 3.82183,-0.58346 1.16821,0.14981 1.38917,1.26935 2.54787,1.517 2.02267,0.43231 2.36611,-0.14006 4.00382,-0.35008 0.90798,-0.11644 1.14076,0.0888 1.81991,0.35008 0.39924,0.15359 0.65714,0.11669 1.09194,0.11669 0.93045,0 1.04645,-0.23337 1.27394,-0.81685 z"
       id="path2319" />
    <path
       style="fill:#000000;fill-opacity:1;stroke:#000000;stroke-width:0.164814px;stroke-linecap:butt;stroke-linejoin:miter;stroke-opacity:1"
       d="m 105.52664,136.21745 c -2.53972,-1.23029 -4.18955,1.46181 -6.137983,2.0571 -1.865721,0.57002 -2.446538,-0.82179 -4.339816,-0.1154 -0.430128,0.16049 -0.864407,0.36854 -1.218474,0.63695 -0.478799,0.36298 -1.820373,3.3517 -0.915319,3.52804 0.293184,0.0571 2.289089,-3.08598 2.985545,-3.27582 1.067316,-0.29093 1.661123,0.48532 2.756227,0.28633 1.91164,-0.34737 2.0083,-0.83485 3.34992,-1.62254 0.7438,-0.4367 1.00136,-0.64696 1.68598,-0.65859 0.40246,-0.007 0.74387,0.13043 1.1206,-0.0283 0.80615,-0.33962 0.73105,-0.19715 0.71332,-0.80779 z"
       id="path2319-9"
       sodipodi:nodetypes="csscsssssscc" />
    <path
       style="fill:#000000;fill-opacity:1;stroke:#000000;stroke-width:0.160434px;stroke-linecap:butt;stroke-linejoin:miter;stroke-opacity:1"
       d="m 164.4277,65.751386 c -0.73313,0 -0.46652,1.169648 0,1.254985 0.66033,0.120794 0.99478,-0.181789 1.12996,-0.738227 -0.107,-0.492366 -0.70582,-0.516758 -1.12996,-0.516758 z"
       id="path2357-9"
       sodipodi:nodetypes="cscc" />
    <path
       style="fill:#000000;fill-opacity:1;stroke:#000000;stroke-width:0.173817px;stroke-linecap:butt;stroke-linejoin:miter;stroke-opacity:1"
       d="m 118.00233,139.25799 c -2.38086,-1.77698 -4.09751,0.54348 -6.20245,0.79854 -2.01561,0.24423 -2.8207,-1.1336 -4.88921,-0.75123 -0.46994,0.0869 -0.95273,0.22297 -1.36422,0.4378 -0.55645,0.29053 -2.3817,2.10565 -1.48585,2.46332 0.2902,0.11586 2.77356,-1.36509 3.52181,-1.43214 1.1467,-0.10275 1.59697,0.99177 2.75552,0.99098 2.0224,-0.001 2.22767,-0.66086 3.74538,-1.23372 0.84145,-0.3176 1.10745,-0.15903 1.81134,-0.041 0.41378,0.0694 0.65196,-0.0247 1.06684,-0.11987 0.88779,-0.20365 0.94856,-0.46728 1.04084,-1.11272 z"
       id="path2319-8"
       inkscape:transform-center-x="-3.7835434"
       inkscape:transform-center-y="-1.4806031" />
    <path
       style="fill:#ffffff;fill-opacity:1;stroke:#ffffff;stroke-width:1.3;stroke-linecap:butt;stroke-linejoin:miter;stroke-miterlimit:4;stroke-dasharray:none;stroke-opacity:1"
       d="m 155.83762,156.43401 c -1.7202,2.18935 0.76257,3.25989 1.65491,2.54602 0.23008,-0.18406 0.22321,-1.62178 0.1273,-1.90952 -0.39267,-0.42624 -1.34719,-1.13544 -1.78221,-0.6365 z"
       id="path2359-3-1"
       sodipodi:nodetypes="cscc" />
    <path
       style="fill:#ffffff;fill-opacity:1;stroke:#ffffff;stroke-width:1.3;stroke-linecap:butt;stroke-linejoin:miter;stroke-miterlimit:4;stroke-dasharray:none;stroke-opacity:1"
       d="m 146.70845,161.50577 c -1.7202,2.18935 0.76257,3.25989 1.65491,2.54602 0.23008,-0.18406 0.22321,-1.62178 0.1273,-1.90952 -0.39267,-0.42624 -1.34719,-1.13544 -1.78221,-0.6365 z"
       id="path2359-3-4"
       sodipodi:nodetypes="cscc" />
    <path
       style="fill:#ffffff;fill-opacity:1;stroke:#ffffff;stroke-width:0.600001;stroke-linecap:butt;stroke-linejoin:miter;stroke-miterlimit:4;stroke-dasharray:none;stroke-opacity:1"
       d="m 153.32596,163.88317 c -0.17061,0.20814 -0.41719,1.06057 -0.34943,1.34992 0.1162,0.49615 0.64401,0.84318 1.0483,0.78153 0.18274,-0.0279 0.3709,-0.0885 0.52414,-0.21314 0.24423,-0.19865 0.50438,-1.44507 0.23295,-1.77621 -0.51885,-0.54467 -0.84271,-0.42934 -1.45596,-0.1421 z"
       id="path2367-6-4"
       sodipodi:nodetypes="cssscc" />
    <path
       style="fill:#ffffff;fill-opacity:1;stroke:#ffffff;stroke-width:0.600001;stroke-linecap:butt;stroke-linejoin:miter;stroke-miterlimit:4;stroke-dasharray:none;stroke-opacity:1"
       d="m 101.39469,156.15397 c -0.17061,0.20814 -0.41719,1.06057 -0.34943,1.34992 0.1162,0.49615 0.64401,0.84318 1.0483,0.78153 0.18275,-0.0279 0.37091,-0.0885 0.52415,-0.21314 0.24423,-0.19865 0.50438,-1.44507 0.23295,-1.77621 -0.51885,-0.54467 -0.84272,-0.42934 -1.45597,-0.1421 z"
       id="path2367-6-7"
       sodipodi:nodetypes="cssscc" />
    <path
       style="fill:#ffffff;fill-opacity:1;stroke:#000000;stroke-width:1.2;stroke-linecap:butt;stroke-linejoin:miter;stroke-miterlimit:4;stroke-dasharray:none;stroke-opacity:1"
       d="m 160.87181,142.42715 c -0.19412,0.0194 -0.41622,-0.044 -0.58237,0.0582 -0.12592,0.0775 -0.15041,0.26183 -0.17472,0.40766 -0.0163,0.0976 0.0235,0.19851 0.0582,0.29119 0.42047,0.35483 0.96872,0.52282 1.223,0 0.15739,-0.53316 -0.14323,-0.75036 -0.52415,-0.75709 z"
       id="path2369-92-3"
       sodipodi:nodetypes="cssccc" />
  </g>
  <g
     inkscape:groupmode="layer"
     id="layer3"
     inkscape:label="Ebene 3">
    <path
       style="fill:#ffffff;fill-opacity:0.992933;stroke:none;stroke-width:0.0830993;stroke-linecap:butt;stroke-linejoin:miter;stroke-miterlimit:4;stroke-dasharray:none;stroke-opacity:1"
       d="m 92.830252,181.68896 c -0.267177,0 -0.777144,0.0725 -1.021244,0.34123 -0.26361,0.29019 -0.424747,0.92601 -0.363277,1.26035 0.139327,1.2244 1.592521,1.50588 2.294915,1.08453 0.466017,-0.33193 0.690047,-0.808 0.629247,-1.30993 -0.0964,-0.48611 -0.192137,-0.74248 -0.600137,-0.99195 -0.166697,-0.1012 -0.723414,-0.33177 -0.939504,-0.38423 z"
       id="path1645-3-3"
       sodipodi:nodetypes="ssccccss" />
    <path
       style="fill:#ffffff;fill-opacity:1;stroke:#ffffff;stroke-width:0.264999;stroke-linecap:butt;stroke-linejoin:miter;stroke-miterlimit:4;stroke-dasharray:none;stroke-opacity:1"
       d="m 94.90831,186.11643 c -0.19412,0.0194 -0.416217,-0.044 -0.582367,0.0582 -0.12592,0.0775 -0.150407,0.26183 -0.174717,0.40766 -0.0163,0.0976 0.0235,0.19852 0.0582,0.29119 0.42047,0.35483 0.968724,0.52283 1.223001,0 0.15739,-0.53316 -0.14323,-0.75035 -0.524147,-0.75709 z"
       id="path2369-9-0"
       sodipodi:nodetypes="cssccc"
       inkscape:transform-center-x="-48.803571"
       inkscape:transform-center-y="-32.189869" />
  </g>
  <g
     inkscape:groupmode="layer"
     id="layer2"
     inkscape:label="Ebene 2"
     style="display:inline">
    <path
       id="Auswahl #2-0-9"
       fill="none"
       stroke="#000000"
       stroke-width="0.220689"
       d="m 116.80297,36.250547 c -1.07462,0.218078 -1.36571,0.180248 -2.4075,0.191375 l -2.18864,0.202501 -4.15841,0.280386 c -9.028117,0.88789 -19.603607,2.650319 -28.014534,6.103966 -3.893583,1.599982 -9.220722,4.366015 -10.842502,8.545107 -0.601875,1.551026 -0.555914,2.608038 -0.538404,4.228048 l 0.218863,3.337932 v 8.456097 l 0.218864,3.560464 v 3.337927 l 0.218863,3.337933 v 6.230806 l 0.218864,3.560468 v 7.788508 l 0.218864,3.560461 v 3.782984 l 0.218863,3.11541 v 5.56322 c 0.0066,3.86756 0.903907,9.35067 1.831888,13.12921 l 3.352991,11.34897 c 2.335274,6.67364 3.860753,9.85358 5.320573,17.13472 l 2.151429,15.13196 0.293277,4.22805 0.420219,5.56322 0.199165,2.67034 0.218864,5.11817 0.218863,3.56046 v 3.11541 l 0.218864,3.33792 v 16.9122 l -0.218864,3.78299 c -0.0044,2.96186 0.0066,5.27171 1.372275,8.01103 1.899736,3.80748 5.756112,6.32205 9.570907,7.8308 6.640318,2.62361 13.932848,3.65837 21.010898,3.97213 l 2.4075,0.21363 c 11.25178,0.13353 25.50198,0.39166 36.11249,-3.54933 7.07805,-2.63029 12.21697,-6.68031 12.25637,-14.92055 l 0.21886,-14.68692 0.21886,-3.78298 0.43773,-24.92324 0.21887,-3.56045 v -4.67311 l 0.2101,-2.67035 v -2.67035 c 0.0175,-6.17072 2.37467,-14.55339 4.24158,-20.47264 1.88004,-5.95265 4.51296,-11.63381 5.73641,-17.80231 1.56269,-7.8842 2.6395,-15.79288 3.18228,-23.810594 l 0.43773,-6.230805 0.19917,-2.225294 0.21885,-6.008278 0.21887,-3.56046 v -4.895636 l 0.21886,-3.782986 V 59.139862 l -0.21886,-3.337932 c -0.0197,-1.77133 0.12038,-2.979662 -0.6347,-4.673106 -2.30464,-5.169343 -10.34787,-8.115625 -15.34234,-9.791268 -6.73662,-2.260893 -15.46272,-3.544885 -22.54295,-4.265878 l -8.09796,-0.649784 -2.18863,-0.171347 h -10.28659 z m 3.28295,4.450576 h 8.53568 l 3.50182,0.191375 h 2.84522 l 2.18864,0.202501 5.03386,0.427256 c 7.9163,0.769949 14.88054,1.893721 22.54295,4.172417 3.36175,0.999153 7.21156,2.476744 10.06773,4.552938 1.19937,0.872313 2.68764,2.187459 2.82115,3.77409 0.14883,1.757977 -0.92141,2.877297 -2.16456,3.934309 -2.18864,1.855891 -5.82396,3.380213 -8.53568,4.299258 -9.27325,3.14433 -18.31451,4.459476 -28.01454,5.138191 l -7.00364,0.425031 -3.72067,0.222526 c -12.87137,0.02006 -30.268837,-1.074812 -42.459541,-5.191596 -3.011563,-1.019182 -7.082426,-2.54573 -9.629997,-4.441676 -1.18843,-0.883439 -2.562893,-2.142953 -2.764248,-3.718457 -0.188222,-1.473141 0.879832,-2.828342 1.888793,-3.742935 2.013545,-1.822511 5.745169,-3.462548 8.316816,-4.341537 8.572887,-2.93293 16.850307,-4.35934 25.825897,-5.229428 l 5.03387,-0.280387 2.62636,-0.202501 c 1.28691,-0.0022 1.75748,0.03116 3.06409,-0.191375 z m 57.07306,22.014776 c 0.78135,0.449512 0.69379,0.907921 0.70693,1.764652 v 6.453338 c -4.19677,2.454738 -2.22262,1.259764 -4.19677,2.454738 -3.16914,1.915978 -7.80249,3.478131 -11.38091,4.490633 -7.23344,2.042816 -15.92889,3.335711 -23.4184,3.876456 h -1.96977 l -5.90932,0.445055 H 119.8287 l -2.62637,-0.213624 h -2.62636 l -2.62636,-0.211403 c -5.79332,-0.405008 -11.58008,-0.994708 -17.290218,-2.156309 -5.736419,-1.166048 -10.849073,-2.425559 -16.19591,-4.915659 -1.549555,-0.72322 -4.205405,-3.088947 -4.995503,-4.66 -0.312975,-0.627537 0.0088,0.738796 0,0 v -5.785747 c 0.05253,-2.803867 1.654608,-0.919044 5.252725,0.69874 5.322763,2.392186 12.197268,4.19689 17.946808,5.178243 5.465028,0.934625 10.895038,1.546574 16.414778,1.931551 l 2.40749,0.202504 3.93955,0.222522 h 11.59977 l 2.62636,-0.213622 h 2.4075 l 2.18864,-0.211404 c 4.88285,-0.347142 9.83572,-0.78775 14.66386,-1.671191 5.79113,-1.063691 11.07012,-2.274247 16.63364,-4.288131 1.4817,-0.536297 3.21947,-1.332947 4.59613,-2.102898 0.93892,-0.525171 1.92162,-1.283991 3.01375,-1.288444 z m -0.1926,12.784286 c 1.12934,0.151315 0.84262,0.990253 0.7113,1.887043 v 5.563222 l -0.24074,2.225286 v 2.225291 l -0.22762,3.782986 -0.40052,4.895638 -0.29328,4.673109 -0.39614,3.78298 c -0.42898,6.45334 -2.24992,16.96116 -4.1015,23.14301 l -2.97436,8.23357 c -1.78812,5.11149 -3.37925,10.49222 -4.48233,15.79954 -1.0396,5.00022 -1.13152,9.186 -1.14027,14.24186 l -0.21887,3.78298 v 6.45333 l -0.21887,3.783 v 5.56322 l -0.21886,3.78299 v 5.3407 l -0.21886,3.78298 -0.21886,14.68691 -0.21887,4.89564 c -0.0109,7.30561 -6.70598,10.13173 -12.69409,11.65383 -4.41448,1.12377 -8.82677,1.62446 -13.35068,1.94045 l -2.18863,0.21139 h -2.62637 l -2.62636,0.21363 h -5.90932 l -3.50181,-0.22252 c -3.35737,-0.004 -8.27524,-0.43838 -11.59977,-0.98135 l -3.72069,-0.66536 c -6.307649,-1.28177 -15.307312,-3.95211 -15.320444,-11.92755 v -11.12644 l 0.218863,-4.67311 -0.218863,-3.33793 v -7.34345 l -0.218864,-3.33793 v -2.89288 l -0.218864,-2.89287 v -0.89012 l -0.218863,-3.33793 -0.418029,-6.00828 c -0.534027,-7.75068 -1.514537,-15.55922 -3.22605,-23.14301 -1.194995,-5.29396 -2.188635,-7.21661 -3.797283,-12.01654 -2.396556,-7.15431 -5.898374,-17.91135 -5.909317,-25.36831 v -2.22528 l -0.218863,-3.78299 -0.218864,-14.241846 -0.218863,-3.337931 v -5.785752 l -0.218864,-3.337933 v -1.335175 c 0.0022,-0.785524 -0.115998,-2.258666 1.098695,-2.038363 0.468368,0.08456 1.875661,1.012508 2.403123,1.301795 1.512347,0.834485 2.994053,1.48427 4.596134,2.114026 4.712133,1.849215 10.334739,3.242247 15.320447,4.094528 6.077849,1.036987 14.245839,2.085096 20.354319,2.093997 l 3.72068,0.22253 h 9.19227 l 2.62636,-0.213629 h 2.4075 l 2.4075,-0.222531 c 7.79155,-0.344916 15.60279,-1.48649 23.19954,-3.320129 3.43397,-0.830032 7.52235,-2.165202 10.72432,-3.656148 z"
       style="fill:#1a1a1a;stroke:#1a1a1a;stroke-width:0.121;stroke-miterlimit:4;stroke-dasharray:none;stroke-opacity:1"
       sodipodi:nodetypes="ccccccccccccccccccccccccccccccccccccccccccccccccccccccccccccccccccccccccccccccccccccccccccccccccccccccccccccccccccccccccccccccccccccccccccccccccccccccccccccccccccccccccccccccccccccc" />
  </g>
</svg>
