<?xml version="1.0" encoding="UTF-8" standalone="no"?>
<svg
   xmlns:dc="http://purl.org/dc/elements/1.1/"
   xmlns:cc="http://creativecommons.org/ns#"
   xmlns:rdf="http://www.w3.org/1999/02/22-rdf-syntax-ns#"
   xmlns:svg="http://www.w3.org/2000/svg"
   xmlns="http://www.w3.org/2000/svg"
   xmlns:sodipodi="http://sodipodi.sourceforge.net/DTD/sodipodi-0.dtd"
   xmlns:inkscape="http://www.inkscape.org/namespaces/inkscape"
   width="113.64676mm"
   height="187.80124mm"
   viewBox="0 0 113.64676 187.80123"
   version="1.1"
   id="svg8"
   sodipodi:docname="shot_2.svg"
   inkscape:version="1.0.1 (c497b03c, 2020-09-10)">
  <defs
     id="defs2" />
  <sodipodi:namedview
     id="base"
     pagecolor="#ffffff"
     bordercolor="#666666"
     borderopacity="1.0"
     inkscape:pageopacity="0.0"
     inkscape:pageshadow="2"
     inkscape:zoom="3.1927044"
     inkscape:cx="378.14294"
     inkscape:cy="574.60012"
     inkscape:document-units="mm"
     inkscape:current-layer="layer1"
     inkscape:document-rotation="0"
     showgrid="false"
     inkscape:window-width="1406"
     inkscape:window-height="1023"
     inkscape:window-x="825"
     inkscape:window-y="85"
     inkscape:window-maximized="0"
     inkscape:snap-global="false"
     fit-margin-top="0"
     fit-margin-left="0"
     fit-margin-right="0"
     fit-margin-bottom="0" />
  <metadata
     id="metadata5">
    <rdf:RDF>
      <cc:Work
         rdf:about="">
        <dc:format>image/svg+xml</dc:format>
        <dc:type
           rdf:resource="http://purl.org/dc/dcmitype/StillImage" />
        <dc:title></dc:title>
      </cc:Work>
    </rdf:RDF>
  </metadata>
  <g
     inkscape:label="Ebene 1"
     inkscape:groupmode="layer"
     id="layer1"
     transform="translate(-68.815285,-45.062546)">
    <path
       style="fill:#f5f5f5;fill-opacity:1;stroke:none;stroke-width:0.198076"
       d="m 117.04077,228.09943 c -0.926,-0.0892 -2.75325,-0.26087 -4.06056,-0.38151 -4.09018,-0.37744 -7.84657,-1.27746 -9.31789,-2.23251 -0.37484,-0.24331 -0.80684,-0.76146 -0.96799,-1.16104 -0.33217,-0.82359 -1.14784,-8.59635 -2.8759,-27.40512 -2.45977,-26.77317 -3.7647,-42.11308 -3.77101,-44.32956 -0.002,-0.88695 0.0406,-0.96898 0.64104,-1.21856 2.02123,-0.84022 9.13114,-1.72589 16.88408,-2.10325 7.26922,-0.35381 25.69801,-0.1283 31.19887,0.38176 7.21066,0.66861 11.27792,1.42697 11.66166,2.1744 0.19581,0.38139 0.11432,1.63681 -0.8572,13.205 -1.94757,23.19052 -5.03065,56.27811 -5.45248,58.51605 -0.11135,0.59074 -0.35833,1.24983 -0.54886,1.46465 -1.31233,1.47965 -7.52312,2.75029 -15.20211,3.1101 -4.70776,0.22059 -14.95495,0.20852 -17.33165,-0.0204 z m 17.13358,-2.3633 c 6.27442,-0.4474 12.09976,-1.51721 12.86484,-2.3626 0.45487,-0.50264 0.45672,-1.30035 0.004,-1.80042 -0.47327,-0.52295 -1.35467,-0.50152 -4.64885,0.11305 -5.39464,1.00643 -14.03986,1.60366 -19.8076,1.36835 -3.16481,-0.12913 -3.2855,-0.11964 -3.81297,0.2997 -0.85819,0.68226 -0.69595,1.78416 0.34664,2.35441 0.51177,0.27992 11.23899,0.29952 15.05377,0.0275 z m 2.07892,-68.93334 c 4.68745,-0.20925 14.23993,-1.04197 15.97777,-1.39283 1.11038,-0.22419 2.04802,-0.92743 2.04802,-1.53602 0,-0.2084 -0.19292,-0.62416 -0.42872,-0.92393 -0.41922,-0.53295 -0.46423,-0.54271 -2.03027,-0.44045 -0.88086,0.0575 -2.58204,0.24027 -3.7804,0.40611 -3.51148,0.48596 -6.67386,0.69308 -14.44397,0.94599 -12.12133,0.39454 -24.56171,-0.16319 -33.38783,-1.49685 -1.39873,-0.21135 -2.38871,1.46057 -1.39652,2.35848 0.80321,0.7269 11.95766,1.95561 19.51692,2.14988 5.46383,0.14041 13.94925,0.1071 17.925,-0.0704 z"
       id="path34-2-1"
       sodipodi:nodetypes="sssssccssssssssssscssssssssssssssssss" />
    <path
       style="fill:#00f9be;fill-opacity:1;stroke:none;stroke-width:0.107564"
       d="m 123.42093,211.709 c -3.88294,-0.0652 -8.15783,-0.23573 -8.32136,-0.33193 -0.0725,-0.0426 -0.42069,-0.0776 -0.77369,-0.0776 -0.35299,0 -1.29305,-0.0599 -2.08901,-0.1332 -0.79596,-0.0733 -1.75752,-0.14469 -2.1368,-0.15873 -0.37928,-0.014 -0.7102,-0.0626 -0.73539,-0.10802 -0.0251,-0.0454 -0.16771,-0.0633 -0.31673,-0.0399 -0.14903,0.0234 -0.2711,0.01 -0.27127,-0.0297 -1.3e-4,-0.0398 -0.20041,-0.0766 -0.44496,-0.082 -0.24455,-0.005 -0.46707,-0.0501 -0.49447,-0.0995 -0.0274,-0.0494 -0.13948,-0.0691 -0.24907,-0.0438 -0.10958,0.0253 -0.19923,0.002 -0.19923,-0.0513 0,-0.0534 -0.0599,-0.075 -0.13317,-0.0478 -0.2796,0.10377 -1.29177,-0.35617 -1.64625,-0.74808 -0.23042,-0.25475 -0.25625,-0.31058 -0.34703,-0.75019 -0.0284,-0.13753 -0.12473,-0.56888 -0.21407,-0.95856 -0.18398,-0.80247 -1.45556,-7.41732 -1.68245,-8.7521 -1.74667,-7.37829 -2.93473,-11.70202 -2.8315,-16.74199 0.97356,-1.09239 14.48021,-2.19875 26.9812,-2.06093 4.06547,0.0448 7.55272,1.12872 10.13277,1.25437 2.49692,0.21488 5.34681,0.36958 7.56737,0.50014 1.28805,0.0774 2.64711,0.21103 3.04261,0.21103 0.49195,0 0.92246,0.0281 0.95668,0.0625 0.0342,0.0344 -0.0226,0.71893 -0.12623,1.5212 -0.10368,0.80227 -0.28535,2.32139 -0.4038,3.37581 -0.20502,1.82498 -1.18995,9.21102 -1.94517,14.58684 -0.19321,1.37533 -0.41302,2.58715 -0.48847,2.69292 -0.0755,0.10579 -0.0987,0.28444 -0.0517,0.39701 0.048,0.11471 0.0109,0.25871 -0.0842,0.32758 -0.0934,0.0676 -0.12951,0.186 -0.0802,0.26312 0.0493,0.0771 0.0272,0.3308 -0.0491,0.5637 -0.0763,0.23291 -0.23869,1.00485 -0.36083,1.71543 -0.12215,0.7106 -0.25911,1.34825 -0.30438,1.41702 -0.0452,0.0688 -0.0725,0.15285 -0.0607,0.18686 0.0119,0.034 -0.0875,0.14152 -0.22088,0.23892 -0.59528,0.43468 -1.10966,0.65377 -1.82872,0.77891 -0.42542,0.074 -1.07323,0.19403 -1.43958,0.26665 -0.36635,0.0726 -0.69958,0.11192 -0.74052,0.0873 -0.0409,-0.0246 -0.24091,-0.0113 -0.44436,0.0295 -0.20346,0.0408 -1.26688,0.1506 -2.36315,0.244 -1.09628,0.0934 -2.04148,0.18772 -2.10044,0.2096 -0.0975,0.0362 -1.52158,0.0955 -4.09583,0.17054 -0.53439,0.0156 -1.68995,0.0502 -2.56789,0.0769 -2.80871,0.0855 -3.07285,0.0872 -6.03802,0.0374 z"
       id="path3611"
       sodipodi:nodetypes="ssssssscssssssssccsccssssssssssssssssssssssss" />
    <path
       id="Auswahl-31-3"
       fill="none"
       stroke="#000000"
       stroke-width="0.165879"
       d="m 116.00954,146.74 c -1.04171,0.19573 -2.10168,0.141 -3.15169,0.14266 l -3.31757,0.16587 -1.65878,0.15095 c -3.23297,0.22062 -6.43443,0.49597 -9.62096,1.1429 -1.6704,0.34006 -4.79223,1.05831 -5.61167,2.68723 -0.25546,0.50925 -0.20071,1.41163 -0.19408,1.99055 l 0.15095,1.65877 0.33176,4.31284 0.98199,11.94324 0.8858,10.78209 2.2659,24.71585 1.34361,13.76791 c 0.1775,1.93248 0.32181,5.26498 1.46969,6.79438 0.94219,1.259 2.88463,2.11826 4.34768,2.60594 3.3889,1.12963 7.07306,1.48461 10.61623,1.72846 l 1.65878,0.15094 h 0.99527 l 2.65405,0.16588 c 6.64842,0.01 13.30181,0.15094 19.90542,-0.63863 3.22469,-0.38484 8.3155,-1.17774 10.75391,-3.41875 1.6621,-1.5294 1.62893,-3.81189 1.87774,-5.89532 l 1.33036,-13.43614 2.26589,-24.71586 0.71991,-8.79155 1.31376,-15.75844 0.33176,-4.31284 0.15095,-1.65877 c 0.006,-0.57892 0.0614,-1.4813 -0.19408,-1.99055 -0.47772,-0.95048 -1.66873,-1.52608 -2.62586,-1.87608 -1.99054,-0.72323 -4.84697,-1.21257 -6.96689,-1.44978 -4.20337,-0.46943 -8.37853,-0.77299 -12.60677,-0.82109 L 133.92442,146.74 h -7.29866 z m 4.6446,2.65405 h 8.79156 l 2.81994,0.14266 h 3.8152 l 1.82467,0.15924 h 1.82466 l 1.82466,0.16588 5.80576,0.4346 6.13749,0.9339 c 0.55404,0.11942 2.01709,0.4545 2.3588,0.87915 0.28697,0.35332 0.16588,0.82773 0.14266,1.24243 l -0.18082,2.81993 -0.46777,5.3081 -0.62204,7.46452 -0.42963,5.30811 -0.99528,11.27973 -1.32702,14.76317 -0.95215,9.78681 -1.12962,11.4456 c -0.13603,1.10475 -0.13271,3.30761 -0.914,4.09223 -0.55238,0.55734 -1.5493,0.9372 -2.28414,1.20759 -1.90927,0.7 -4.12209,1.05996 -6.13751,1.33532 -3.12681,0.42797 -6.30172,0.65854 -9.45508,0.6635 l -2.81994,0.16589 h -5.3081 l -2.65407,-0.16589 h -2.32228 l -1.6588,-0.15094 c -3.36401,-0.23058 -6.66167,-0.46115 -9.9527,-1.28058 -1.21921,-0.30356 -3.40549,-0.92561 -4.20503,-1.92087 -0.64526,-0.80286 -0.69834,-3.04221 -0.841,-4.11212 l -1.11968,-11.11385 -2.32229,-25.2135 -0.99528,-11.27972 -0.47607,-5.47398 -0.29692,-2.98582 -0.22228,-3.15168 -0.47607,-5.97162 -0.1609,-2.65405 c -0.0382,-0.38982 -0.18744,-0.93224 0,-1.28225 0.26043,-0.43625 1.19101,-0.67014 1.66044,-0.80285 l 4.6446,-0.85592 c 2.81827,-0.40641 8.13967,-0.8692 10.94799,-0.87418 l 2.81992,-0.16588 z m -21.89265,3.58961 c -1.30215,0.69502 -1.30215,2.08177 0.16256,2.53462 l 8.12805,1.12299 c 8.37024,0.81115 16.79852,0.70499 25.21354,0.69171 l 1.99054,-0.15923 h 2.15642 l 3.31757,-0.17252 1.65878,-0.15095 8.29392,-0.77465 c 1.13462,-0.16422 4.13204,-0.24052 3.73726,-2.0569 -0.36826,-1.69029 -2.90454,-0.87915 -4.06901,-0.71161 -4.03914,0.58224 -8.53445,0.99361 -12.60677,1.04006 l -2.48817,0.16587 h -3.1517 l -2.15642,0.16588 h -6.30338 l -2.65405,-0.16588 h -2.98582 l -2.48818,-0.16587 c -3.76046,-0.0431 -7.53918,-0.45451 -11.27973,-0.85594 -1.10475,-0.11943 -3.55312,-0.66682 -4.47541,-0.50758 z m 52.91857,4.47173 c -1.30547,0.75972 -1.06148,7.04451 -1.2141,8.33338 -1.57555,11.55841 -1.96888,21.50962 -3.74401,33.17933 l -0.87584,7.13277 c -0.11446,0.82441 -0.17417,2.33721 -0.71328,2.94931 -0.57394,0.6519 -2.84482,1.2076 -3.74388,1.42158 -2.98581,0.70497 -6.07779,0.90901 -9.12331,1.11801 l -1.82467,0.15428 h -3.15169 l -1.32702,0.14763 -2.15643,-0.15096 h -2.98581 l -8.12805,-0.76138 c -1.54267,-0.24882 -5.31806,-0.86257 -6.43277,-1.83129 -0.66019,-0.5756 -0.64195,-1.42158 -0.74645,-2.21779 l -0.64195,-5.14223 -1.60736,-13.93378 -0.64361,-6.1375 c -0.53573,-2.3391 -2.58385,-1.5961 -2.56296,2.15451 l 1.97243,17.25325 0.80617,6.63513 c 0.14597,1.05499 0.15758,2.10998 0.95546,2.93273 1.05001,1.08318 3.15335,1.6621 4.5882,2.06685 3.18155,0.8974 6.82424,1.22916 10.11859,1.46968 h 1.49291 l 1.65878,0.16588 c 6.10432,0.0713 12.73117,0.008 18.74427,-1.03674 2.09174,-0.36327 5.81737,-1.17276 7.23397,-2.80666 0.67512,-0.77963 0.66683,-1.6704 0.79788,-2.62585 l 0.62037,-5.14223 0.77466,-6.1375 1.47466,-13.10439 1.67703,-17.08546 0.22228,-3.15168 0.30355,-4.14696 c -0.0166,-1.25073 -0.43957,-2.00548 -1.81802,-1.70192 z m -6.97354,64.31102 -5.80575,1.04172 c -2.94932,0.39645 -5.98323,0.70497 -8.95743,0.70995 l -2.81994,0.16588 h -4.6446 c -1.34694,-0.0166 -5.15716,-0.99527 -4.77066,1.48959 0.17417,1.12299 1.54765,1.15285 2.44836,1.16446 h 9.45507 l 3.1517,-0.16588 c 2.11827,-0.0248 6.29178,-0.59218 8.45981,-0.95379 1.00522,-0.16754 4.03416,-0.66186 4.79223,-1.10973 0.78626,-0.46446 0.91731,-1.57419 0.15924,-2.12656 -0.45782,-0.33508 -0.94385,-0.27701 -1.46803,-0.21564 z"
       style="fill:#1a1a1a"
       sodipodi:nodetypes="ccccccccccccccsccccccccccccccccccccccccccccccccccccccccccccccccscccccccccccccccccccccccccccccccccccccccccccccccccccccccccccccccccccccccccccccccccccccc" />
    <path
       id="Auswahl-3-5"
       fill="none"
       stroke="#000000"
       stroke-width="0.165878"
       d="m 116.01784,145.70445 c -1.04171,0.19573 -2.10169,0.14099 -3.15169,0.14265 l -3.31758,0.16588 -1.65878,0.15095 c -3.23297,0.22062 -6.43442,0.49598 -9.62096,1.1429 -1.67039,0.34005 -6.46997,1.0583 -7.2894,2.68722 -0.25545,0.50926 -0.20072,2.53012 -0.19408,3.10904 l 0.15095,1.65878 0.33175,4.31283 0.982,11.94325 0.88579,10.78209 2.26591,24.71585 1.34361,13.76791 c 0.1775,1.93248 0.88106,6.94272 2.02893,8.47212 0.9422,1.259 4.00312,1.55901 5.46618,2.04669 3.3889,1.12963 7.07306,1.48461 10.61622,1.72846 l 1.65878,0.15094 h 0.99528 l 2.65405,0.16588 c 6.64843,0.01 13.30181,0.15094 19.90543,-0.63863 3.22469,-0.38484 8.87474,-0.61849 11.31316,-2.8595 1.6621,-1.5294 2.74742,-5.48963 2.99624,-7.57305 l 1.33034,-13.43614 2.2659,-24.71587 0.71991,-8.79155 1.31376,-15.75845 0.33176,-4.31283 0.15095,-1.65878 c 0.006,-0.57892 0.0614,-2.04054 -0.19408,-2.54979 -0.47773,-0.95048 -3.34648,-2.08533 -4.3036,-2.43532 -1.99054,-0.72323 -4.84697,-1.21258 -6.9669,-1.44978 -4.20335,-0.46944 -8.37852,-0.77299 -12.60676,-0.8211 l -2.48818,-0.14265 h -7.29865 z m 4.64459,3.77254 h 8.79159 l 2.81993,0.14266 h 3.8152 l 1.82466,0.15924 h 1.82467 l 1.82466,0.16587 5.80575,0.43461 6.1375,0.93389 c 0.55404,0.11943 2.01709,0.4545 2.35879,0.87915 0.28698,0.35333 0.16588,0.82773 0.14267,1.24244 l -0.18082,2.81993 -0.46777,5.3081 -0.62205,7.46452 -0.42962,5.30811 -0.99528,11.27973 -1.32703,14.76317 -0.95213,9.78681 -1.12964,11.4456 c -0.13601,1.10475 -0.1327,3.30762 -0.91399,4.09222 -0.55238,0.55735 -1.5493,1.49645 -2.28415,1.76684 -1.90926,0.70001 -4.12208,0.50072 -6.1375,0.77608 -3.1268,0.42797 -6.30172,0.65853 -9.45507,0.66351 l -2.81994,0.16588 h -5.3081 l -2.65408,-0.16588 h -2.3223 l -1.65879,-0.15095 c -3.36401,-0.23057 -6.66167,-0.46115 -9.9527,-1.28058 -1.21921,-0.30356 -3.4055,-0.9256 -4.20503,-1.92088 -0.64527,-0.80285 -0.69834,-3.0422 -0.84101,-4.11212 l -1.11967,-11.11384 -2.3223,-25.21349 -0.99527,-11.27973 -0.47608,-5.47399 -0.29692,-2.98581 -0.22227,-3.15168 -0.47607,-5.97162 -0.1609,-2.65406 c -0.0382,-0.38981 -0.18745,-0.93223 0,-1.28223 0.26042,-0.43627 1.19101,-0.67016 1.66044,-0.80286 l 4.64459,-0.85593 c 2.81828,-0.4064 8.13967,-0.8692 10.94799,-0.87418 l 2.81994,-0.16587 z m -21.14948,3.09417 c -1.30215,0.69503 -2.04531,2.57721 -0.5806,3.03006 l 8.12804,1.12299 c 8.37024,0.81115 16.79854,0.70499 25.21356,0.69171 l 1.99054,-0.15924 h 2.15642 l 3.31757,-0.17251 1.65878,-0.15095 8.29392,-0.77465 c 1.13462,-0.16423 4.13204,-0.24053 3.73726,-2.05689 -0.36826,-1.69031 -2.90454,-1.99765 -4.06901,-1.83012 -4.03915,0.58224 -8.53444,0.99361 -12.60676,1.04006 l -2.48818,0.16588 h -3.15169 l -2.15642,0.16588 h -6.30339 l -2.65406,-0.16588 h -2.98582 l -2.48818,-0.16588 c -3.76047,-0.0431 -7.53918,-0.4545 -11.27973,-0.85592 -1.10476,-0.11944 -2.80996,-0.0438 -3.73225,0.11546 z m 45.20188,69.27854 -5.80574,1.04172 c -2.94932,0.39644 -5.98324,0.70498 -8.95744,0.70996 l -2.81993,0.16587 h -4.64461 c -1.34694,-0.0166 -5.15717,-0.99526 -4.77067,1.4896 0.17417,1.12299 1.54764,1.15284 2.44836,1.16446 h 9.45509 l 3.15169,-0.16588 c 2.11827,-0.0248 6.29177,-0.59218 8.45981,-0.9538 1.00522,-0.16754 4.03416,-0.66185 4.79222,-1.10972 0.78628,-0.46446 0.91731,-1.57419 0.15925,-2.12656 -0.45783,-0.33508 -0.94385,-0.27702 -1.46803,-0.21565 z"
       style="fill:#1a1a1a;stroke:none"
       sodipodi:nodetypes="ccccccccccccccsccccccccccccccccccccccccccccccccccccccccccccccccscccccccccccccccccccccccccccccccccccccccccccccccccc" />
    <path
       style="fill:#f5f5f5;fill-opacity:1;stroke:none;stroke-width:0.106474"
       d="m 119.34489,228.75746 c -7.30905,-0.25892 -13.27829,-1.18843 -15.83344,-2.46554 -1.19196,-0.59576 -1.54842,-1.09311 -1.78318,-2.48801 -0.31733,-1.88552 -2.80203,-28.12835 -4.52641,-47.80691 -0.4413,-5.03623 -0.82641,-9.32448 -0.85579,-9.52945 -0.0761,-0.53069 -0.8829,-11.17991 -0.9687,-12.78579 -0.0688,-1.28707 -0.0625,-1.34835 0.16097,-1.55648 0.33711,-0.31407 1.44991,-0.605 4.16203,-1.08808 3.51118,-0.62543 6.97151,-0.98102 11.50446,-1.18226 6.16718,-0.27377 7.73091,-0.31033 13.09112,-0.30604 12.33143,0.01 19.87526,0.39304 26.13945,1.3276 3.27678,0.48886 4.69358,0.82416 5.21469,1.23406 l 0.29673,0.2334 -0.0726,1.39205 c -0.04,0.76563 -0.19043,2.78153 -0.33445,4.4798 -0.14401,1.69826 -0.52548,6.25003 -0.84772,10.11504 -2.01533,24.17232 -4.95426,55.15984 -5.34621,56.36931 -0.22679,0.69979 -0.59557,1.08699 -1.44241,1.51448 -2.36439,1.19354 -7.42647,2.09016 -13.7586,2.437 -2.65693,0.14553 -11.82787,0.2111 -14.79993,0.10582 z m 15.06612,-2.54982 c 5.16189,-0.49822 10.76022,-1.47563 11.66903,-2.0373 0.32424,-0.2004 0.68199,-0.84609 0.68199,-1.23091 0,-0.32878 -0.35273,-0.9041 -0.64791,-1.05674 -0.50029,-0.25871 -1.48291,-0.17984 -4.66786,0.3747 -4.45613,0.77586 -6.19234,0.94729 -12.97116,1.28075 -2.81249,0.13835 -4.6174,0.13515 -7.16043,-0.0127 -2.3341,-0.13568 -2.80481,-0.0741 -3.31208,0.43315 -0.74014,0.74014 -0.4337,1.92074 0.59698,2.29989 0.36374,0.13381 1.45915,0.15016 7.50644,0.11199 3.99899,-0.0252 7.61345,-0.0961 8.305,-0.16285 z m -2.92804,-11.82797 c 6.91624,-0.36462 11.66641,-1.19052 14.37403,-2.49919 1.64181,-0.79353 2.24327,-1.50249 2.48549,-2.92973 0.23005,-1.35555 1.6164,-12.71886 2.30218,-18.87005 1.25642,-11.26965 2.47089,-23.94733 2.88141,-30.07867 0.12489,-1.86518 -0.19371,-2.57279 -1.19729,-2.65924 -0.62137,-0.0535 -1.08514,0.19927 -1.33434,0.72735 -0.96245,1.9506 0.0326,0.40665 -1.59386,2.53088 -2.92346,-0.78392 -7.99652,-1.2818 -12.58787,-1.65955 -3.08017,-0.25342 -4.05732,-0.28513 -10.01462,-0.32495 -6.55522,-0.0438 -8.21374,0.002 -12.40426,0.3462 -2.52937,0.41199 -16.24784,0.19814 -16.05646,2.92785 0.53471,5.02367 0,0 1.25943,15.27764 0.15697,3.40895 0.30755,5.34526 0.68728,8.83737 1.74468,16.04497 2.52442,22.6607 2.7756,23.54959 0.28797,1.01909 1.34649,1.92844 3.00334,2.58012 1.67477,0.65872 4.63711,1.34625 7.34059,1.70366 1.71325,0.22649 5.18913,0.52802 6.63336,0.57542 2.4741,0.0812 9.66081,0.0594 11.44599,-0.0347 z m 6.65464,-57.16895 c 2.98033,-0.19899 12.14091,-1.06691 13.0861,-1.23986 1.08768,-0.19902 1.8624,-0.57239 2.14318,-1.03287 0.26524,-0.43502 0.26278,-0.64417 -0.0144,-1.21663 -0.43173,-0.89183 -1.24455,-1.43305 -4.79654,-0.95453 -3.19475,0.43039 -5.15369,0.34246 -7.82931,0.47655 -1.22978,0.0616 -3.78549,0.29483 -5.07384,0.36683 -3.14714,0.17589 -16.28191,0.29673 -19.53913,0.11964 -5.34403,-0.29093 -6.62976,-0.60907 -9.24479,-0.85814 -1.49331,-0.14224 -3.89037,-0.28378 -5.17544,-0.46593 -2.65317,-0.37607 -3.02104,0.38692 -3.58035,1.02394 -0.593,0.67538 -0.39363,1.5993 0.43789,2.0293 0.41205,0.21308 7.93953,1.24877 10.6788,1.46928 1.73228,0.13944 4.21126,0.2746 7.77262,0.42377 2.00094,0.0838 19.5179,-0.0332 21.13516,-0.14112 z"
       id="path3676-5"
       sodipodi:nodetypes="sssssssssssscssssssssssssssssssssssssccsscccssssssssssssssssssssssscs" />
    <path
       id="Auswahl-3-6"
       fill="none"
       stroke="#000000"
       stroke-width="0.155174"
       d="m 105.36332,182.44446 c 3.62611,-0.52983 9.62348,-1.1806 13.2811,-1.18496 l 2.48819,-0.14516 h 7.13279 l 2.81993,0.14516 c 3.3043,0.004 7.66358,0.36 10.94798,0.78678 9.05313,1.84752 13.26966,-0.15387 2.65404,-2.11935 l -5.3081,-0.70984 -6.46925,-0.42532 -2.81993,-0.14515 h -9.95274 l -3.48344,0.14515 -1.65879,0.1321 c -4.22991,0.25403 -8.56856,-0.10418 -12.68235,0.85824 -4.832704,2.19081 0.5993,3.5385 3.05057,2.66235 z m -0.64937,4.08436 c 0.90071,0.34695 5.72115,0.83903 6.96358,0.94791 4.64128,0.40645 9.26763,0.46015 13.9338,0.46015 h 4.47874 l 3.15167,-0.14516 3.98109,-0.24967 5.80575,-0.60967 c 0.61541,-0.0885 1.99717,-0.25984 2.46993,-0.55307 1.0782,-0.6692 0.77797,-2.13531 -0.64528,-2.18757 l -2.65405,0.34404 -4.6446,0.48482 -6.46925,0.30339 -2.81993,0.14516 h -6.63515 l -2.81994,-0.14516 -8.29394,-0.47612 -3.48344,-0.40645 c -2.10041,-1.06191 -4.20909,1.295 -2.31898,2.0874 z"
       style="fill:#1a1a1a;stroke:none"
       sodipodi:nodetypes="cccccccccccccccccsccccccccccccccc" />
    <path
       id="Auswahl-3-1"
       fill="none"
       stroke="#000000"
       stroke-width="0.123513"
       d="m 106.669,190.07597 c -0.3529,0.13561 -0.58492,0.22472 -0.73086,0.54771 -0.13466,0.25641 -0.0487,0.61246 -0.0412,0.89203 l 0.19451,2.14156 0.26779,2.59437 0.90655,8.23773 0.41405,2.82513 c 0.21075,0.51942 0.77426,0.84715 1.42894,0.67821 0.5732,-0.14808 0.70478,-0.54479 0.72963,-0.99392 l -0.30158,-3.04479 -1.18492,-10.72063 c -0.0809,-0.66962 -0.0745,-2.55355 -0.65514,-2.98321 -0.33122,-0.24532 -0.63808,-0.22015 -1.02778,-0.17419 z"
       style="fill:#000000;fill-opacity:1;stroke:none"
       sodipodi:nodetypes="ccccccccccccc" />
    <path
       id="Auswahl-3-1-6"
       fill="none"
       stroke="#000000"
       stroke-width="0.108857"
       d="m 141.25346,203.14224 c 0.21075,0.40346 0.77426,0.65803 1.42894,0.52681 0.5732,-0.11503 0.70478,-0.42318 0.72963,-0.77205 0.1006,-2.00576 -2.67769,-2.07434 -2.15857,0.24524 z"
       style="fill:#ffffff;fill-opacity:1;stroke:none"
       sodipodi:nodetypes="cccc" />
    <path
       id="Auswahl-3-1-2"
       fill="none"
       stroke="#000000"
       stroke-width="0.0841273"
       d="m 143.70642,189.25131 c -0.34259,-0.0365 -0.56779,-0.0606 -0.74738,0.0478 -0.15981,0.0808 -0.1317,0.26971 -0.16455,0.40119 l -0.12628,1.04579 -0.12343,1.27595 -0.34048,4.06728 -0.0223,1.42388 c 0.11923,0.29968 0.58886,0.60989 1.21261,0.71593 0.54614,0.0928 0.72306,-0.0538 0.80967,-0.25465 l 0.15649,-1.4939 0.43841,-5.29461 c 0.0209,-0.33266 0.29473,-1.20269 -0.1761,-1.5649 -0.26854,-0.20672 -0.55323,-0.28142 -0.91676,-0.36978 z"
       style="fill:#ffffff;fill-opacity:1;stroke:none"
       sodipodi:nodetypes="ccccccccccccc" />
    <path
       id="Auswahl-3-1-6-2"
       fill="none"
       stroke="#000000"
       stroke-width="0.0407689"
       d="m 143.6337,205.58717 c 0.0695,0.17156 0.2554,0.27981 0.47136,0.22401 0.18908,-0.0489 0.23248,-0.17994 0.24068,-0.32829 0.0332,-0.85288 -0.88328,-0.88204 -0.71204,0.10428 z"
       style="fill:#ffffff;fill-opacity:1;stroke:none"
       sodipodi:nodetypes="cccc" />
    <path
       id="Auswahl-3-1-6-2-7"
       fill="none"
       stroke="#000000"
       stroke-width="0.0407689"
       d="m 139.23973,205.9946 c 0.0695,0.17156 0.2554,0.27981 0.47136,0.22401 0.18908,-0.0489 0.23248,-0.17994 0.24068,-0.32829 0.0332,-0.85288 -0.88328,-0.88204 -0.71204,0.10428 z"
       style="fill:#ffffff;fill-opacity:1;stroke:none"
       sodipodi:nodetypes="cccc" />
  </g>
</svg>
