<?xml version="1.0" encoding="UTF-8" standalone="no"?>
<svg
   xmlns:dc="http://purl.org/dc/elements/1.1/"
   xmlns:cc="http://creativecommons.org/ns#"
   xmlns:rdf="http://www.w3.org/1999/02/22-rdf-syntax-ns#"
   xmlns:svg="http://www.w3.org/2000/svg"
   xmlns="http://www.w3.org/2000/svg"
   xmlns:sodipodi="http://sodipodi.sourceforge.net/DTD/sodipodi-0.dtd"
   xmlns:inkscape="http://www.inkscape.org/namespaces/inkscape"
   width="113.64676mm"
   height="187.80124mm"
   viewBox="0 0 113.64676 187.80123"
   version="1.1"
   id="svg8"
   sodipodi:docname="shot_full_2.svg"
   inkscape:version="1.0.1 (c497b03c, 2020-09-10)">
  <defs
     id="defs2" />
  <sodipodi:namedview
     id="base"
     pagecolor="#ffffff"
     bordercolor="#666666"
     borderopacity="1.0"
     inkscape:pageopacity="0.0"
     inkscape:pageshadow="2"
     inkscape:zoom="1.1287915"
     inkscape:cx="218.03983"
     inkscape:cy="479.68764"
     inkscape:document-units="mm"
     inkscape:current-layer="layer1"
     inkscape:document-rotation="0"
     showgrid="false"
     inkscape:window-width="827"
     inkscape:window-height="1023"
     inkscape:window-x="965"
     inkscape:window-y="23"
     inkscape:window-maximized="0"
     inkscape:snap-global="false"
     fit-margin-top="0"
     fit-margin-left="0"
     fit-margin-right="0"
     fit-margin-bottom="0" />
  <metadata
     id="metadata5">
    <rdf:RDF>
      <cc:Work
         rdf:about="">
        <dc:format>image/svg+xml</dc:format>
        <dc:type
           rdf:resource="http://purl.org/dc/dcmitype/StillImage" />
        <dc:title />
      </cc:Work>
    </rdf:RDF>
  </metadata>
  <g
     inkscape:label="Ebene 1"
     inkscape:groupmode="layer"
     id="layer1"
     transform="translate(-68.815285,-45.062546)">
    <path
       id="Auswahl-31"
       fill="none"
       stroke="#000000"
       stroke-width="0.165879"
       d="m 116.00955,146.74001 c -1.04171,0.19573 -2.10169,0.141 -3.15169,0.14265 l -3.31758,0.16588 -1.65878,0.15094 c -3.23297,0.22063 -6.43442,0.49598 -9.62096,1.14291 -1.67039,0.34006 -4.79223,1.05831 -5.61166,2.68723 -0.25546,0.50925 -0.20072,1.41163 -0.19408,1.99054 l 0.15095,1.65878 0.33175,4.31284 0.982,11.94323 0.88579,10.78209 2.26591,24.71586 1.34361,13.76791 c 0.1775,1.93248 0.32181,5.26498 1.46969,6.79438 0.94219,1.259 2.88462,2.11826 4.34768,2.60594 3.3889,1.12963 7.07306,1.48461 10.61622,1.72845 l 1.65878,0.15095 h 0.99528 l 2.65405,0.16587 c 6.64842,0.01 13.3018,0.15095 19.90542,-0.63863 3.22469,-0.38483 8.31549,-1.17773 10.75391,-3.41874 1.6621,-1.5294 1.62892,-3.81189 1.87774,-5.89532 l 1.33035,-13.43614 2.2659,-24.71587 0.71991,-8.79154 1.31375,-15.75844 0.33177,-4.31284 0.15095,-1.65878 c 0.006,-0.57891 0.0614,-1.48129 -0.19408,-1.99054 -0.47773,-0.95048 -1.66874,-1.52608 -2.62586,-1.87609 -1.99054,-0.72322 -4.84697,-1.21256 -6.9669,-1.44977 -4.20336,-0.46943 -8.37852,-0.77299 -12.60677,-0.8211 l -2.48818,-0.14265 h -7.29865 z m 4.64459,2.65405 h 8.79157 l 2.81993,0.14265 h 3.81521 l 1.82466,0.15925 h 1.82467 l 1.82466,0.16588 5.80575,0.4346 6.1375,0.9339 c 0.55404,0.11942 2.01708,0.4545 2.35879,0.87915 0.28698,0.35332 0.16588,0.82773 0.14266,1.24243 l -0.18081,2.81993 -0.46777,5.3081 -0.62205,7.46452 -0.42963,5.30811 -0.99527,11.27973 -1.32703,14.76316 -0.95214,9.78682 -1.12963,11.4456 c -0.13602,1.10475 -0.13271,3.30761 -0.91399,4.09222 -0.55238,0.55735 -1.5493,0.93721 -2.28415,1.20759 -1.90926,0.7 -4.12208,1.05996 -6.1375,1.33532 -3.12682,0.42797 -6.30172,0.65854 -9.45508,0.66351 l -2.81994,0.16588 h -5.30811 l -2.65406,-0.16588 h -2.32229 l -1.65879,-0.15095 c -3.36401,-0.23057 -6.66167,-0.46114 -9.95271,-1.28057 -1.2192,-0.30356 -3.40549,-0.92561 -4.20502,-1.92087 -0.64527,-0.80286 -0.69834,-3.04222 -0.84101,-4.11212 l -1.11967,-11.11386 -2.3223,-25.21349 -0.99527,-11.27972 -0.47608,-5.47399 -0.29692,-2.98581 -0.22227,-3.15168 -0.47607,-5.97162 -0.1609,-2.65405 c -0.0382,-0.38982 -0.18745,-0.93224 0,-1.28225 0.26042,-0.43625 1.19101,-0.67014 1.66044,-0.80285 l 4.64459,-0.85593 c 2.81828,-0.4064 8.13967,-0.8692 10.94799,-0.87417 l 2.81993,-0.16589 z m -21.89264,3.58961 c -1.30215,0.69502 -1.30215,2.08177 0.16256,2.53462 l 8.12804,1.12299 c 8.37024,0.81114 16.79852,0.70499 25.21354,0.69171 l 1.99055,-0.15923 h 2.15641 l 3.31758,-0.17252 1.65878,-0.15095 8.29392,-0.77466 c 1.13462,-0.16421 4.13204,-0.24051 3.73726,-2.05689 -0.36826,-1.69029 -2.90454,-0.87915 -4.06901,-0.71161 -4.03915,0.58223 -8.53445,0.99361 -12.60677,1.04006 l -2.48817,0.16587 h -3.1517 l -2.15642,0.16588 h -6.30338 l -2.65405,-0.16588 h -2.98582 l -2.48818,-0.16587 c -3.76047,-0.0431 -7.53918,-0.45451 -11.27973,-0.85594 -1.10476,-0.11943 -3.55313,-0.66682 -4.47541,-0.50758 z m -0.16257,4.47373 c -0.98697,0.56896 -0.87418,1.33366 -0.82939,2.36377 l 0.59385,6.63513 c 0.18413,0.95049 0.79456,1.79647 1.88106,1.37016 0.99195,-0.38982 0.89243,-1.66211 0.78958,-2.53131 L 100.48,158.99178 c -0.20734,-1.07323 -0.70664,-1.75665 -1.88107,-1.53438 z m 53.08113,-0.002 c -1.30546,0.75972 -0.89574,2.56946 -1.04835,3.85833 l -0.97703,1.49291 -2.93273,36.16146 -0.87584,7.13277 c -0.11445,0.82442 -0.17416,2.33722 -0.71327,2.94931 -0.57394,0.65191 -2.84483,1.20761 -3.74388,1.42158 -2.98581,0.70498 -6.07779,0.90902 -9.12332,1.11802 l -1.82466,0.15428 h -3.15169 l -1.32703,0.14763 -2.15643,-0.15096 h -2.9858 l -8.12806,-0.76138 c -1.54266,-0.24882 -5.31806,-0.86257 -6.43276,-1.83129 -0.66019,-0.5756 -0.64195,-1.42158 -0.74645,-2.2178 l -0.64195,-5.14222 -1.60737,-13.93378 -0.64361,-6.1375 -0.57228,-15.2608 c -0.0647,-0.66186 -0.33341,-1.69196 0.12773,-2.25761 0.30356,-0.37156 0.94882,-0.57726 1.39338,-0.7282 1.21921,-0.41304 2.38367,-0.65853 3.64933,-0.87086 3.6261,-0.60546 8.45151,-1.11471 12.10913,-1.11969 l 2.48817,-0.16587 h 7.13278 l 2.81993,0.16587 c 3.3043,0.005 7.6636,0.41139 10.94798,0.89907 1.20761,0.17915 8.82138,1.5898 8.9856,-0.39079 0.0796,-0.95546 -5.53366,-1.84857 -6.33153,-2.03104 l -5.30812,-0.81114 -6.46926,-0.48603 -2.81994,-0.16587 h -9.9527 l -3.48345,0.16587 -1.65879,0.15096 c -4.2299,0.29028 -8.3271,0.71991 -12.44088,1.81968 -1.54268,0.41304 -4.03583,1.51779 -4.14034,3.33747 l 0.79457,17.5831 2.13816,19.57364 0.80617,6.63513 c 0.14597,1.05498 0.15759,2.10998 0.95546,2.93273 1.05001,1.08318 3.15335,1.6621 4.58821,2.06685 3.18155,0.89739 6.82423,1.22916 10.11859,1.46967 h 1.49291 l 1.65878,0.16589 c 6.10432,0.0713 12.73117,0.008 18.74426,-1.03675 2.09174,-0.36326 5.81737,-1.17275 7.23398,-2.80665 0.67512,-0.77964 0.66682,-1.67041 0.79787,-2.62586 l 0.62038,-5.14222 0.77466,-6.1375 1.47465,-13.10439 1.67704,-17.08546 0.22227,-3.15169 0.30356,-4.14695 c -0.0166,-1.25073 -0.43957,-2.00548 -1.81803,-1.70192 z m -47.61045,1.32868 c -0.38649,0.21067 -0.58223,0.29693 -0.80451,0.71163 -0.42299,0.79455 0.0564,3.46188 0.14929,4.47207 0.0481,0.51921 0.14929,1.73012 0.44289,2.11827 0.60049,0.79622 2.25927,0.77797 2.3588,-0.95712 l -0.29692,-3.15168 c -0.068,-0.70665 -0.0282,-1.81969 -0.31351,-2.48154 -0.31351,-0.72323 -0.8294,-0.84432 -1.53604,-0.71163 z m 1.32703,6.1375 c -1.21921,0.66352 -1.31874,2.0005 0,2.57941 0.90072,0.39645 5.72115,0.95878 6.96358,1.08319 4.64128,0.46446 9.26763,0.52583 13.9338,0.52583 h 4.47871 l 3.15169,-0.16587 3.98109,-0.28532 5.80575,-0.69669 c 0.61541,-0.10114 1.99718,-0.29692 2.46994,-0.63199 1.0782,-0.7647 0.77796,-2.44007 -0.64528,-2.4998 l -2.65405,0.39314 -4.6446,0.55404 -6.46927,0.34669 -2.81993,0.16587 h -6.63513 l -2.81994,-0.16587 -8.29393,-0.54409 -3.48345,-0.46446 c -0.77299,-0.12773 -1.54432,-0.35 -2.31898,-0.19408 z m 0.82939,15.09327 c -0.42133,0.23223 -0.69835,0.38484 -0.85759,0.87584 -0.14929,0.39146 -0.0248,0.91067 0,1.32371 l 0.35664,3.15168 0.4711,3.8152 1.56423,12.10912 0.66185,4.14364 c 0.28532,0.74977 0.98865,1.18437 1.77491,0.87583 0.68839,-0.27038 0.82607,-0.8692 0.83105,-1.53602 l -0.53745,-4.47872 -2.04196,-15.75844 c -0.13603,-0.98365 -0.23389,-3.77207 -0.96376,-4.35596 -0.41635,-0.33342 -0.78792,-0.26872 -1.25902,-0.16588 z m 38.4805,41.75156 -5.80576,1.04172 c -2.94931,0.39646 -5.98322,0.70498 -8.95743,0.70996 l -2.81993,0.16588 h -4.6446 c -1.34694,-0.0166 -5.15716,-0.99527 -4.77066,1.48959 0.17417,1.12299 1.54764,1.15285 2.44836,1.16446 h 9.45507 l 3.1517,-0.16588 c 2.11826,-0.0248 6.29177,-0.59218 8.4598,-0.95379 1.00522,-0.16754 4.03417,-0.66186 4.79223,-1.10973 0.78626,-0.46446 0.91731,-1.57419 0.15925,-2.12656 -0.45783,-0.33508 -0.94386,-0.27702 -1.46803,-0.21565 z"
       style="fill:#1a1a1a"
       sodipodi:nodetypes="ccccccccccccccsccccccccccccccccccccccccccccccccccccccccccccccccscccccccccccccccccccccccccccccccccccccccccccccccccccccccccccccccccccccccccccccccccccccccccccccccccccccccccccccccsccccccccccccccccccccccccccccccccccccccccc" />
    <path
       style="fill:#e3e2db;stroke:none;stroke-width:0.198076"
       d="m 116.3778,228.59667 c -0.92599,-0.0892 -2.75325,-0.26087 -4.06055,-0.38151 -4.09018,-0.37744 -7.84657,-1.27746 -9.31789,-2.23251 -0.37484,-0.24331 -0.80684,-0.76146 -0.968,-1.16105 -0.33216,-0.82358 -1.14784,-8.59634 -2.87589,-27.40512 -2.45978,-26.77317 -3.7647,-42.11307 -3.77101,-44.32956 -0.002,-0.88694 0.0406,-0.96897 0.64104,-1.21856 2.02122,-0.84021 9.13113,-1.72588 16.88408,-2.10324 7.26922,-0.35381 25.698,-0.1283 31.19887,0.38176 7.21066,0.6686 11.27791,1.42697 11.66165,2.17439 0.19582,0.3814 0.11432,1.63682 -0.85719,13.20501 -1.94758,23.19052 -5.03066,56.27811 -5.45248,58.51605 -0.11135,0.59073 -0.35834,1.24982 -0.54887,1.46465 -1.31232,1.47965 -7.52311,2.75028 -15.2021,3.1101 -4.70777,0.22059 -14.95495,0.20852 -17.33166,-0.0204 z m 17.13359,-2.3633 c 6.27442,-0.44741 12.09975,-1.51722 12.86484,-2.36261 0.45486,-0.50263 0.45671,-1.30035 0.004,-1.80041 -0.47326,-0.52295 -1.35466,-0.50152 -4.64884,0.11305 -5.39464,1.00643 -14.03986,1.60366 -19.8076,1.36834 -3.16482,-0.12912 -3.2855,-0.11963 -3.81297,0.2997 -0.85819,0.68227 -0.69595,1.78417 0.34663,2.35442 0.51178,0.27991 11.23899,0.29952 15.05378,0.0275 z m -1.68365,-11.88287 c 7.94141,-0.43982 13.10163,-1.53778 15.37437,-3.27127 0.35706,-0.27234 0.76767,-0.85341 0.9392,-1.32912 0.66687,-1.84938 4.45201,-36.11871 5.28505,-47.84896 0.17957,-2.52856 0.17661,-3.3562 -0.0136,-3.81548 -0.44526,-1.07495 -1.98468,-1.03274 -2.46184,0.0675 -0.16639,0.38366 -0.45532,2.83153 -0.72385,6.13262 -0.24581,3.02175 -0.5016,5.58254 -0.56841,5.69066 -0.0769,0.12455 -0.95255,0.0226 -2.39016,-0.27823 -11.47251,-2.40092 -30.44278,-2.54882 -41.32493,-0.32217 -3.21675,0.65819 -4.63912,1.1623 -5.66355,2.00728 -1.41092,1.16376 -1.40624,1.1259 -0.83655,6.76889 1.28812,12.75968 3.32308,30.64086 3.58444,31.49652 0.0584,0.19122 0.33449,0.619 0.61351,0.95058 2.41246,2.86705 14.67745,4.49933 28.18635,3.75118 z m -31.09793,-46.74441 c 0.3118,-0.31182 0.39602,-0.65975 0.39556,-1.63414 -8.7e-4,-1.77173 -0.53709,-7.10472 -0.77815,-7.73877 -0.44925,-1.18159 -2.01535,-1.20109 -2.50417,-0.0312 -0.24965,0.5975 -0.24733,1.11473 0.0185,4.10302 0.38918,4.37549 0.42251,4.56586 0.9071,5.18193 0.49708,0.63193 1.3939,0.68641 1.96119,0.11914 z m 5.27759,-1.5014 c 0.30394,-0.46387 0.31327,-0.77616 0.10125,-3.38478 -0.2835,-3.48728 -0.49702,-4.0174 -1.62082,-4.0242 -0.73238,-0.004 -1.31813,0.49065 -1.45714,1.23159 -0.14328,0.76378 0.3821,5.55569 0.66761,6.08919 0.23927,0.44707 0.5051,0.56327 1.33512,0.58358 0.47853,0.0117 0.72334,-0.1128 0.97401,-0.49538 z m 29.5829,-8.80466 c 4.68746,-0.20926 14.23994,-1.04197 15.97778,-1.39284 1.11037,-0.22418 2.04802,-0.92742 2.04802,-1.53601 0,-0.2084 -0.19292,-0.62416 -0.42872,-0.92394 -0.41922,-0.53294 -0.46423,-0.54271 -2.03028,-0.44045 -0.88085,0.0575 -2.58204,0.24028 -3.78039,0.40612 -3.51148,0.48595 -6.67387,0.69307 -14.44398,0.94599 -12.12133,0.39454 -24.56171,-0.16319 -33.38783,-1.49685 -1.39872,-0.21135 -2.38871,1.46057 -1.39651,2.35848 0.8032,0.7269 11.95765,1.9556 19.51691,2.14987 5.46384,0.14042 13.94925,0.1071 17.925,-0.0704 z"
       id="path34-2" />
    <path
       style="fill:#ffffff;fill-opacity:0.992933;stroke:none;stroke-width:0.0390738;stroke-linecap:butt;stroke-linejoin:miter;stroke-miterlimit:4;stroke-dasharray:none;stroke-opacity:1"
       d="m 140.53153,203.50116 c -0.12563,0 -0.36543,0.0341 -0.4802,0.16044 -0.12395,0.13645 -0.19972,0.43542 -0.17082,0.59264 0.0655,0.57571 0.74882,0.70806 1.07909,0.50994 0.21913,-0.15607 0.32448,-0.37992 0.29588,-0.61593 -0.0453,-0.22857 -0.0904,-0.34912 -0.28219,-0.46642 -0.0784,-0.0476 -0.34016,-0.156 -0.44176,-0.18067 z"
       id="path1645-3-52"
       sodipodi:nodetypes="ssccccss" />
    <path
       style="fill:#ffffff;fill-opacity:0.992933;stroke:#ffffff;stroke-width:0.744337;stroke-linecap:butt;stroke-linejoin:miter;stroke-miterlimit:4;stroke-dasharray:none;stroke-opacity:1"
       d="m 142.71036,199.5708 c -0.12563,0 -0.36541,0.0341 -0.4802,0.16045 -0.12394,0.13644 -0.19972,0.43541 -0.17082,0.59262 0.0655,0.57573 0.74882,0.70807 1.0791,0.50996 0.21912,-0.15609 0.32447,-0.37994 0.29588,-0.61594 -0.0453,-0.22857 -0.0904,-0.34912 -0.2822,-0.46643 -0.0784,-0.0476 -0.34015,-0.15599 -0.44176,-0.18066 z"
       id="path1645-3-4-3"
       sodipodi:nodetypes="ssccccss" />
    <path
       style="fill:#ffffff;fill-opacity:0.992933;stroke:none;stroke-width:0.0390738;stroke-linecap:butt;stroke-linejoin:miter;stroke-miterlimit:4;stroke-dasharray:none;stroke-opacity:1"
       d="m 138.3527,195.38005 c -0.12564,0 -0.36543,0.0341 -0.48021,0.16045 -0.12395,0.13645 -0.19972,0.43542 -0.17081,0.59263 0.0655,0.57572 0.74882,0.70807 1.07908,0.50996 0.21914,-0.15609 0.32447,-0.37994 0.29588,-0.61594 -0.0453,-0.22858 -0.0904,-0.34913 -0.28218,-0.46643 -0.0784,-0.0476 -0.34016,-0.15599 -0.44176,-0.18067 z"
       id="path1645-3-2-4"
       sodipodi:nodetypes="ssccccss" />
    <path
       style="fill:#ffffff;stroke:#ffffff;stroke-width:0.254852;stroke-miterlimit:4;stroke-dasharray:none;stroke-opacity:1"
       d="m 104.10814,166.40921 c -0.37312,-0.25789 -0.54623,-0.87481 -0.78369,-2.79284 -0.36237,-2.92694 -0.33304,-3.88494 0.1356,-4.42976 0.68478,-0.7961 2.00754,-0.4933 2.26126,0.51763 0.0539,0.21469 0.20165,1.56647 0.32838,3.00396 0.21306,2.41698 0.2098,2.65598 -0.0433,3.17658 -0.24618,0.50634 -0.34648,0.56716 -0.99749,0.60486 -0.39809,0.023 -0.80343,-0.0131 -0.90077,-0.0804 z"
       id="path1499-3-5" />
    <path
       style="fill:#ffffff;stroke:#ffffff;stroke-width:0.301873;stroke-miterlimit:4;stroke-dasharray:none;stroke-opacity:1"
       d="m 99.00285,167.64542 c -0.23095,-0.18167 -0.49394,-0.59785 -0.58439,-0.92484 -0.21827,-0.78902 -0.64749,-5.59936 -0.64749,-7.25649 0,-1.18106 0.0401,-1.35443 0.39479,-1.70918 0.69053,-0.69052 1.71426,-0.45405 2.10736,0.48679 0.27623,0.6611 0.94839,7.76729 0.80633,8.52458 -0.11634,0.62013 -0.74877,1.20946 -1.29794,1.20946 -0.1973,0 -0.5477,-0.14865 -0.77866,-0.33032 z"
       id="path1507-0" />
    <path
       id="Auswahl-3"
       fill="none"
       stroke="#000000"
       stroke-width="0.165878"
       d="m 116.01784,145.70445 c -1.04171,0.19574 -2.10168,0.141 -3.15169,0.14266 l -3.31757,0.16588 -1.65878,0.15095 c -3.23297,0.22061 -6.43443,0.49597 -9.62096,1.1429 -1.6704,0.34005 -6.46997,1.0583 -7.28941,2.68722 -0.25545,0.50925 -0.20071,2.53012 -0.19408,3.10903 l 0.15095,1.65879 0.33176,4.31283 0.982,11.94324 0.88579,10.7821 2.26591,24.71585 1.34361,13.76791 c 0.17749,1.93248 0.88105,6.94271 2.02893,8.47211 0.94219,1.25901 4.00312,1.55902 5.46617,2.0467 3.3889,1.12962 7.07306,1.48461 10.61623,1.72845 l 1.65878,0.15095 h 0.99527 l 2.65405,0.16587 c 6.64843,0.01 13.30182,0.15095 19.90544,-0.63863 3.22468,-0.38483 8.87473,-0.61848 11.31316,-2.8595 1.6621,-1.5294 2.74741,-5.48962 2.99623,-7.57305 l 1.33035,-13.43614 2.2659,-24.71586 0.71991,-8.79155 1.31376,-15.75845 0.33175,-4.31283 0.15095,-1.65879 c 0.006,-0.57891 0.0614,-2.04053 -0.19408,-2.54978 -0.47772,-0.95048 -3.34647,-2.08533 -4.30359,-2.43532 -1.99055,-0.72323 -4.84698,-1.21258 -6.9669,-1.44978 -4.20336,-0.46944 -8.37853,-0.773 -12.60676,-0.8211 l -2.48818,-0.14266 h -7.29865 z m 4.6446,3.77255 h 8.79158 l 2.81994,0.14265 h 3.8152 l 1.82466,0.15925 h 1.82466 l 1.82467,0.16587 5.80575,0.43461 6.1375,0.93389 c 0.55404,0.11943 2.01709,0.4545 2.35879,0.87915 0.28697,0.35333 0.16588,0.82773 0.14266,1.24244 l -0.18081,2.81993 -0.46777,5.3081 -0.62205,7.46452 -0.42962,5.30811 -0.99528,11.27973 -1.32703,14.76316 -0.95213,9.78681 -1.12964,11.44561 c -0.13602,1.10475 -0.1327,3.30761 -0.91399,4.09221 -0.55238,0.55736 -1.5493,1.49646 -2.28415,1.76684 -1.90926,0.70001 -4.12208,0.50073 -6.13751,0.77609 -3.1268,0.42796 -6.30172,0.65853 -9.45507,0.6635 l -2.81993,0.16589 h -5.30811 l -2.65407,-0.16589 h -2.3223 l -1.65879,-0.15095 c -3.36401,-0.23057 -6.66167,-0.46114 -9.95271,-1.28057 -1.21921,-0.30356 -3.40549,-0.92561 -4.20502,-1.92088 -0.64527,-0.80285 -0.69835,-3.0422 -0.84101,-4.11212 l -1.11967,-11.11385 -2.3223,-25.21349 -0.99528,-11.27972 -0.47607,-5.474 -0.29692,-2.9858 -0.22228,-3.15168 -0.47606,-5.97162 -0.16091,-2.65406 c -0.0382,-0.38982 -0.18744,-0.93223 0,-1.28224 0.26043,-0.43626 1.19101,-0.67015 1.66044,-0.80285 l 4.6446,-0.85594 c 2.81828,-0.40639 8.13967,-0.8692 10.94799,-0.87417 l 2.81993,-0.16588 z m -21.14948,3.09416 c -1.30215,0.69504 -2.04532,2.57722 -0.5806,3.03007 l 8.12804,1.12299 c 8.37024,0.81115 16.79854,0.70499 25.21356,0.69171 l 1.99053,-0.15924 h 2.15643 l 3.31756,-0.17251 1.65878,-0.15095 8.29393,-0.77466 c 1.13462,-0.16422 4.13204,-0.24052 3.73725,-2.05689 -0.36825,-1.6903 -2.90453,-1.99764 -4.06901,-1.83011 -4.03914,0.58224 -8.53444,0.99361 -12.60675,1.04006 l -2.48819,0.16588 h -3.15169 l -2.15641,0.16587 H 122.653 l -2.65407,-0.16587 h -2.98582 l -2.48818,-0.16588 c -3.76046,-0.0431 -7.53918,-0.45451 -11.27973,-0.85593 -1.10475,-0.11943 -2.80996,-0.0437 -3.73224,0.11546 z m 52.1671,4.88459 c -1.30546,0.75973 -1.66642,3.55927 -1.66642,3.55927 l -0.5429,2.27071 -2.74048,35.76567 -0.87583,7.13277 c -0.11447,0.82441 -0.17418,2.33722 -0.71329,2.94931 -0.57394,0.6519 -2.84481,1.20759 -3.74388,1.42158 -2.9858,0.70498 -6.07777,0.90901 -9.1233,1.11801 l -1.82467,0.15427 h -3.15169 l -1.32703,0.14763 -2.15642,-0.15095 h -2.98583 l -8.12805,-0.76138 c -1.54266,-0.24881 -5.31806,-0.86256 -6.43277,-1.83129 -0.66019,-0.57559 -0.64195,-1.42158 -0.74645,-2.21779 l -0.64195,-5.14223 -1.60736,-13.93377 c 0.50671,-14.89283 -2.32496,-24.02475 3.95454,-25.25498 3.62611,-0.60545 8.45151,-1.1147 12.10913,-1.11968 l 2.48819,-0.16588 h 7.13279 l 2.81992,0.16588 c 3.30431,0.005 7.66359,0.41138 10.94799,0.89907 2.21574,0.27932 6.22349,1.31828 7.89311,1.30208 3.16261,-0.0307 2.88888,-1.45248 1.05568,-2.3816 -0.85799,-0.43486 -4.05965,-0.86044 -6.29474,-1.34231 l -5.30811,-0.81115 -6.46925,-0.48602 -2.81994,-0.16587 h -9.95273 l -3.48344,0.16587 -1.65879,0.15095 c -4.22991,0.29029 -8.56856,-0.11905 -12.68235,0.98073 -1.54266,0.41303 -4.5381,0.33245 -4.6426,2.15214 l 1.53829,19.60738 2.13817,19.57364 0.80617,6.63514 c 0.14597,1.05498 0.15759,2.10997 0.95546,2.93273 1.05001,1.08318 3.15335,1.66209 4.58821,2.06684 3.18154,0.8974 6.82423,1.22915 10.11858,1.46968 h 1.49291 l 1.65879,0.16587 c 6.10434,0.0713 12.73119,0.008 18.74427,-1.03673 2.09174,-0.36328 5.81737,-1.17277 7.23397,-2.80667 0.67513,-0.77962 0.66683,-1.67039 0.79788,-2.62585 l 0.62038,-5.14222 0.77465,-6.1375 1.47466,-13.10438 1.67703,-17.08546 0.22228,-3.1517 0.30356,-4.14696 c -0.0166,-1.25072 -0.44788,-2.0884 -1.82634,-1.78485 z m -46.27512,10.12853 c 0.90071,0.39646 5.72115,0.95878 6.96358,1.08319 4.64128,0.46446 9.26763,0.52583 13.9338,0.52583 h 4.47873 l 3.15169,-0.16588 3.98108,-0.2853 5.80575,-0.69669 c 0.6154,-0.10114 1.99717,-0.29692 2.46993,-0.632 1.07821,-0.76471 0.77797,-2.44007 -0.64527,-2.49979 l -2.65406,0.39314 -4.64459,0.55402 -6.46927,0.34669 -2.81992,0.16588 h -6.63515 l -2.81994,-0.16588 -8.29394,-0.54408 -3.48344,-0.46445 c -2.10041,-1.21347 -4.20909,1.47982 -2.31898,2.38532 z m 0.82939,12.51387 c -0.42133,0.23223 -0.69835,0.38484 -0.85759,0.87584 -0.14929,0.39146 -0.0248,0.91067 0,1.3237 l 0.35663,3.15169 0.4711,3.8152 1.56424,12.10912 0.66185,4.14363 c 0.28531,0.74977 0.98864,1.18438 1.7749,0.87584 0.6884,-0.27038 0.82607,-0.8692 0.83105,-1.53604 l -0.53745,-4.47871 -2.04196,-15.75843 c -0.13602,-0.98366 -0.23389,-3.77208 -0.96375,-4.35597 -0.41636,-0.33341 -0.78792,-0.26872 -1.25902,-0.16587 z m 38.48051,41.75156 -5.80575,1.04172 c -2.94931,0.39644 -5.98324,0.70498 -8.95743,0.70995 l -2.81994,0.16588 h -4.64461 c -1.34693,-0.0166 -5.15716,-0.99526 -4.77067,1.48959 0.17417,1.123 1.54765,1.15285 2.44836,1.16447 h 9.45509 l 3.15169,-0.16589 c 2.11828,-0.0248 6.29178,-0.59218 8.45981,-0.9538 1.00523,-0.16753 4.03417,-0.66184 4.79223,-1.10971 0.78627,-0.46446 0.91731,-1.57419 0.15925,-2.12656 -0.45783,-0.33508 -0.94385,-0.27702 -1.46803,-0.21565 z"
       style="fill:#1a1a1a;stroke:none"
       sodipodi:nodetypes="ccccccccccccccsccccccccccccccccccccccccccccccccccccccccccccccccscccccccccccccccccccccccccccccccccccccccccccccccccccccccccccccsscccccccccccccccccccccccccccccsccccccccccccccccccccccccccccccccccccccccc" />
    <path
       style="fill:#ffffff;stroke:#ffffff;stroke-width:0.398261;stroke-miterlimit:4;stroke-dasharray:none;stroke-opacity:1"
       d="m 141.69941,190.86098 c -0.20034,-0.31619 -0.39318,-1.04059 -0.42853,-1.60974 -0.0853,-1.37332 0.29605,-9.74596 0.57529,-12.6303 0.19901,-2.05569 0.26829,-2.35745 0.68281,-2.9749 0.80688,-1.20191 1.79076,-0.7903 2.02533,0.84727 0.16483,1.1507 -0.36047,13.5194 -0.63015,14.83748 -0.22084,1.07939 -0.95258,2.10513 -1.50175,2.10513 -0.1973,0 -0.52265,-0.25872 -0.723,-0.57494 z"
       id="path1507-3-0" />
    <path
       style="fill:#f5f5f5;fill-opacity:1;stroke:none;stroke-width:0.106474"
       d="m 119.34489,228.75747 c -7.30905,-0.25892 -13.27828,-1.18843 -15.83344,-2.46554 -1.19195,-0.59577 -1.54841,-1.09312 -1.78317,-2.48801 -0.31734,-1.88553 -2.80203,-28.12835 -4.52641,-47.80691 -0.44131,-5.03623 -0.82641,-9.32449 -0.85579,-9.52945 -0.0761,-0.53069 -0.8829,-11.17991 -0.9687,-12.78579 -0.0688,-1.28707 -0.0625,-1.34835 0.16096,-1.55648 0.33712,-0.31407 1.44992,-0.605 4.16204,-1.08808 3.51117,-0.62543 6.9715,-0.98103 11.50446,-1.18226 6.16718,-0.27377 7.73091,-0.31033 13.09112,-0.30604 12.33143,0.01 19.87526,0.39304 26.13945,1.3276 3.27677,0.48886 4.69358,0.82415 5.21469,1.23406 l 0.29673,0.23339 -0.0726,1.39206 c -0.0399,0.76563 -0.19043,2.78153 -0.33444,4.47979 -0.14401,1.69827 -0.52549,6.25004 -0.84772,10.11505 -2.01533,24.17232 -4.95427,55.15984 -5.34622,56.3693 -0.22679,0.6998 -0.59556,1.087 -1.4424,1.51449 -2.36439,1.19354 -7.42648,2.09016 -13.7586,2.437 -2.65693,0.14552 -11.82788,0.2111 -14.79994,0.10582 z m 15.06612,-2.54983 c 5.1619,-0.49821 10.76022,-1.47562 11.66904,-2.03729 0.32424,-0.2004 0.68199,-0.84609 0.68199,-1.23091 0,-0.32878 -0.35273,-0.90411 -0.64791,-1.05675 -0.50029,-0.2587 -1.48291,-0.17983 -4.66786,0.37471 -4.45613,0.77586 -6.19235,0.94729 -12.97116,1.28074 -2.8125,0.13835 -4.61741,0.13516 -7.16044,-0.0127 -2.33409,-0.13569 -2.8048,-0.0741 -3.31207,0.43315 -0.74014,0.74014 -0.4337,1.92074 0.59698,2.29989 0.36374,0.13381 1.45915,0.15016 7.50643,0.11199 3.999,-0.0253 7.61346,-0.0961 8.305,-0.16286 z m -2.92804,-11.82796 c 6.91625,-0.36462 11.66641,-1.19052 14.37404,-2.49919 1.64181,-0.79353 2.24327,-1.50249 2.48549,-2.92973 0.23005,-1.35556 1.6164,-12.71886 2.30217,-18.87005 1.25642,-11.26965 2.47089,-23.94734 2.88141,-30.07867 0.12489,-1.86518 -0.1937,-2.57279 -1.19728,-2.65924 -0.62138,-0.0535 -1.08514,0.19927 -1.33434,0.72735 -0.96245,1.95059 0.0326,0.40665 -1.59386,2.53087 -2.92347,-0.78391 -7.99652,-1.28179 -12.58788,-1.65955 -3.08017,-0.25342 -4.05732,-0.28512 -10.01461,-0.32494 -6.55523,-0.0438 -8.21374,0.002 -12.40427,0.3462 -2.52936,0.41199 -16.24784,0.19813 -16.05645,2.92784 0.53471,5.02367 0,0 1.25943,15.27765 0.15697,3.40895 0.30755,5.34526 0.68727,8.83736 1.74468,16.04498 2.52442,22.66071 2.7756,23.5496 0.28797,1.01908 1.3465,1.92843 3.00334,2.58011 1.67477,0.65872 4.63712,1.34625 7.34059,1.70367 1.71325,0.22649 5.18914,0.52802 6.63337,0.57542 2.47409,0.0812 9.6608,0.0594 11.44598,-0.0347 z m 6.65465,-57.16896 c 2.98033,-0.19898 12.14091,-1.0669 13.0861,-1.23985 1.08768,-0.19903 1.8624,-0.57239 2.14317,-1.03288 0.26525,-0.43501 0.26279,-0.64416 -0.0144,-1.21662 -0.43173,-0.89183 -1.24455,-1.43305 -4.79654,-0.95453 -3.19476,0.43039 -5.15369,0.34246 -7.82932,0.47655 -1.22977,0.0616 -3.78549,0.29483 -5.07383,0.36683 -3.14715,0.17589 -16.28192,0.29673 -19.53913,0.11963 -5.34403,-0.29092 -6.62977,-0.60906 -9.24479,-0.85813 -1.49331,-0.14224 -3.89037,-0.28378 -5.17544,-0.46593 -2.65318,-0.37607 -3.02104,0.38692 -3.58036,1.02394 -0.59299,0.67538 -0.39362,1.5993 0.4379,2.0293 0.41205,0.21308 7.93953,1.24876 10.67879,1.46927 1.73229,0.13944 4.21127,0.2746 7.77263,0.42378 2.00093,0.0838 19.5179,-0.0332 21.13516,-0.14112 z"
       id="path3676"
       sodipodi:nodetypes="sssssssssssscssssssssssssssssssssssssccsscccssssssssssssssssssssssscs" />
    <path
       style="fill:#ffffff;stroke:#ffffff;stroke-width:0.0954223;stroke-miterlimit:4;stroke-dasharray:none;stroke-opacity:1"
       d="m 104.86085,171.22972 c -0.67162,-0.23492 -1.08093,-1.17301 -0.25041,-1.4912 0.43334,-0.16347 0.86376,-0.0995 1.07689,0.10949 0.38884,0.52943 0.42094,0.79971 -0.21109,1.39939 -0.26961,0.004 -0.54654,-0.004 -0.6154,-0.0176 z"
       id="path1499-3-8"
       sodipodi:nodetypes="cccccc" />
    <path
       style="fill:#00f9be;fill-opacity:1;stroke:none;stroke-width:0.138806"
       d="m 123.7224,211.81507 c -3.88294,-0.10859 -8.15783,-0.39254 -8.32136,-0.55275 -0.0725,-0.071 -0.42069,-0.12917 -0.77369,-0.12917 -0.35299,0 -1.29305,-0.0998 -2.08901,-0.22181 -0.79596,-0.12199 -1.75752,-0.24095 -2.1368,-0.26433 -0.37928,-0.0234 -0.7102,-0.10431 -0.73539,-0.17987 -0.0251,-0.0756 -0.16771,-0.10547 -0.31673,-0.0665 -0.14903,0.039 -0.2711,0.0167 -0.27127,-0.0495 -1.3e-4,-0.0662 -0.20041,-0.1276 -0.44496,-0.13653 -0.24455,-0.008 -0.46707,-0.0835 -0.49447,-0.1657 -0.0274,-0.0822 -0.13948,-0.11508 -0.24907,-0.073 -0.10958,0.0421 -0.19923,0.003 -0.19923,-0.0854 0,-0.089 -0.0599,-0.12481 -0.13317,-0.0796 -0.2796,0.1728 -1.29177,-0.59312 -1.64625,-1.24575 -0.23042,-0.42422 -0.25625,-0.5172 -0.34703,-1.24926 -0.0284,-0.22902 -0.12473,-0.94734 -0.21407,-1.59625 -0.18398,-1.33633 -1.45556,-12.35175 -1.68244,-14.57451 -1.74667,-12.28676 -2.93473,-19.48688 -2.8315,-27.87973 0.97356,-1.81912 14.4802,-2.00547 26.98119,-1.77597 4.06547,0.0746 7.55272,0.2236 10.13277,0.43283 2.49692,0.35783 5.34681,0.61545 7.56737,0.83287 1.28805,0.1288 2.64711,0.35141 3.04261,0.35141 0.49195,0 0.92246,0.0468 0.95668,0.1041 0.0342,0.0573 -0.0226,1.1972 -0.12623,2.5332 -0.10368,1.33598 -0.28535,3.86571 -0.4038,5.62159 -0.20502,3.03906 -1.18995,15.33872 -1.94517,24.29086 -0.19321,2.29028 -0.41302,4.30826 -0.48847,4.4844 -0.0755,0.17616 -0.0987,0.47366 -0.0517,0.66113 0.048,0.19102 0.0109,0.43082 -0.0842,0.5455 -0.0934,0.11256 -0.12951,0.30973 -0.0802,0.43817 0.0493,0.12844 0.0272,0.55086 -0.0491,0.9387 -0.0763,0.38785 -0.23869,1.67334 -0.36083,2.85664 -0.12215,1.18332 -0.25911,2.24517 -0.30438,2.35969 -0.0452,0.11451 -0.0725,0.25454 -0.0607,0.31117 0.0119,0.0566 -0.0875,0.23567 -0.22088,0.39787 -0.59528,0.72386 -1.10966,1.08869 -1.82872,1.29709 -0.42542,0.12329 -1.07323,0.32311 -1.43958,0.44403 -0.36635,0.12094 -0.69958,0.18638 -0.74052,0.14544 -0.0409,-0.0409 -0.24091,-0.0188 -0.44436,0.0491 -0.20346,0.068 -1.26688,0.25079 -2.36315,0.40632 -1.09628,0.15553 -2.04148,0.3126 -2.10044,0.34904 -0.0975,0.0603 -1.52158,0.15903 -4.09583,0.284 -0.53439,0.026 -1.68995,0.0836 -2.56789,0.12812 -2.80871,0.14244 -3.07285,0.14517 -6.03802,0.0623 z m -13.38981,-5.61201 c 0.2274,-0.1176 0.44738,-0.36958 0.49772,-0.57013 0.13142,-0.52362 -0.0303,-2.33788 -0.65435,-7.33922 -1.28659,-10.31173 -1.27673,-10.23195 -1.45376,-11.76372 -0.28123,-2.43347 -0.48284,-3.82496 -0.68879,-4.75407 -0.23386,-1.05514 -0.36207,-1.28585 -0.91419,-1.64507 -0.40946,-0.26642 -0.86629,-0.16563 -1.25014,0.27579 -0.50845,0.58472 -0.53121,0.77542 -0.33081,2.7702 0.42078,4.18837 2.53419,20.36001 2.84628,21.7795 0.28408,1.29206 0.98852,1.7429 1.94804,1.24672 z m 30.72556,-1.76724 c 0.2083,-0.33228 -0.0454,-0.71594 -0.51029,-0.77175 -0.49316,-0.0592 -0.72341,0.36892 -0.42645,0.79289 0.24817,0.35432 0.70788,0.34394 0.93674,-0.0211 z m 2.43634,-3.66544 c 0.3296,-0.41903 0.27678,-0.81627 -0.1586,-1.19274 -0.60339,-0.52172 -1.53413,-0.12171 -1.53413,0.65933 0,0.87956 1.1383,1.23826 1.69273,0.53341 z m -4.58753,-4.40236 c 0.34845,-0.41985 -0.33678,-1.0302 -0.85294,-0.75973 -0.2376,0.12451 -0.33396,0.67421 -0.15037,0.85782 0.16433,0.16433 0.84037,0.0982 1.00331,-0.0981 z m -3.45552,-27.43999 c 1.03062,-0.0754 2.49848,-0.20266 3.26191,-0.283 0.76343,-0.0803 1.6379,-0.17192 1.94328,-0.20351 1.34766,-0.13943 2.86858,-0.3757 4.01742,-0.62409 1.35622,-0.29323 1.93595,-0.6781 2.09206,-1.38883 0.11856,-0.53984 -0.25655,-1.21449 -0.73332,-1.31885 -0.20855,-0.0457 -0.46326,-0.10936 -0.56603,-0.14158 -0.10273,-0.0322 -0.78986,0.0331 -1.52686,0.14502 -0.73701,0.11198 -2.21448,0.29929 -3.28327,0.41626 -1.06881,0.11697 -2.22437,0.24608 -2.5679,0.2869 -0.54907,0.0652 -4.88641,0.29437 -10.688,0.56459 -3.43561,0.16003 -16.37786,-0.63909 -19.2245,-1.18702 -1.63949,-0.31557 -1.81996,-0.3214 -2.33817,-0.0755 -0.60337,0.28632 -1.13374,0.78245 -1.07252,1.30885 0.0504,0.43342 0.72691,1.17622 1.5205,1.39631 1.20304,0.33365 7.49266,1.00819 10.84312,1.16289 4.01611,0.18543 15.48564,0.14884 18.32228,-0.0584 z"
       id="path3611"
       sodipodi:nodetypes="ssssssscssssssssccsccssssssssssssssssssssssssssssssssssssssssssssssssssssssssssssss" />
  </g>
</svg>
